<?xml version="1.0" encoding="UTF-8"?>
<svg version="1.1" xmlns="http://www.w3.org/2000/svg" width="300" height="136">
<path d="M0 0 C99 0 198 0 300 0 C300 44.88 300 89.76 300 136 C201 136 102 136 0 136 C0 91.12 0 46.24 0 0 Z " fill="#FBFCFD" transform="translate(0,0)"/>
<path d="M0 0 C1.05263535 -0.00145523 2.10527069 -0.00291046 3.18980408 -0.00440979 C5.41310395 -0.00275096 7.63641532 0.00880847 9.85961914 0.02954102 C13.26823507 0.05851632 16.67529809 0.05014497 20.08398438 0.03710938 C22.24349716 0.04334608 24.40300503 0.05173649 26.5625 0.0625 C28.095364 0.05809654 28.095364 0.05809654 29.65919495 0.05360413 C30.60705368 0.0662883 31.55491241 0.07897247 32.53149414 0.09204102 C33.36548233 0.097444 34.19947052 0.10284698 35.05873108 0.1084137 C37.21484375 0.49609375 37.21484375 0.49609375 38.98626709 1.7074585 C40.62631722 4.0951414 40.57679904 5.63212961 40.55541992 8.51831055 C40.55508003 10.04955818 40.55508003 10.04955818 40.55473328 11.61174011 C40.53924942 12.711819 40.52376556 13.81189789 40.5078125 14.9453125 C40.50356766 16.07306595 40.49932281 17.2008194 40.49494934 18.36274719 C40.47813686 21.96993742 40.44047903 25.57657197 40.40234375 29.18359375 C40.38730028 31.62694507 40.37361129 34.07030512 40.36132812 36.51367188 C40.32822491 42.50800257 40.27799968 48.50200846 40.21484375 54.49609375 C38.23484375 54.49609375 36.25484375 54.49609375 34.21484375 54.49609375 C34.21484375 46.57609375 34.21484375 38.65609375 34.21484375 30.49609375 C32.56484375 31.48609375 30.91484375 32.47609375 29.21484375 33.49609375 C26.85888672 33.88427734 26.85888672 33.88427734 24.45703125 33.89453125 C23.14798828 33.90033203 23.14798828 33.90033203 21.8125 33.90625 C20.46478516 33.88884766 20.46478516 33.88884766 19.08984375 33.87109375 C17.73052734 33.88849609 17.73052734 33.88849609 16.34375 33.90625 C15.47363281 33.90238281 14.60351562 33.89851563 13.70703125 33.89453125 C12.9166748 33.89114746 12.12631836 33.88776367 11.31201172 33.88427734 C9.21484375 33.49609375 9.21484375 33.49609375 7.45239258 32.33129883 C5.70306561 29.73715978 5.87451932 27.84406497 5.921875 24.734375 C5.93154297 23.61611328 5.94121094 22.49785156 5.95117188 21.34570312 C5.97630859 20.17845703 6.00144531 19.01121094 6.02734375 17.80859375 C6.04087891 16.62974609 6.05441406 15.45089844 6.06835938 14.23632812 C6.10375049 11.32245964 6.15312566 8.4095043 6.21484375 5.49609375 C4.56484375 5.49609375 2.91484375 5.49609375 1.21484375 5.49609375 C1.26689186 9.53879576 1.36201278 13.57938971 1.46484375 17.62109375 C1.47902344 18.76320313 1.49320313 19.9053125 1.5078125 21.08203125 C1.71259965 28.12670928 2.12581119 32.40706119 7.21484375 37.49609375 C9.90720151 37.73288091 12.57982531 37.918074 15.27734375 38.05859375 C16.41526367 38.12336914 16.41526367 38.12336914 17.57617188 38.18945312 C19.45549813 38.29583008 21.33514619 38.39649309 23.21484375 38.49609375 C22.0631102 40.96409422 21.1670081 42.5439294 19.21484375 44.49609375 C13.88923471 45.34849293 8.46283913 45.74498007 3.6484375 43.0703125 C0.34906027 40.23272656 -2.15142067 37.56112294 -3.78515625 33.49609375 C-4.01220703 30.47167969 -4.01220703 30.47167969 -3.98046875 26.98046875 C-3.97402344 25.73007813 -3.96757812 24.4796875 -3.9609375 23.19140625 C-3.94417969 21.88945313 -3.92742188 20.5875 -3.91015625 19.24609375 C-3.90113281 17.92867187 -3.89210938 16.61125 -3.8828125 15.25390625 C-3.85924158 12.00111913 -3.82633647 8.74869786 -3.78515625 5.49609375 C-5.76515625 5.49609375 -7.74515625 5.49609375 -9.78515625 5.49609375 C-9.79146481 9.97652293 -9.73151215 14.4537814 -9.66015625 18.93359375 C-9.66273437 20.19365234 -9.6653125 21.45371094 -9.66796875 22.75195312 C-9.49685215 30.94416016 -8.38284137 36.35450758 -2.78515625 42.49609375 C1.09485605 46.02337765 3.67948516 47.54255789 8.83984375 48.05859375 C9.65710938 48.14238281 10.474375 48.22617188 11.31640625 48.3125 C12.25613281 48.40337891 12.25613281 48.40337891 13.21484375 48.49609375 C11.33984375 52.37109375 11.33984375 52.37109375 10.21484375 53.49609375 C4.96881653 53.91577593 0.59303681 53.498797 -3.78515625 50.49609375 C-10.41458773 44.40182231 -14.28809617 39.30167196 -15.07568359 30.1027832 C-15.12462523 26.33769804 -15.15644098 22.57401973 -15.16015625 18.80859375 C-15.18464844 17.49052734 -15.20914062 16.17246094 -15.234375 14.81445312 C-15.23824219 13.55052734 -15.24210938 12.28660156 -15.24609375 10.984375 C-15.25431152 9.83493408 -15.2625293 8.68549316 -15.27099609 7.5012207 C-14.78515625 4.49609375 -14.78515625 4.49609375 -13.43041992 2.12158203 C-9.17328891 -0.49438274 -4.89775487 -0.0539485 0 0 Z " fill="#5D9EBE" transform="translate(14.78515625,53.50390625)"/>
<path d="M0 0 C18.15278188 -0.70909304 18.15278188 -0.70909304 23.5546875 3.56640625 C27.8007086 7.77800015 29.80847153 10.70165837 30.3125 16.75 C30.24231581 21.52252495 28.75765893 24.12437123 26 28 C21.81783892 31.97305302 18.56000289 33.14060608 12.890625 33.09765625 C11.8701709 33.09390991 11.8701709 33.09390991 10.82910156 33.09008789 C9.97799805 33.08098389 9.12689453 33.07187988 8.25 33.0625 C5.5275 33.041875 2.805 33.02125 0 33 C0 22.11 0 11.22 0 0 Z " fill="#72A9C5" transform="translate(253,43)"/>
<path d="M0 0 C1.1849707 0.00708984 2.36994141 0.01417969 3.59082031 0.02148438 C4.89535156 0.0240625 6.19988281 0.02664062 7.54394531 0.02929688 C8.56101562 0.0510498 8.56101562 0.0510498 9.59863281 0.07324219 C11.64910276 0.11483191 13.69625259 0.11433031 15.74707031 0.10742188 C25.14211405 0.19989278 32.42609051 0.78680843 39.66894531 7.30273438 C40.38566406 7.92535156 41.10238281 8.54796875 41.84082031 9.18945312 C48.20861475 16.62253648 48.47420751 23.20739201 48.30957031 32.64648438 C48.30391052 33.87814331 48.29825073 35.10980225 48.29241943 36.37878418 C48.27012762 40.29133878 48.21994152 44.20295912 48.16894531 48.11523438 C48.14660472 50.77667931 48.13062214 53.43811546 48.11425781 56.09960938 C48.07028619 62.6051335 48.00344477 69.11011717 47.91894531 75.61523438 C45.93894531 75.61523438 43.95894531 75.61523438 41.91894531 75.61523438 C41.91307907 74.95426254 41.90721283 74.29329071 41.90116882 73.61228943 C41.83711176 66.71740319 41.75265986 59.82297838 41.65649414 52.9284668 C41.62329089 50.35723972 41.59524473 47.78594056 41.57250977 45.21459961 C41.53888017 41.51319739 41.48655761 37.81245297 41.43066406 34.11132812 C41.42427414 32.96627304 41.41788422 31.82121796 41.41130066 30.64146423 C41.28086183 23.52061913 40.98971207 17.77082895 35.79785156 12.43554688 C35.0334375 11.87609375 34.26902344 11.31664062 33.48144531 10.74023438 C32.71960937 10.1653125 31.95777344 9.59039062 31.17285156 8.99804688 C26.86022951 6.35217477 22.48017267 6.42065335 17.52832031 6.29882812 C16.82370667 6.27804703 16.11909302 6.25726593 15.39312744 6.2358551 C13.1518285 6.170696 10.91041667 6.1116319 8.66894531 6.05273438 C7.14549634 6.00951711 5.6220586 5.96590181 4.09863281 5.921875 C0.37218941 5.81504946 -3.35437963 5.71368799 -7.08105469 5.61523438 C-4.95265042 2.30379973 -3.94529987 0.78780948 0 0 Z " fill="#62A0BF" transform="translate(28.0810546875,32.384765625)"/>
<path d="M0 0 C2.206875 -0.061875 4.41375 -0.12375 6.6875 -0.1875 C8.54955078 -0.23970703 8.54955078 -0.23970703 10.44921875 -0.29296875 C14.19991035 0.01649425 16.06718955 0.68403305 19 3 C19 3.66 19 4.32 19 5 C19.99 4.67 20.98 4.34 22 4 C22.73323796 1.98491642 22.73323796 1.98491642 23 0 C24.98 0 26.96 0 29 0 C29 8.25 29 16.5 29 25 C22.565 25.495 22.565 25.495 16 26 C13 21 13 21 11.6875 18.75 C9.34901179 16.32490112 7.27626382 16.29122345 4 16 C4 18.97 4 21.94 4 25 C2.68 25 1.36 25 0 25 C0 16.75 0 8.5 0 0 Z " fill="#79ACC6" transform="translate(188,83)"/>
<path d="M0 0 C0.80833282 0.00718552 1.61666565 0.01437103 2.44949341 0.02177429 C3.28062653 0.02223251 4.11175964 0.02269073 4.96807861 0.02316284 C6.72833684 0.02618677 8.48859235 0.03407728 10.24880981 0.0464325 C12.93949912 0.06462266 15.62984294 0.06694262 18.32058716 0.06669617 C20.03022554 0.07161404 21.7398616 0.07744354 23.44949341 0.08427429 C24.25377777 0.08538712 25.05806213 0.08649994 25.88671875 0.08764648 C29.45064485 0.11780084 32.65275674 0.2932248 36.08230591 1.25224304 C36.08230591 1.91224304 36.08230591 2.57224304 36.08230591 3.25224304 C36.65980591 3.47911804 37.23730591 3.70599304 37.83230591 3.93974304 C40.99186414 5.78281868 42.19086575 7.03880485 44.08230591 10.25224304 C44.64724582 14.42636202 44.54667729 18.56652163 44.47293091 22.77177429 C44.46727112 23.98548203 44.46161133 25.19918976 44.45578003 26.44967651 C44.43341033 30.32176849 44.38320973 34.19293128 44.33230591 38.06474304 C44.31224182 40.69168279 44.29399089 43.31863706 44.27761841 45.94560242 C44.23354337 52.3814657 44.16662382 58.81678798 44.08230591 65.25224304 C42.43230591 65.25224304 40.78230591 65.25224304 39.08230591 65.25224304 C39.08088089 64.61410675 39.07945587 63.97597046 39.07798767 63.3184967 C39.05827647 56.66690785 39.00397172 50.01623493 38.92971802 43.36503601 C38.90654424 40.8839831 38.89214379 38.4028319 38.88674927 35.92167664 C38.8774558 32.35155528 38.83645228 28.78297863 38.78933716 25.21318054 C38.79326981 24.10671173 38.79720245 23.00024292 38.80125427 21.86024475 C38.72105882 15.37146674 38.72105882 15.37146674 36.15652466 9.55497742 C31.83275142 6.31626798 28.46639657 6.39507936 23.18777466 6.44755554 C22.24041946 6.43384918 21.29306427 6.42014282 20.31700134 6.40602112 C17.30078621 6.36872687 14.28621886 6.37243563 11.26980591 6.37724304 C9.22095205 6.35911589 7.17212 6.33831315 5.12332153 6.31474304 C0.1093736 6.26289721 -4.90349281 6.24781214 -9.91769409 6.25224304 C-7.45282657 0.97038407 -5.93456347 0.02441862 0 0 Z " fill="#69A5C2" transform="translate(20.917694091796875,42.74775695800781)"/>
<path d="M0 0 C18.34821429 -0.80357143 18.34821429 -0.80357143 22.625 2.4375 C24.85853832 5.00576477 25.46750273 7.18920859 25.6875 10.5625 C25.33349779 14.76804621 24.21017539 17.13687059 21 20 C15.63256758 22.63776217 10.88648292 22.14184296 5 22 C5 25.96 5 29.92 5 34 C3.35 34 1.7 34 0 34 C0 22.78 0 11.56 0 0 Z " fill="#6AA5C2" transform="translate(129,43)"/>
<path d="M0 0 C2.84625 -0.0825 5.6925 -0.165 8.625 -0.25 C9.51010254 -0.28641602 10.39520508 -0.32283203 11.30712891 -0.36035156 C16.64878607 -0.43489191 19.88405597 0.25940936 24 4 C25.31352641 6.98528729 25.33558923 9.77275026 25 13 C23.34884902 16.49281939 22.2048326 18.38401106 18.74609375 20.15234375 C15.58761017 21.1272953 12.98615663 21.19749795 9.6875 21.125 C8.61886719 21.10695313 7.55023438 21.08890625 6.44921875 21.0703125 C5.64097656 21.04710938 4.83273438 21.02390625 4 21 C4 24.63 4 28.26 4 32 C2.68 32 1.36 32 0 32 C0 21.44 0 10.88 0 0 Z " fill="#5C9DBD" transform="translate(159,44)"/>
<path d="M0 0 C7.26 0 14.52 0 22 0 C22 7.26 22 14.52 22 22 C14.74 22 7.48 22 0 22 C0 14.74 0 7.48 0 0 Z " fill="#F8FBFC" transform="translate(27,59)"/>
<path d="M0 0 C1.65 0 3.3 0 5 0 C9.86394678 9.38184201 9.86394678 9.38184201 11.4375 13.875 C13.09777281 18.59519421 15.46669171 22.94278888 17.79296875 27.36328125 C19 30 19 30 19 33 C17.35 33 15.7 33 14 33 C12.515 29.535 12.515 29.535 11 26 C5.39 26 -0.22 26 -6 26 C-6.99 28.31 -7.98 30.62 -9 33 C-10.65 33 -12.3 33 -14 33 C-12.73809332 27.16530776 -10.90608091 22.32650528 -8.125 17.0625 C-7.40735592 15.66873917 -6.69119917 14.27421148 -5.9765625 12.87890625 C-5.6352832 12.2152002 -5.29400391 11.55149414 -4.94238281 10.86767578 C-3.14627592 7.30803388 -1.57007413 3.6635063 0 0 Z " fill="#6EA7C4" transform="translate(106,43)"/>
<path d="M0 0 C8.25 0 16.5 0 25 0 C25 1.65 25 3.3 25 5 C18.73 5 12.46 5 6 5 C6 7.97 6 10.94 6 14 C11.61 14 17.22 14 23 14 C23 15.65 23 17.3 23 19 C17.06 19 11.12 19 5 19 C5 22.3 5 25.6 5 29 C11.6 29 18.2 29 25 29 C25 30.32 25 31.64 25 33 C16.75 33 8.5 33 0 33 C0 22.11 0 11.22 0 0 Z " fill="#73AAC6" transform="translate(223,43)"/>
<path d="M0 0 C12.66666667 0 12.66666667 0 17 4 C19.37965342 7.02864981 19.35961865 10.24751112 19.25390625 14.0390625 C18.87699095 16.95000834 17.81934638 18.72581703 16 21 C12 24 12 24 0 24 C0 16.08 0 8.16 0 0 Z " fill="#F5F9FB" transform="translate(258,48)"/>
<path d="M0 0 C0.33 0 0.66 0 1 0 C1 16.83 1 33.66 1 51 C-0.98 51 -2.96 51 -5 51 C-5 43.08 -5 35.16 -5 27 C-7.475 28.485 -7.475 28.485 -10 30 C-12.35595703 30.38818359 -12.35595703 30.38818359 -14.7578125 30.3984375 C-16.06685547 30.40423828 -16.06685547 30.40423828 -17.40234375 30.41015625 C-18.75005859 30.39275391 -18.75005859 30.39275391 -20.125 30.375 C-21.48431641 30.39240234 -21.48431641 30.39240234 -22.87109375 30.41015625 C-23.74121094 30.40628906 -24.61132812 30.40242188 -25.5078125 30.3984375 C-26.29816895 30.39505371 -27.08852539 30.39166992 -27.90283203 30.38818359 C-30 30 -30 30 -31.76245117 28.83520508 C-33.51177814 26.24106603 -33.34032443 24.34797122 -33.29296875 21.23828125 C-33.28330078 20.12001953 -33.27363281 19.00175781 -33.26367188 17.84960938 C-33.23853516 16.68236328 -33.21339844 15.51511719 -33.1875 14.3125 C-33.17396484 13.13365234 -33.16042969 11.95480469 -33.14648438 10.74023438 C-33.11109326 7.82636589 -33.06171809 4.91341055 -33 2 C-32.01 2.495 -32.01 2.495 -31 3 C-29.68 2.67 -28.36 2.34 -27 2 C-27 9.26 -27 16.52 -27 24 C-19.74 24 -12.48 24 -5 24 C-5 16.74 -5 9.48 -5 2 C-4.67 2 -4.34 2 -4 2 C-4 17.84 -4 33.68 -4 50 C-2.68 50 -1.36 50 0 50 C0 33.5 0 17 0 0 Z " fill="#73AAC6" transform="translate(54,57)"/>
<path d="M0 0 C5 1 5 1 6.80078125 3.06640625 C7.29964844 3.89011719 7.79851562 4.71382813 8.3125 5.5625 C8.82425781 6.38878906 9.33601563 7.21507813 9.86328125 8.06640625 C10.23839844 8.70449219 10.61351563 9.34257813 11 10 C15.28323278 8.57225574 16.1905329 5.71431577 18.40234375 1.93359375 C18.92957031 1.29550781 19.45679687 0.65742187 20 0 C21.32 0 22.64 0 24 0 C24 8.25 24 16.5 24 25 C22.68 25 21.36 25 20 25 C19.67 20.05 19.34 15.1 19 10 C17.576875 11.98 17.576875 11.98 16.125 14 C14.5078125 16.25 14.5078125 16.25 13 18 C12.34 18 11.68 18 11 18 C8.79855191 15.12557036 6.95104804 12.05381433 5 9 C4.67 14.28 4.34 19.56 4 25 C2.68 25 1.36 25 0 25 C0 16.75 0 8.5 0 0 Z " fill="#69A4C2" transform="translate(93,83)"/>
<path d="M0 0 C1.65 0 3.3 0 5 0 C15 21.61702128 15 21.61702128 15 25 C13.68 25 12.36 25 11 25 C9 22 9 22 9 19 C2.565 19.495 2.565 19.495 -4 20 C-4.99 22.475 -4.99 22.475 -6 25 C-7.32 25 -8.64 25 -10 25 C-7.90065494 16.19815878 -3.83820877 8.14843027 0 0 Z " fill="#6BA5C2" transform="translate(230,83)"/>
<path d="M0 0 C1.65 0 3.3 0 5 0 C5.0093457 0.72590332 5.01869141 1.45180664 5.02832031 2.19970703 C5.08221281 5.50881214 5.16582439 8.81653238 5.25 12.125 C5.26417969 13.26710938 5.27835938 14.40921875 5.29296875 15.5859375 C5.4977559 22.63061553 5.91096744 26.91096744 11 32 C13.69235776 32.23678716 16.36498156 32.42198025 19.0625 32.5625 C20.20041992 32.62727539 20.20041992 32.62727539 21.36132812 32.69335938 C23.24065438 32.79973633 25.12030244 32.90039934 27 33 C25.84826645 35.46800047 24.95216435 37.04783565 23 39 C17.67439096 39.85239918 12.24799538 40.24888632 7.43359375 37.57421875 C4.13421652 34.73663281 1.63373558 32.06502919 0 28 C-0.22705078 24.97558594 -0.22705078 24.97558594 -0.1953125 21.484375 C-0.18886719 20.23398438 -0.18242187 18.98359375 -0.17578125 17.6953125 C-0.15902344 16.39335938 -0.14226563 15.09140625 -0.125 13.75 C-0.11597656 12.43257812 -0.10695313 11.11515625 -0.09765625 9.7578125 C-0.07408533 6.50502538 -0.04118022 3.25260411 0 0 Z " fill="#5E9EBE" transform="translate(11,59)"/>
<path d="M0 0 C2.375 0.21875 2.375 0.21875 5 1 C6.1875 2.96875 6.1875 2.96875 7 5.5 C8.57192138 10.00316822 10.52869255 13.85178653 13.046875 17.89453125 C14.18156311 20.40107588 14.1709719 22.27869719 14 25 C12.68 24.67 11.36 24.34 10 24 C9.505 21.525 9.505 21.525 9 19 C6.89516445 19.0330288 4.7908757 19.10244546 2.6875 19.1875 C1.51574219 19.22230469 0.34398437 19.25710937 -0.86328125 19.29296875 C-4.20029471 19.66948247 -4.20029471 19.66948247 -5.73046875 22.55078125 C-6.35888672 23.76314453 -6.35888672 23.76314453 -7 25 C-7.99 25 -8.98 25 -10 25 C-8.68231441 15.77620086 -4.29548519 8.14144286 0 0 Z " fill="#6AA5C2" transform="translate(131,83)"/>
<path d="M0 0 C1.32 0.66 2.64 1.32 4 2 C4 20.15 4 38.3 4 57 C2.35 57 0.7 57 -1 57 C-1.1932384 49.20406335 -1.37073126 41.40788401 -1.53710938 33.61132812 C-1.59562601 30.9572736 -1.65779096 28.30329697 -1.72363281 25.64941406 C-1.81746896 21.84194112 -1.89832111 18.03438377 -1.9765625 14.2265625 C-2.00875885 13.03382721 -2.0409552 11.84109192 -2.0741272 10.61221313 C-2.09429901 9.51122284 -2.11447083 8.41023254 -2.13525391 7.27587891 C-2.15746002 6.30325104 -2.17966614 5.33062317 -2.20254517 4.32852173 C-2 2 -2 2 0 0 Z " fill="#5A9CBC" transform="translate(61,51)"/>
<path d="M0 0 C1.98 0 3.96 0 6 0 C6 8.25 6 16.5 6 25 C-0.435 25.495 -0.435 25.495 -7 26 C-5.68 25.34 -4.36 24.68 -3 24 C-3.3609375 23.52949219 -3.721875 23.05898437 -4.09375 22.57421875 C-4.5578125 21.95160156 -5.021875 21.32898438 -5.5 20.6875 C-6.19609375 19.76517578 -6.19609375 19.76517578 -6.90625 18.82421875 C-8 17 -8 17 -8 14 C-7.360625 13.566875 -6.72125 13.13375 -6.0625 12.6875 C-3.26310565 10.39708644 -3.45450336 8.4845258 -3 5 C-2.34 4.67 -1.68 4.34 -1 4 C-0.34786708 1.97536745 -0.34786708 1.97536745 0 0 Z " fill="#DDEBF1" transform="translate(211,83)"/>
<path d="M0 0 C6.27 0 12.54 0 19 0 C19 1.32 19 2.64 19 4 C14.05 4 9.1 4 4 4 C4 6.31 4 8.62 4 11 C8.29 11 12.58 11 17 11 C17 11.99 17 12.98 17 14 C12.71 14 8.42 14 4 14 C4 16.64 4 19.28 4 22 C8.62 22 13.24 22 18 22 C18 22.99 18 23.98 18 25 C12.06 25 6.12 25 0 25 C0 16.75 0 8.5 0 0 Z " fill="#75ABC6" transform="translate(165,83)"/>
<path d="M0 0 C1.65 0 3.3 0 5 0 C5 9.57 5 19.14 5 29 C9.62 29 14.24 29 19 29 C19 30.65 19 32.3 19 34 C12.73 34 6.46 34 0 34 C0 22.78 0 11.56 0 0 Z " fill="#6DA6C3" transform="translate(188,43)"/>
<path d="M0 0 C2.38671875 0.37109375 2.38671875 0.37109375 5.01171875 2.37109375 C5.69234375 3.36109375 5.69234375 3.36109375 6.38671875 4.37109375 C6.05671875 5.03109375 5.72671875 5.69109375 5.38671875 6.37109375 C4.87109375 6.20609375 4.35546875 6.04109375 3.82421875 5.87109375 C0.65307999 5.22060375 -2.38546459 5.30902035 -5.61328125 5.37109375 C-5.61328125 6.69109375 -5.61328125 8.01109375 -5.61328125 9.37109375 C-5.01 9.55285156 -4.40671875 9.73460938 -3.78515625 9.921875 C5.13457677 12.7272749 5.13457677 12.7272749 7.38671875 15.37109375 C7.97824304 18.84629896 7.78109618 20.6574584 6.07421875 23.74609375 C1.8276895 26.3137626 -2.77770908 26.16042979 -7.61328125 25.37109375 C-9.95703125 23.84375 -9.95703125 23.84375 -11.61328125 22.37109375 C-11.11828125 20.88609375 -11.11828125 20.88609375 -10.61328125 19.37109375 C-9.83984375 19.58765625 -9.83984375 19.58765625 -9.05078125 19.80859375 C-3.23198143 21.42267482 -3.23198143 21.42267482 2.38671875 20.37109375 C2.38671875 19.38109375 2.38671875 18.39109375 2.38671875 17.37109375 C1.23042969 16.99017578 1.23042969 16.99017578 0.05078125 16.6015625 C-0.95210938 16.25738281 -1.955 15.91320312 -2.98828125 15.55859375 C-3.98601562 15.22214844 -4.98375 14.88570312 -6.01171875 14.5390625 C-8.61328125 13.37109375 -8.61328125 13.37109375 -10.61328125 10.37109375 C-11.16897907 4.14727813 -11.16897907 4.14727813 -9.40234375 1.6796875 C-6.42804814 -0.49583439 -3.5676439 -0.08854007 0 0 Z " fill="#6DA6C3" transform="translate(275.61328125,82.62890625)"/>
<path d="M0 0 C3 1 3 1 4.07495117 2.53466797 C4.55411987 3.50364014 4.55411987 3.50364014 5.04296875 4.4921875 C5.39423828 5.19730469 5.74550781 5.90242188 6.10742188 6.62890625 C6.64206055 7.74072266 6.64206055 7.74072266 7.1875 8.875 C7.55552734 9.60847656 7.92355469 10.34195313 8.30273438 11.09765625 C11 16.59227157 11 16.59227157 11 20 C9.35 20 7.7 20 6 20 C4.515 16.535 4.515 16.535 3 13 C-2.61 13 -8.22 13 -14 13 C-14.99 15.31 -15.98 17.62 -17 20 C-18.65 20 -20.3 20 -22 20 C-20.87255121 14.96984386 -19.7947004 10.40702755 -17 6 C-14.8125 5.125 -14.8125 5.125 -13 5 C-13 5.99 -13 6.98 -13 8 C-8.38 8 -3.76 8 1 8 C0.34 6.68 -0.32 5.36 -1 4 C-0.625 1.75 -0.625 1.75 0 0 Z " fill="#63A1C0" transform="translate(114,56)"/>
<path d="M0 0 C1.8975 -0.061875 3.795 -0.12375 5.75 -0.1875 C7.35101563 -0.23970703 7.35101563 -0.23970703 8.984375 -0.29296875 C12.30027855 0.02917214 13.59016673 0.77148914 16 3 C15.64 9.36 15.64 9.36 13.0625 11.9375 C8.60129114 13.48526634 4.71144874 13.18845795 0 13 C0 8.71 0 4.42 0 0 Z " fill="#EDF5F7" transform="translate(163,48)"/>
<path d="M0 0 C10.3364088 -0.36915746 10.3364088 -0.36915746 13.32421875 1.29296875 C15 3 15 3 15.5625 6.5 C15 10 15 10 13.125 11.9375 C8.62918895 13.46607576 4.73947548 13.18957902 0 13 C0 8.71 0 4.42 0 0 Z " fill="#F0F6F8" transform="translate(134,48)"/>
<path d="M0 0 C1.65 0 3.3 0 5 0 C5.01981934 0.74161377 5.03963867 1.48322754 5.06005859 2.24731445 C5.15522928 5.60273834 5.26494094 8.95753286 5.375 12.3125 C5.4059375 13.47974609 5.436875 14.64699219 5.46875 15.84960938 C5.50742187 16.96787109 5.54609375 18.08613281 5.5859375 19.23828125 C5.6173584 20.26993408 5.6487793 21.30158691 5.68115234 22.36450195 C5.82674629 25.22843236 5.82674629 25.22843236 8 28 C7.67 29.32 7.34 30.64 7 32 C12.28 32 17.56 32 23 32 C22.67 32.99 22.34 33.98 22 35 C22 34.34 22 33.68 22 33 C20.35451172 33.10441406 20.35451172 33.10441406 18.67578125 33.2109375 C17.22141562 33.26723552 15.76698348 33.3218335 14.3125 33.375 C13.59126953 33.42527344 12.87003906 33.47554687 12.12695312 33.52734375 C6.83273789 33.67239074 6.83273789 33.67239074 4.39990234 31.70800781 C0.78611865 27.42972485 -0.12522065 24.79368869 -0.09765625 19.3359375 C-0.09443359 18.21445313 -0.09121094 17.09296875 -0.08789062 15.9375 C-0.07951172 14.761875 -0.07113281 13.58625 -0.0625 12.375 C-0.05798828 11.19164063 -0.05347656 10.00828125 -0.04882812 8.7890625 C-0.03701467 5.85932493 -0.02054258 2.92968728 0 0 Z " fill="#EDF5F7" transform="translate(16,59)"/>
<path d="M0 0 C1.65 0 3.3 0 5 0 C5 11.22 5 22.44 5 34 C3.35 34 1.7 34 0 34 C0 22.78 0 11.56 0 0 Z " fill="#68A4C1" transform="translate(212,43)"/>
<path d="M0 0 C6.6 0 13.2 0 20 0 C20 1.32 20 2.64 20 4 C17.36 4 14.72 4 12 4 C12 10.93 12 17.86 12 25 C10.68 25 9.36 25 8 25 C8 18.07 8 11.14 8 4 C5.36 4 2.72 4 0 4 C0 2.68 0 1.36 0 0 Z " fill="#6CA6C2" transform="translate(142,83)"/>
<path d="M0 0 C5.61 0 11.22 0 17 0 C17 0.33 17 0.66 17 1 C11.72 1 6.44 1 1 1 C1.33 10.57 1.66 20.14 2 30 C3.71443219 28.28556781 3.23052967 25.99554759 3.31640625 23.65234375 C3.35830078 22.57275391 3.40019531 21.49316406 3.44335938 20.38085938 C3.48267578 19.24455078 3.52199219 18.10824219 3.5625 16.9375 C3.60568359 15.79732422 3.64886719 14.65714844 3.69335938 13.48242188 C3.79982839 10.65507805 3.90184207 7.82764262 4 5 C4.33 5 4.66 5 5 5 C5 12.92 5 20.84 5 29 C9.62 28.67 14.24 28.34 19 28 C19.33 28.99 19.66 29.98 20 31 C16.95318939 33.03120707 16.39881676 33.24659875 12.98828125 33.1953125 C12.30548096 33.19031738 11.62268066 33.18532227 10.91918945 33.18017578 C10.05898193 33.16196777 9.19877441 33.14375977 8.3125 33.125 C4.1978125 33.063125 4.1978125 33.063125 0 33 C0 22.11 0 11.22 0 0 Z " fill="#75ABC6" transform="translate(253,43)"/>
<path d="M0 0 C4.94314563 -0.35168625 8.91504085 -0.43779053 13.5625 1.4375 C16.52785754 4.55492716 17.03320068 6.52065374 17.2421875 10.7421875 C16.85958337 14.3090454 15.35824005 16.37973328 13 19 C12.01 19.33 11.02 19.66 10 20 C9.67 19.34 9.34 18.68 9 18 C8.01 17.34 7.02 16.68 6 16 C6.639375 15.814375 7.27875 15.62875 7.9375 15.4375 C10.42126213 14.05753944 10.42126213 14.05753944 10.75 10.375 C10.8325 9.26125 10.915 8.1475 11 7 C7.59568053 4.73045369 5.83475798 4.63450051 1.8125 4.375 C0.72582031 4.30023438 -0.36085937 4.22546875 -1.48046875 4.1484375 C-2.31191406 4.09945312 -3.14335937 4.05046875 -4 4 C-4 3.67 -4 3.34 -4 3 C-2.35 3 -0.7 3 1 3 C0.67 2.01 0.34 1.02 0 0 Z " fill="#63A1BF" transform="translate(167,44)"/>
<path d="M0 0 C2.743125 -0.04125 5.48625 -0.0825 8.3125 -0.125 C9.60281128 -0.15231201 9.60281128 -0.15231201 10.91918945 -0.18017578 C11.60198975 -0.1851709 12.28479004 -0.19016602 12.98828125 -0.1953125 C13.68477783 -0.20578613 14.38127441 -0.21625977 15.09887695 -0.22705078 C17 0 17 0 20 2 C16.68455701 3.10514766 13.79589889 3.32107631 10.3125 3.5625 C9.13300781 3.64628906 7.95351563 3.73007812 6.73828125 3.81640625 C5.83464844 3.87699219 4.93101562 3.93757813 4 4 C3.98541748 4.7113208 3.97083496 5.4226416 3.95581055 6.15551758 C3.88138994 9.37506332 3.78471 12.59356518 3.6875 15.8125 C3.66494141 16.93205078 3.64238281 18.05160156 3.61914062 19.20507812 C3.58369141 20.27822266 3.54824219 21.35136719 3.51171875 22.45703125 C3.48553467 23.44678955 3.45935059 24.43654785 3.43237305 25.45629883 C3 28 3 28 0 31 C0 20.77 0 10.54 0 0 Z " fill="#599CBD" transform="translate(254,44)"/>
<path d="M0 0 C1.32 0 2.64 0 4 0 C4 7.26 4 14.52 4 22 C6.97 22 9.94 22 13 22 C13 22.99 13 23.98 13 25 C8.71 25 4.42 25 0 25 C0 16.75 0 8.5 0 0 Z " fill="#5E9EBD" transform="translate(248,83)"/>
<path d="M0 0 C2.875 0.875 2.875 0.875 4.875 2.875 C5.418379 8.85216895 5.418379 8.85216895 3.8125 11.875 C0.64703476 13.50878851 -1.77520286 12.72767564 -5.125 11.875 C-7.29051116 8.62673326 -7.67656953 7.64405843 -7.125 3.875 C-4.88889892 0.60685227 -4.01504863 -0.16060195 0 0 Z " fill="#C9DCE6" transform="translate(295.125,96.125)"/>
<path d="M0 0 C1.65 0 3.3 0 5 0 C8 5.75 8 5.75 8 8 C7.34 8 6.68 8 6 8 C6 7.01 6 6.02 6 5 C5.34 5 4.68 5 4 5 C4.33 5.9075 4.66 6.815 5 7.75 C6 11 6 11 6 15 C3.36 15 0.72 15 -2 15 C-2.33 14.34 -2.66 13.68 -3 13 C-3.99 13.66 -4.98 14.32 -6 15 C-4.36041242 9.76727367 -2.61047965 4.84803364 0 0 Z " fill="#72A9C5" transform="translate(230,83)"/>
<path d="M0 0 C5.61 0 11.22 0 17 0 C17 0.66 17 1.32 17 2 C12.38 2 7.76 2 3 2 C3 4.64 3 7.28 3 10 C7.29 10 11.58 10 16 10 C16 10.99 16 11.98 16 13 C11.38 13 6.76 13 2 13 C2 14.98 2 16.96 2 19 C-0.52967768 15.20548348 -0.22360092 12.18802503 -0.125 7.8125 C-0.08375 5.234375 -0.0425 2.65625 0 0 Z " fill="#5D9DBD" transform="translate(166,84)"/>
<path d="M0 0 C3.63 0 7.26 0 11 0 C11 0.66 11 1.32 11 2 C8.36 2 5.72 2 3 2 C3 5.3 3 8.6 3 12 C5.97 12 8.94 12 12 12 C12.33 13.32 12.66 14.64 13 16 C9.21293268 16 5.73486879 15.5745952 2 15 C2 17.64 2 20.28 2 23 C1.34 23 0.68 23 0 23 C0 15.41 0 7.82 0 0 Z " fill="#5D9EBE" transform="translate(189,84)"/>
<path d="M0 0 C5.22183821 3.10823703 10.84184341 7.15302371 12.66796875 13.21875 C12.77753906 13.8065625 12.88710937 14.394375 13 15 C11.35 15 9.7 15 8 15 C7.67 15.99 7.34 16.98 7 18 C6.690625 16.989375 6.38125 15.97875 6.0625 14.9375 C3.40680505 8.65576002 -3.01024802 4.7970368 -9 2 C-5.14354879 1.77963136 -2.50776784 2.39644899 1 4 C0.67 2.68 0.34 1.36 0 0 Z " fill="#6AA5C2" transform="translate(62,36)"/>
<path d="M0 0 C1.65 0.33 3.3 0.66 5 1 C4.67 1.66 4.34 2.32 4 3 C2.68 2.67 1.36 2.34 0 2 C0 2.99 0 3.98 0 5 C0.99 5 1.98 5 3 5 C3.99 8.3 4.98 11.6 6 15 C3.36 15 0.72 15 -2 15 C-2.33 14.01 -2.66 13.02 -3 12 C-3.33 12.66 -3.66 13.32 -4 14 C-4.66 14 -5.32 14 -6 14 C-4.50829734 9.0276578 -2.39542583 4.58154261 0 0 Z " fill="#76ABC4" transform="translate(131,83)"/>
<path d="M0 0 C1.62463842 -0.05395478 3.24978541 -0.09277195 4.875 -0.125 C5.77992188 -0.14820312 6.68484375 -0.17140625 7.6171875 -0.1953125 C10 0 10 0 12 2 C11.75 4.5625 11.75 4.5625 11 7 C8.59454362 8.20272819 7.05003047 8.10071472 4.375 8.0625 C3.14910156 8.04896484 3.14910156 8.04896484 1.8984375 8.03515625 C0.95871094 8.01775391 0.95871094 8.01775391 0 8 C0 5.36 0 2.72 0 0 Z " fill="#F2F8FA" transform="translate(192,87)"/>
<path d="M0 0 C3.16273531 1.58136766 3.89919397 4.80451734 5 8 C5.33 9.65 5.66 11.3 6 13 C2.37 13 -1.26 13 -5 13 C-4.48474397 7.71862571 -2.74522883 4.42778844 0 0 Z " fill="#E7F1F5" transform="translate(108,50)"/>
<path d="M0 0 C0.99 0 1.98 0 3 0 C3 7.92 3 15.84 3 24 C2.01 24 1.02 24 0 24 C0 16.08 0 8.16 0 0 Z " fill="#5F9EBD" transform="translate(213,84)"/>
<path d="M0 0 C1.32 0.33 2.64 0.66 4 1 C3.01 1 2.02 1 1 1 C1 8.59 1 16.18 1 24 C1.99 24 2.98 24 4 24 C4 23.34 4 22.68 4 22 C6.97 22 9.94 22 13 22 C13 22.99 13 23.98 13 25 C8.71 25 4.42 25 0 25 C0 16.75 0 8.5 0 0 Z " fill="#7BAEC7" transform="translate(248,83)"/>
<path d="M0 0 C1.32 0 2.64 0 4 0 C4 8.25 4 16.5 4 25 C2.68 25 1.36 25 0 25 C-0.33 19.39 -0.66 13.78 -1 8 C-0.34 8 0.32 8 1 8 C1 13.28 1 18.56 1 24 C1.66 24 2.32 24 3 24 C2.67 16.74 2.34 9.48 2 2 C1.01 2.99 0.02 3.98 -1 5 C-1.66 4.67 -2.32 4.34 -3 4 C-1.75 2 -1.75 2 0 0 Z " fill="#7FB0C9" transform="translate(113,83)"/>
<path d="M0 0 C0.33 0 0.66 0 1 0 C1.33 1.65 1.66 3.3 2 5 C8.27 5.33 14.54 5.66 21 6 C21 6.66 21 7.32 21 8 C13.74 8 6.48 8 -1 8 C-1 1 -1 1 0 0 Z " fill="#559ABC" transform="translate(226,67)"/>
<path d="M0 0 C4.62 0 9.24 0 14 0 C12 4 12 4 10 6 C6.9609375 6.1953125 6.9609375 6.1953125 3.375 6.125 C2.18648437 6.10695313 0.99796875 6.08890625 -0.2265625 6.0703125 C-1.14179688 6.04710938 -2.05703125 6.02390625 -3 6 C-3.33 5.34 -3.66 4.68 -4 4 C0.62 4 5.24 4 10 4 C9.67 3.34 9.34 2.68 9 2 C6.87423218 1.53348793 6.87423218 1.53348793 4.4375 1.375 C3.61121094 1.30023438 2.78492188 1.22546875 1.93359375 1.1484375 C1.29550781 1.09945312 0.65742188 1.05046875 0 1 C0 0.67 0 0.34 0 0 Z " fill="#85B3CB" transform="translate(24,92)"/>
<path d="M0 0 C0.33 0 0.66 0 1 0 C1.50227431 5.27388024 0.32894202 7.91015695 -3 12 C-3.99 12.33 -4.98 12.66 -6 13 C-6.33 12.34 -6.66 11.68 -7 11 C-7.99 10.34 -8.98 9.68 -10 9 C-9.360625 8.71125 -8.72125 8.4225 -8.0625 8.125 C-5.84793921 7.17176549 -5.84793921 7.17176549 -5 5 C-3.35 5 -1.7 5 0 5 C0 3.35 0 1.7 0 0 Z " fill="#6FA8C3" transform="translate(183,51)"/>
<path d="M0 0 C0.66 0 1.32 0 2 0 C2.99 2.97 3.98 5.94 5 9 C2.36 9 -0.28 9 -3 9 C-2.01 6.03 -1.02 3.06 0 0 Z " fill="#DFEDF3" transform="translate(132,89)"/>
<path d="M0 0 C3.31012244 3.31012244 3.50351065 4.53159589 4 9 C1.36 9 -1.28 9 -4 9 C-2.68 6.03 -1.36 3.06 0 0 Z " fill="#E0EDF2" transform="translate(232,89)"/>
<path d="M0 0 C9.17286652 -0.63019694 9.17286652 -0.63019694 12.625 2 C13.07875 2.66 13.5325 3.32 14 4 C13.67 4.66 13.34 5.32 13 6 C9.7 5.34 6.4 4.68 3 4 C3.33 3.34 3.66 2.68 4 2 C2.35 2 0.7 2 -1 2 C-0.67 1.34 -0.34 0.68 0 0 Z " fill="#79ADC6" transform="translate(268,83)"/>
<path d="M0 0 C1.32 0.66 2.64 1.32 4 2 C3.67 3.65 3.34 5.3 3 7 C8.28 7 13.56 7 19 7 C18.67 7.99 18.34 8.98 18 10 C18 9.34 18 8.68 18 8 C16.33710937 8.08701172 16.33710937 8.08701172 14.640625 8.17578125 C13.17712548 8.22268829 11.71358037 8.26818745 10.25 8.3125 C9.52039062 8.35439453 8.79078125 8.39628906 8.0390625 8.43945312 C5.890625 8.48828125 5.890625 8.48828125 2 8 C-0.515625 5.48046875 -0.515625 5.48046875 -2 3 C-1.34 3 -0.68 3 0 3 C0 2.01 0 1.02 0 0 Z " fill="#DDEBF0" transform="translate(20,84)"/>
<path d="M0 0 C5 6.36363636 5 6.36363636 5 11 C3.35 11 1.7 11 0 11 C-2.21538462 5.70769231 -2.21538462 5.70769231 -1.125 2.125 C-0.75375 1.42375 -0.3825 0.7225 0 0 Z " fill="#6DA6C2" transform="translate(120,65)"/>
<path d="M0 0 C0.66022156 0.00565979 1.32044312 0.01131958 2.00067139 0.01715088 C4.10015763 0.0394627 6.1979087 0.08964186 8.296875 0.140625 C9.7239336 0.16069706 11.15101908 0.17894661 12.578125 0.1953125 C16.06826793 0.23930807 19.55740199 0.30829624 23.046875 0.390625 C23.046875 0.720625 23.046875 1.050625 23.046875 1.390625 C22.21961914 1.40520752 21.39236328 1.41979004 20.54003906 1.43481445 C16.79184619 1.5092836 13.04454503 1.6059496 9.296875 1.703125 C7.34394531 1.73696289 7.34394531 1.73696289 5.3515625 1.77148438 C3.47597656 1.8246582 3.47597656 1.8246582 1.5625 1.87890625 C0.41040039 1.90509033 -0.74169922 1.93127441 -1.92871094 1.95825195 C-5.17178178 2.42188438 -6.57449335 3.19830249 -8.953125 5.390625 C-9.613125 5.060625 -10.273125 4.730625 -10.953125 4.390625 C-7.59851962 0.15708371 -5.29176064 -0.08969086 0 0 Z " fill="#69A3BF" transform="translate(31.953125,32.609375)"/>
<path d="M0 0 C0.99 0.33 1.98 0.66 3 1 C2.91291331 2.45945288 2.80473093 3.91765868 2.6875 5.375 C2.62949219 6.18710937 2.57148438 6.99921875 2.51171875 7.8359375 C2 10 2 10 -1 12 C-1.02712066 10.56260487 -1.04645067 9.12506137 -1.0625 7.6875 C-1.07410156 6.88699219 -1.08570313 6.08648437 -1.09765625 5.26171875 C-1 3 -1 3 0 0 Z " fill="#609FBE" transform="translate(279,52)"/>
<path d="M0 0 C1.98 1.65 3.96 3.3 6 5 C5.67 5.66 5.34 6.32 5 7 C3 7 1 7 -1 7 C-1.66 6.01 -2.32 5.02 -3 4 C-2.34 3.67 -1.68 3.34 -1 3 C-0.67 2.01 -0.34 1.02 0 0 Z " fill="#6CA5C0" transform="translate(58,46)"/>
<path d="M0 0 C0.7734375 0.2165625 0.7734375 0.2165625 1.5625 0.4375 C7.80714266 1.94537007 7.80714266 1.94537007 14 1 C14 1.66 14 2.32 14 3 C11.63404857 4.18297571 10.19223681 4.10136311 7.5625 4.0625 C6.38880859 4.04896484 6.38880859 4.04896484 5.19140625 4.03515625 C4.46824219 4.02355469 3.74507813 4.01195313 3 4 C2.01 4 1.02 4 0 4 C0 2.68 0 1.36 0 0 Z " fill="#76ABC3" transform="translate(265,102)"/>
<path d="M0 0 C2.475 0.495 2.475 0.495 5 1 C5 2.65 5 4.3 5 6 C3.35 6 1.7 6 0 6 C0 4.02 0 2.04 0 0 Z " fill="#9CC1D4" transform="translate(292,99)"/>
<path d="M0 0 C1.5 1.1875 1.5 1.1875 3 3 C3.1875 5.6875 3.1875 5.6875 3 8 C1.0625 7.6875 1.0625 7.6875 -1 7 C-1.33 6.01 -1.66 5.02 -2 4 C-1.34 4 -0.68 4 0 4 C0 2.68 0 1.36 0 0 Z " fill="#7CAEC8" transform="translate(142,100)"/>
<path d="M0 0 C0.99 0 1.98 0 3 0 C3 0.66 3 1.32 3 2 C3.9590625 2.1546875 3.9590625 2.1546875 4.9375 2.3125 C5.618125 2.539375 6.29875 2.76625 7 3 C7.33 3.99 7.66 4.98 8 6 C5.6875 6.25 5.6875 6.25 3 6 C1.02389614 3.95575462 0 2.8823175 0 0 Z " fill="#6CA5C0" transform="translate(201,102)"/>
<path d="M0 0 C0.33 0 0.66 0 1 0 C1 5.28 1 10.56 1 16 C0.67 16 0.34 16 0 16 C-0.33 12.37 -0.66 8.74 -1 5 C-1.99 5 -2.98 5 -4 5 C-2.69254251 3.31295807 -1.35827971 1.64639965 0 0 Z " fill="#E1EEF4" transform="translate(112,92)"/>
<path d="M0 0 C5.61 0 11.22 0 17 0 C17 0.99 17 1.98 17 3 C16.67 2.67 16.34 2.34 16 2 C13.7101179 1.90043991 11.41704063 1.8703128 9.125 1.875 C7.86945313 1.87242188 6.61390625 1.86984375 5.3203125 1.8671875 C1.99878218 1.84592923 1.99878218 1.84592923 -1 3 C-0.67 2.01 -0.34 1.02 0 0 Z " fill="#DBECF3" transform="translate(100,68)"/>
<path d="M0 0 C0.33 0.99 0.66 1.98 1 3 C1.66 3 2.32 3 3 3 C2.67 4.65 2.34 6.3 2 8 C1.01 8 0.02 8 -1 8 C-1.99 8.495 -1.99 8.495 -3 9 C-2.01 6.03 -1.02 3.06 0 0 Z " fill="#7EAFCA" transform="translate(227,89)"/>
<path d="M0 0 C-0.33 1.32 -0.66 2.64 -1 4 C-5.455 3.01 -5.455 3.01 -10 2 C-10 1.67 -10 1.34 -10 1 C-3.375 -1.125 -3.375 -1.125 0 0 Z " fill="#68A4C2" transform="translate(202,97)"/>
<path d="M0 0 C2.475 0.495 2.475 0.495 5 1 C4.67 2.65 4.34 4.3 4 6 C3.67 5.01 3.34 4.02 3 3 C2.01 3 1.02 3 0 3 C0 2.01 0 1.02 0 0 Z " fill="#5A9DBF" transform="translate(131,85)"/>
<path d="M0 0 C-1.32 0.99 -2.64 1.98 -4 3 C-4.66 2.67 -5.32 2.34 -6 2 C-6.33 3.65 -6.66 5.3 -7 7 C-7.6875 5.1875 -7.6875 5.1875 -8 3 C-5.85915306 -0.33020635 -3.75910189 -0.30479204 0 0 Z " fill="#5A9DBD" transform="translate(274,84)"/>
<path d="M0 0 C0.33 0 0.66 0 1 0 C1.36666667 5.5 1.36666667 5.5 -0.375 7.875 C-2 9 -2 9 -4 9 C-3.71125 8.443125 -3.4225 7.88625 -3.125 7.3125 C-1.9586747 4.91505355 -0.9660119 2.48403061 0 0 Z " fill="#72A9C3" transform="translate(207,88)"/>
</svg>
