<?xml version="1.0" encoding="UTF-8"?>
<svg version="1.1" xmlns="http://www.w3.org/2000/svg" width="300" height="100">
<path d="M0 0 C7.12201714 4.62931114 11.01893298 10.86631173 13.609375 18.88671875 C15.27376266 27.891056 14.75197948 37.07557225 10 45 C5.0894481 51.91689477 -0.89980076 57.34117389 -9.2265625 59.60546875 C-19.54642586 61.07350565 -30.82974147 61.4613228 -40 56 C-40.72574219 55.57589844 -41.45148438 55.15179688 -42.19921875 54.71484375 C-48.69480779 50.40446211 -51.50272157 44.77884556 -54.3125 37.6875 C-55.91141935 29.11147805 -56.00399473 19.93220408 -52 12 C-40.33218366 -4.11602576 -17.91631278 -10.13053256 0 0 Z M-33.375 13.75 C-36.72570043 20.25430084 -36.02991847 29.96293989 -34.26953125 36.86328125 C-32.38219416 41.44681419 -29.86640883 44.82756198 -26 48 C-21.12861268 49.62379577 -17.46902421 49.7201099 -12.8125 47.4375 C-8.28614941 43.51466282 -6.28456409 40.66019461 -5.65234375 34.75 C-5.43081013 25.81160021 -6.42139037 17.2951049 -12 10 C-15.46012999 7.13303515 -18.50830109 6.4527057 -23.01171875 6.65625 C-27.74164802 7.47399809 -30.34795604 10.24500174 -33.375 13.75 Z " fill="#002C5C" transform="translate(227,6)"/>
<path d="M0 0 C1.28197266 -0.01836914 1.28197266 -0.01836914 2.58984375 -0.03710938 C3.82927734 -0.04000977 3.82927734 -0.04000977 5.09375 -0.04296875 C5.84333984 -0.04707764 6.59292969 -0.05118652 7.36523438 -0.05541992 C9.5 0.1875 9.5 0.1875 13.5 2.1875 C13.5 6.8075 13.5 11.4275 13.5 16.1875 C10.59135361 15.4603384 8.42121098 14.74357262 5.75 13.5625 C0.35434974 11.51275577 -3.88098174 12.11608344 -9.25 14.3125 C-13.6878998 18.01074984 -15.25703134 21.00323628 -15.88671875 26.6640625 C-16.09025105 33.66838102 -15.77772393 39.34789909 -12.375 45.55078125 C-11.5 47.1875 -11.5 47.1875 -11.5 49.1875 C-6.97618873 51.23051154 -2.33628305 52.19706295 2.5 53.1875 C2.4123127 50.81087178 2.30536886 48.43766873 2.1875 46.0625 C2.15366211 45.06476562 2.15366211 45.06476562 2.11914062 44.046875 C1.86871415 39.40260213 0.73583268 36.22758372 -1.5 32.1875 C-1.5 31.5275 -1.5 30.8675 -1.5 30.1875 C5.43 30.1875 12.36 30.1875 19.5 30.1875 C19.5 40.7475 19.5 51.3075 19.5 62.1875 C5.26185534 65.35153215 -10.42648257 66.94928846 -23.5 59.1875 C-29.80033838 54.57695042 -33.07099745 48.47450764 -35.5 41.1875 C-36.19057739 30.57977851 -36.57407386 20.78145774 -29.8046875 11.984375 C-21.44515124 2.84642038 -11.94256728 0.00900646 0 0 Z " fill="#002C5C" transform="translate(146.5,1.8125)"/>
<path d="M0 0 C7.92 0 15.84 0 24 0 C28.93336031 13.02715456 33.80810289 26.04624001 38.25976562 39.24633789 C41.14182761 49.14958157 41.14182761 49.14958157 46.62231445 57.56420898 C48 59 48 59 48 62 C38.43 62 28.86 62 19 62 C19 61.34 19 60.68 19 60 C19.66 60 20.32 60 21 60 C22.64495879 54.16787338 21.07716015 50.48370281 19 45 C13.72 44.67 8.44 44.34 3 44 C0.28687236 53.24870155 0.28687236 53.24870155 3 62 C-3.6 62 -10.2 62 -17 62 C-16.17192688 58.68770752 -15.42383979 56.77789686 -13.828125 53.88671875 C-10.29366981 46.95384675 -7.97102006 39.62548187 -5.55078125 32.24926758 C-4.74718576 29.80393632 -3.92913315 27.3637825 -3.109375 24.92382812 C-2.58767969 23.3518483 -2.06681696 21.77959187 -1.546875 20.20703125 C-1.18441681 19.12709648 -1.18441681 19.12709648 -0.81463623 18.02534485 C0.58985647 13.71258756 1.68417087 9.55415605 2 5 C1.34 4.34 0.68 3.68 0 3 C0 2.01 0 1.02 0 0 Z M11 21 C10.32404685 22.41225926 9.65959941 23.83002905 9 25.25 C8.62875 26.03890625 8.2575 26.8278125 7.875 27.640625 C6.76818748 30.2056657 6.76818748 30.2056657 7 34 C9.97 34 12.94 34 16 34 C14.68 29.71 13.36 25.42 12 21 C11.67 21 11.34 21 11 21 Z " fill="#002C5C" transform="translate(18,3)"/>
<path d="M0 0 C7.26 0 14.52 0 22 0 C22.66 2.165625 23.32 4.33125 24 6.5625 C27.37078087 17.47433023 31.20230775 28.23114325 35 39 C37.8241511 34.76377335 39.02775576 30.20390663 40.5625 25.375 C40.87896484 24.41464844 41.19542969 23.45429688 41.52148438 22.46484375 C43.38917723 16.61987717 44.84880346 11.15672304 45 5 C43.54727479 3.37429109 43.54727479 3.37429109 42 2 C42 1.34 42 0.68 42 0 C48.27 0 54.54 0 61 0 C60.10346751 4.48266243 58.86435329 8.65058731 57.3984375 12.9609375 C57.13533783 13.74213959 56.87223816 14.52334167 56.60116577 15.32821655 C55.73793633 17.88679069 54.86957631 20.44357642 54 23 C53.55605896 24.3071698 53.55605896 24.3071698 53.10314941 25.64074707 C50.95192967 31.97162838 48.78956576 38.29867184 46.625 44.625 C45.97780219 46.51820784 45.33066647 48.4114369 44.68359375 50.3046875 C43.12310801 54.87003549 41.56179451 59.43509958 40 64 C38.4178234 63.71896791 36.83742136 63.42793566 35.2578125 63.1328125 C33.93740967 62.89135498 33.93740967 62.89135498 32.59033203 62.64501953 C28.88454805 61.7222409 26.18586661 60.0777391 23 58 C23 57.34 23 56.68 23 56 C22.34 56 21.68 56 21 56 C17.71782634 48.52043118 14.83649927 40.9295633 12.0625 33.25 C11.7207373 32.30390869 11.37897461 31.35781738 11.02685547 30.38305664 C10.34437592 28.4922553 9.66208165 26.60138708 8.97998047 24.71044922 C7.54393556 20.73860802 6.09315187 16.77257956 4.625 12.8125 C4.386604 12.15991211 4.14820801 11.50732422 3.90258789 10.83496094 C2.82193127 7.93291592 1.73075293 5.5961294 0 3 C0 2.01 0 1.02 0 0 Z " fill="#002C5C" transform="translate(52,3)"/>
<path d="M0 0 C8.58 0 17.16 0 26 0 C26 0.99 26 1.98 26 3 C25.34 3 24.68 3 24 3 C23.06487566 5.80537303 22.87817093 7.48165364 22.88647461 10.37963867 C22.88658791 11.70066841 22.88658791 11.70066841 22.88670349 13.04838562 C22.89186478 13.99534805 22.89702606 14.94231049 22.90234375 15.91796875 C22.90446617 17.37654045 22.90446617 17.37654045 22.90663147 18.86457825 C22.91223183 21.97225004 22.92478438 25.07984996 22.9375 28.1875 C22.94251495 30.29361875 22.94707787 32.39973863 22.95117188 34.50585938 C22.96220138 39.67060064 22.97946625 44.83528813 23 50 C25.24973447 50.054138 27.49984383 50.09285491 29.75 50.125 C31.00296875 50.14820313 32.2559375 50.17140625 33.546875 50.1953125 C36.81164758 50.01065342 38.24940619 49.5735379 41 48 C41.99 48 42.98 48 44 48 C43.69024532 49.77131561 43.37709575 51.54203778 43.0625 53.3125 C42.88847656 54.29863281 42.71445312 55.28476562 42.53515625 56.30078125 C42 59 42 59 41 62 C27.47 62 13.94 62 0 62 C1 58 1 58 2 57 C2.10374452 55.42014249 2.13851868 53.83568718 2.14526367 52.25244141 C2.15164352 51.24114166 2.15802338 50.22984192 2.16459656 49.18789673 C2.16570938 48.08690643 2.1668222 46.98591614 2.16796875 45.8515625 C2.17129715 44.72809418 2.17462555 43.60462585 2.17805481 42.44711304 C2.18312936 40.0646811 2.18546297 37.68224202 2.18530273 35.29980469 C2.18748645 31.6476675 2.20562919 27.99583355 2.22460938 24.34375 C2.22754369 22.0338552 2.22952823 19.72395897 2.23046875 17.4140625 C2.23765427 16.31712067 2.24483978 15.22017883 2.25224304 14.08999634 C2.24916641 13.07239227 2.24608978 12.05478821 2.24291992 11.00634766 C2.24505745 9.66185043 2.24505745 9.66185043 2.24723816 8.29019165 C2.14846023 5.72198391 2.14846023 5.72198391 0 3 C0 2.01 0 1.02 0 0 Z " fill="#002C5C" transform="translate(244,3)"/>
<path d="M0 0 C1.98 0 3.96 0 6 0 C8.70739406 4.57456238 10.9914235 9.07898758 13 14 C13.20496094 13.15695313 13.40992187 12.31390625 13.62109375 11.4453125 C13.89050781 10.34960938 14.15992187 9.25390625 14.4375 8.125 C14.70433594 7.03445312 14.97117187 5.94390625 15.24609375 4.8203125 C16 2 16 2 17 0 C18.65 0 20.3 0 22 0 C21.38580826 8.59868438 19.19092979 16.69484752 17 25 C15.02 25 13.04 25 11 25 C8.69 20.05 6.38 15.1 4 10 C2.68 14.95 1.36 19.9 0 25 C-1.65 25 -3.3 25 -5 25 C-4.64234286 16.23739998 -2.61954449 8.34599058 0 0 Z " fill="#002C5C" transform="translate(101,73)"/>
<path d="M0 0 C1.65 0 3.3 0 5 0 C5.33 2.64 5.66 5.28 6 8 C7.32 5.36 8.64 2.72 10 0 C11.98 0 13.96 0 16 0 C16.33 2.64 16.66 5.28 17 8 C18.32 5.36 19.64 2.72 21 0 C22.98 0 24.96 0 27 0 C25.67092322 4.65176873 23.74842975 8.03902772 21 12 C19.62649102 14.31254063 18.31435979 16.65292895 17 19 C15.35 19 13.7 19 12 19 C11.34 16.69 10.68 14.38 10 12 C9.2884375 13.4540625 9.2884375 13.4540625 8.5625 14.9375 C7 18 7 18 6 19 C4.33382885 19.04063832 2.66611905 19.042721 1 19 C0.25492456 12.62694402 -0.10349817 6.41688675 0 0 Z " fill="#002C5C" transform="translate(164,79)"/>
<path d="M0 0 C1.38134579 6.16292738 1.03390945 9.47395064 -2 15 C-4.22675919 17.72810556 -5.89753128 18.52526024 -9.375 19 C-13.1006191 19.29780642 -13.79994365 19.13473183 -17.0625 16.9375 C-19.39419001 13.40235707 -19.8136932 12.14983531 -19 8 C-17.19087607 4.04946406 -15.28991444 0.84862792 -11.625 -1.5625 C-7.55639163 -2.24060139 -3.70990688 -1.85495344 0 0 Z M-10.75 4.5 C-11.1625 4.995 -11.575 5.49 -12 6 C-9.36 6 -6.72 6 -4 6 C-4.33 5.01 -4.66 4.02 -5 3 C-8.87797662 2.56613908 -8.87797662 2.56613908 -10.75 4.5 Z M-14 11 C-13.01 12.485 -13.01 12.485 -12 14 C-9.52733235 13.65555119 -9.52733235 13.65555119 -7 13 C-6.67 12.34 -6.34 11.68 -6 11 C-8.64 11 -11.28 11 -14 11 Z " fill="#002C5C" transform="translate(244,80)"/>
<path d="M0 0 C2.375 1.6875 2.375 1.6875 4 4 C4.73041396 8.79986315 3.53454899 11.9266177 1 16 C-1.90918045 19.1246753 -4.98350686 19.64727524 -9.09765625 19.984375 C-11 20 -11 20 -13.4375 19.5625 C-15.61273698 17.38726302 -15.87266599 15.16151674 -16.1015625 12.1640625 C-15.89049494 7.66669987 -14.2576474 4.17904444 -11 1.125 C-6.97164789 -1.14094806 -4.41374848 -1.1709945 0 0 Z M-7.0625 4.5625 C-9.86234765 6.63980632 -10.31528668 8.64490471 -11 12 C-10.01 13.485 -10.01 13.485 -9 15 C-6.72970466 14.60856977 -5.16591802 14.11258722 -3.25 12.8125 C-1.45732954 10.21312784 -1.79489281 8.07660784 -2 5 C-4.82954525 3.74865147 -4.82954525 3.74865147 -7.0625 4.5625 Z " fill="#002C5C" transform="translate(204,79)"/>
<path d="M0 0 C2.46996424 2.46996424 2.32331778 3.33897333 2.375 6.75 C2.27033321 11.57862774 1.36038612 14.36715014 -2 18 C-5.16999375 19.97053666 -6.86638897 20.00691092 -10.625 19.8125 C-14 19 -14 19 -15.9375 17.9375 C-17.68999086 14.74178137 -17.49488281 11.50541987 -17 8 C-13.70669661 -0.05029717 -7.85486435 -1.83280168 0 0 Z M-6 4 C-8.67994969 4.97357892 -8.67994969 4.97357892 -11 7 C-12.06948565 9.99706929 -12.06948565 9.99706929 -12 13 C-11.34 13.66 -10.68 14.32 -10 15 C-7.24554484 14.82229322 -6.17929341 14.17311088 -4.1875 12.25 C-2.76091153 10.0259018 -2.76091153 10.0259018 -3.1875 7.3125 C-3.75815152 4.83108618 -3.75815152 4.83108618 -6 4 Z " fill="#002C5C" transform="translate(139,79)"/>
<path d="M0 0 C0.66 0.33 1.32 0.66 2 1 C2 2.65 2 4.3 2 6 C-1.19902639 6.08886184 -3.92677456 5.91058531 -7 5 C-4.53721199 7.46278801 -2.29323018 7.99771255 1 9 C1.48095594 15.37266617 1.48095594 15.37266617 -0.4375 17.875 C-4.22322548 19.53702582 -7.86796943 20.12130732 -12 20 C-14.5625 18.875 -14.5625 18.875 -16 17 C-16.25 14.3125 -16.25 14.3125 -16 12 C-14.35 12 -12.7 12 -11 12 C-11 12.99 -11 13.98 -11 15 C-9.02 14.67 -7.04 14.34 -5 14 C-5 13.67 -5 13.34 -5 13 C-6.11375 12.71125 -7.2275 12.4225 -8.375 12.125 C-12 11 -12 11 -14 9 C-14 6.125 -14 6.125 -13 3 C-8.58486029 -1.09977259 -5.76046035 -1.44011509 0 0 Z " fill="#002C5C" transform="translate(281,79)"/>
<path d="M0 0 C2 2 2 2 2.046875 3.8828125 C1.3633631 9.04512603 0.37066046 13.97424499 -1 19 C-2.65 19 -4.3 19 -6 19 C-5.47462276 13.9697924 -4.89405214 8.98114761 -4 4 C-6.48375162 4.51583552 -6.48375162 4.51583552 -9 6 C-10.47426604 9.06649198 -10.47426604 9.06649198 -11.3125 12.625 C-11.63863281 13.81351563 -11.96476563 15.00203125 -12.30078125 16.2265625 C-12.53152344 17.14179687 -12.76226562 18.05703125 -13 19 C-14.65 19 -16.3 19 -18 19 C-17.71512349 16.95737483 -17.42177949 14.91592973 -17.125 12.875 C-16.96257812 11.73804687 -16.80015625 10.60109375 -16.6328125 9.4296875 C-16.02568583 6.13921085 -15.13654367 3.14220897 -14 0 C-9.04312518 -0.9104464 -4.94315591 -1.06617088 0 0 Z " fill="#002C5C" transform="translate(263,79)"/>
<path d="M0 0 C1.52271991 1.52271991 1.20581982 2.87935159 1.25 5 C1.21745357 10.06910681 -0.14280477 14.32384773 -2 19 C-3.32 19 -4.64 19 -6 19 C-6.09764874 14.21521178 -5.77112541 9.72314313 -5 5 C-7.50062786 5.54838788 -7.50062786 5.54838788 -10 7 C-11.25532803 9.84376315 -11.25532803 9.84376315 -11.8125 13.125 C-12.04582031 14.22070312 -12.27914062 15.31640625 -12.51953125 16.4453125 C-12.67808594 17.28835937 -12.83664063 18.13140625 -13 19 C-14.65 19 -16.3 19 -18 19 C-17.46048934 12.31006781 -16.11293829 6.36539272 -14 0 C-9.03753471 -0.91147322 -4.95654768 -0.99130954 0 0 Z " fill="#002C5C" transform="translate(160,79)"/>
<path d="M0 0 C4.62 0 9.24 0 14 0 C14.66 1.32 15.32 2.64 16 4 C16.433125 3.34 16.86625 2.68 17.3125 2 C17.869375 1.34 18.42625 0.68 19 0 C19.99 0 20.98 0 22 0 C22 4.62 22 9.24 22 14 C21.01 14 20.02 14 19 14 C18.67 13.01 18.34 12.02 18 11 C16.68 11 15.36 11 14 11 C14 11.99 14 12.98 14 14 C12.68 14 11.36 14 10 14 C10 10.7 10 7.4 10 4 C9.01 4 8.02 4 7 4 C7 7.3 7 10.6 7 14 C5.68 14 4.36 14 3 14 C3 10.7 3 7.4 3 4 C2.01 4 1.02 4 0 4 C0 2.68 0 1.36 0 0 Z " fill="#002C5C" transform="translate(276,3)"/>
<path d="M0 0 C1.98 0 3.96 0 6 0 C6.33 2.97 6.66 5.94 7 9 C9.8705657 5.45330157 9.8705657 5.45330157 12.4375 1.6875 C14 0 14 0 16.6875 -0.25 C17.450625 -0.1675 18.21375 -0.085 19 0 C18.04962278 4.57038172 15.77631554 7.88751179 13.25 11.75 C12.81945312 12.44738281 12.38890625 13.14476563 11.9453125 13.86328125 C10.72284562 15.73358238 9.57577293 17.41499853 8 19 C5.171875 19.453125 5.171875 19.453125 3 19 C1.64008262 12.67572401 0.62320121 6.43974581 0 0 Z " fill="#002C5C" transform="translate(209,79)"/>
</svg>
