<?xml version="1.0" encoding="UTF-8"?>
<svg version="1.1" xmlns="http://www.w3.org/2000/svg" width="300" height="110">
<path d="M0 0 C0.63550781 0.46921875 1.27101562 0.9384375 1.92578125 1.421875 C2.7765625 2.040625 3.62734375 2.659375 4.50390625 3.296875 C5.385625 3.998125 6.26734375 4.699375 7.17578125 5.421875 C8.0678125 6.123125 8.95984375 6.824375 9.87890625 7.546875 C10.89210937 8.475 10.89210937 8.475 11.92578125 9.421875 C11.92578125 10.081875 11.92578125 10.741875 11.92578125 11.421875 C12.48007813 11.65777344 13.034375 11.89367188 13.60546875 12.13671875 C16.49025367 13.7345205 18.63750157 15.74038509 21.05078125 17.984375 C24.24085634 21.05906686 24.24085634 21.05906686 27.92578125 23.421875 C27.92578125 24.081875 27.92578125 24.741875 27.92578125 25.421875 C28.73789062 25.75638672 28.73789062 25.75638672 29.56640625 26.09765625 C32.67559703 27.84271531 35.10409726 30.17519022 37.67578125 32.609375 C38.75204174 33.61128159 39.82886458 34.61258444 40.90625 35.61328125 C41.42622559 36.09812988 41.94620117 36.58297852 42.48193359 37.08251953 C48.34863864 42.52464735 54.52147316 47.54700679 60.80078125 52.50390625 C61.50203125 53.13683594 62.20328125 53.76976562 62.92578125 54.421875 C62.92578125 55.081875 62.92578125 55.741875 62.92578125 56.421875 C63.48265625 56.669375 64.03953125 56.916875 64.61328125 57.171875 C67.34989038 58.65112318 69.60228994 60.35654939 71.92578125 62.421875 C71.92578125 63.081875 71.92578125 63.741875 71.92578125 64.421875 C72.48007812 64.65777344 73.034375 64.89367187 73.60546875 65.13671875 C76.49025367 66.7345205 78.63750157 68.74038509 81.05078125 70.984375 C84.24085634 74.05906686 84.24085634 74.05906686 87.92578125 76.421875 C87.92578125 77.081875 87.92578125 77.741875 87.92578125 78.421875 C88.58578125 78.421875 89.24578125 78.421875 89.92578125 78.421875 C89.92578125 79.081875 89.92578125 79.741875 89.92578125 80.421875 C86.62578125 80.421875 83.32578125 80.421875 79.92578125 80.421875 C81.16328125 81.5665625 81.16328125 81.5665625 82.42578125 82.734375 C84.92578125 85.421875 84.92578125 85.421875 84.92578125 88.421875 C84.28378532 88.42426335 83.6417894 88.42665171 82.98033905 88.42911243 C67.3385092 88.48832217 51.69685641 88.56391027 36.05519867 88.65758991 C28.49091487 88.70250083 20.92667766 88.74192624 13.36230469 88.76831055 C6.76699515 88.79132885 0.17183362 88.82476942 -6.42335844 88.87057656 C-9.91349175 88.89445739 -13.40347895 88.9132197 -16.89369202 88.91948891 C-20.79582735 88.92669372 -24.69759747 88.9571734 -28.59960938 88.98950195 C-29.74904022 88.98806686 -30.89847107 88.98663177 -32.08273315 88.9851532 C-39.88881515 89.07652322 -46.16053943 90.19652979 -52.78515625 94.61328125 C-53.39101562 95.00064453 -53.996875 95.38800781 -54.62109375 95.78710938 C-55.83618307 96.58288902 -57.04717854 97.38495629 -58.25390625 98.19335938 C-66.96889023 103.72331213 -76.53884779 103.71326692 -86.59228516 103.64892578 C-88.40863968 103.64936386 -88.40863968 103.64936386 -90.26168823 103.64981079 C-93.55031714 103.64866418 -96.83877117 103.63870115 -100.12736559 103.62466288 C-103.57598121 103.61207769 -107.02460104 103.61097892 -110.47323608 103.60861206 C-116.98947359 103.60242001 -123.5056432 103.58604032 -130.02185094 103.56591308 C-137.44635763 103.54348286 -144.87086772 103.53254282 -152.2953999 103.52252221 C-167.55504537 103.50167181 -182.81462327 103.46654056 -198.07421875 103.421875 C-198.40421875 102.431875 -198.73421875 101.441875 -199.07421875 100.421875 C-196.10421875 99.101875 -193.13421875 97.781875 -190.07421875 96.421875 C-192.38421875 96.091875 -194.69421875 95.761875 -197.07421875 95.421875 C-196.07421875 92.421875 -196.07421875 92.421875 -193.0390625 90.87890625 C-191.70036809 90.32162553 -190.3575764 89.77412652 -189.01171875 89.234375 C-183.26593615 86.82803815 -177.631408 84.30027547 -172.07421875 81.484375 C-171.42485352 81.15598633 -170.77548828 80.82759766 -170.10644531 80.48925781 C-168.7808002 79.8169617 -167.45577088 79.14345005 -166.13134766 78.46875 C-162.51442774 76.62809576 -158.88845827 74.80558235 -155.26171875 72.984375 C-154.58560547 72.64220947 -153.90949219 72.30004395 -153.21289062 71.94750977 C-150.52231636 70.59499361 -147.93587031 69.37575885 -145.07421875 68.421875 C-145.07421875 67.761875 -145.07421875 67.101875 -145.07421875 66.421875 C-145.73400223 66.70609314 -146.39378571 66.99031128 -147.07356262 67.28314209 C-154.1472206 70.12129525 -160.07067369 70.9700203 -167.6484375 70.8125 C-168.69828323 70.80684021 -169.74812897 70.80118042 -170.82978821 70.79534912 C-174.14092106 70.77318714 -177.45092009 70.72302938 -180.76171875 70.671875 C-183.02407277 70.65178391 -185.28644397 70.63353775 -187.54882812 70.6171875 C-193.05767016 70.57338904 -198.56586342 70.50668328 -204.07421875 70.421875 C-203.76335596 68.67223436 -203.45046087 66.92295474 -203.13671875 65.17382812 C-202.96269531 64.19965942 -202.78867188 63.22549072 -202.609375 62.22180176 C-201.93927037 58.71582779 -201.06309933 55.35205451 -200.07421875 51.921875 C-199.74421875 50.7565625 -199.41421875 49.59125 -199.07421875 48.390625 C-198.07421875 45.421875 -198.07421875 45.421875 -196.07421875 42.421875 C-194.20126343 42.06111145 -194.20126343 42.06111145 -191.89990234 42.08129883 C-191.03916107 42.08152542 -190.1784198 42.08175201 -189.29159546 42.08198547 C-188.36134552 42.09746933 -187.43109558 42.11295319 -186.47265625 42.12890625 C-185.52105621 42.13315109 -184.56945618 42.13739594 -183.58901978 42.14176941 C-180.54213461 42.15859604 -177.49590484 42.19625546 -174.44921875 42.234375 C-172.38672829 42.24941669 -170.32422748 42.26310599 -168.26171875 42.27539062 C-163.19896525 42.30851261 -158.13670321 42.36032216 -153.07421875 42.421875 C-153.40421875 44.731875 -153.73421875 47.041875 -154.07421875 49.421875 C-153.38714844 49.45925781 -152.70007813 49.49664062 -151.9921875 49.53515625 C-151.09113281 49.60089844 -150.19007813 49.66664062 -149.26171875 49.734375 C-147.92173828 49.82138672 -147.92173828 49.82138672 -146.5546875 49.91015625 C-144.07421875 50.421875 -144.07421875 50.421875 -141.07421875 53.421875 C-140.08421875 49.791875 -139.09421875 46.161875 -138.07421875 42.421875 C-135.10421875 42.421875 -132.13421875 42.421875 -129.07421875 42.421875 C-128.07421875 45.421875 -128.07421875 45.421875 -128.07421875 46.421875 C-127.37296875 45.9475 -126.67171875 45.473125 -125.94921875 44.984375 C-122.91340538 43.33447643 -120.48253089 42.81819036 -117.07421875 42.421875 C-117.40421875 44.731875 -117.73421875 47.041875 -118.07421875 49.421875 C-116.09421875 49.916875 -116.09421875 49.916875 -114.07421875 50.421875 C-114.40421875 51.411875 -114.73421875 52.401875 -115.07421875 53.421875 C-114.44773437 53.133125 -113.82125 52.844375 -113.17578125 52.546875 C-112.35851562 52.175625 -111.54125 51.804375 -110.69921875 51.421875 C-109.88710937 51.050625 -109.075 50.679375 -108.23828125 50.296875 C-106.07421875 49.421875 -106.07421875 49.421875 -104.07421875 49.421875 C-104.03296875 48.82375 -103.99171875 48.225625 -103.94921875 47.609375 C-103.07421875 45.421875 -103.07421875 45.421875 -100.51171875 43.734375 C-97.07421875 42.421875 -97.07421875 42.421875 -93.31640625 42.05859375 C-89.00716109 41.56222798 -85.5434964 39.97718894 -81.76171875 37.921875 C-80.36046643 37.1906131 -78.95807182 36.46153693 -77.5546875 35.734375 C-76.82556152 35.35410156 -76.09643555 34.97382812 -75.34521484 34.58203125 C-71.46647052 32.60054415 -67.51913807 30.76704697 -63.57421875 28.921875 C-57.7443973 26.18142058 -51.94934033 23.38835111 -46.19921875 20.484375 C-38.24972412 16.47381006 -30.22220335 12.63517651 -22.16796875 8.83984375 C-18.93961547 7.31729894 -15.73292433 5.76150828 -12.54296875 4.16015625 C-11.51345093 3.65270874 -11.51345093 3.65270874 -10.46313477 3.13500977 C-8.63987277 2.2351263 -6.82355699 1.32120709 -5.0078125 0.40625 C-2.07421875 -0.578125 -2.07421875 -0.578125 0 0 Z M-165.07421875 49.421875 C-164.07421875 53.421875 -164.07421875 53.421875 -164.07421875 53.421875 Z M-188.07421875 50.421875 C-188.07421875 51.081875 -188.07421875 51.741875 -188.07421875 52.421875 C-184.77421875 52.421875 -181.47421875 52.421875 -178.07421875 52.421875 C-178.40421875 55.061875 -178.73421875 57.701875 -179.07421875 60.421875 C-183.03421875 60.421875 -186.99421875 60.421875 -191.07421875 60.421875 C-191.07421875 61.081875 -191.07421875 61.741875 -191.07421875 62.421875 C-186.78421875 62.751875 -182.49421875 63.081875 -178.07421875 63.421875 C-177.57921875 62.019375 -177.08421875 60.616875 -176.57421875 59.171875 C-176.29578125 58.38296875 -176.01734375 57.5940625 -175.73046875 56.78125 C-174.89557014 54.18774762 -174.89557014 54.18774762 -175.07421875 50.421875 C-179.36421875 50.421875 -183.65421875 50.421875 -188.07421875 50.421875 Z M-166.07421875 54.421875 C-165.07421875 56.421875 -165.07421875 56.421875 -165.07421875 56.421875 Z M-155.07421875 56.421875 C-157.3809379 59.13736654 -157.3809379 59.13736654 -156.69921875 61.609375 C-156.49296875 62.2075 -156.28671875 62.805625 -156.07421875 63.421875 C-154.36671895 62.14125015 -152.70048279 60.80419943 -151.07421875 59.421875 C-151.07421875 58.761875 -151.07421875 58.101875 -151.07421875 57.421875 C-152.39421875 57.091875 -153.71421875 56.761875 -155.07421875 56.421875 Z M-131.07421875 56.421875 C-132.37055496 57.48832615 -132.37055496 57.48832615 -132.13671875 59.984375 C-132.11609375 60.78875 -132.09546875 61.593125 -132.07421875 62.421875 C-130.96585452 60.53871341 -130.96585452 60.53871341 -130.07421875 58.421875 C-130.40421875 57.761875 -130.73421875 57.101875 -131.07421875 56.421875 Z M-167.07421875 57.421875 C-166.07421875 59.421875 -166.07421875 59.421875 -166.07421875 59.421875 Z M-168.07421875 61.421875 C-167.07421875 65.421875 -167.07421875 65.421875 -167.07421875 65.421875 Z " fill="#FADD50" transform="translate(207.07421875,3.578125)"/>
<path d="M0 0 C1.57278969 -0.01713043 1.57278969 -0.01713043 3.17735291 -0.03460693 C4.31722153 -0.03684265 5.45709015 -0.03907837 6.63150024 -0.04138184 C7.84018265 -0.05131165 9.04886505 -0.06124146 10.29417419 -0.07147217 C13.60215848 -0.09563975 16.90989077 -0.11059173 20.21793318 -0.11949348 C22.28693819 -0.12536806 24.35592135 -0.13358 26.42491531 -0.14250183 C32.90529248 -0.16982517 39.38561937 -0.1891727 45.86605012 -0.19690561 C53.33443513 -0.20586789 60.8020882 -0.24097761 68.27025068 -0.2989068 C74.05216914 -0.3421924 79.83388201 -0.36231679 85.61596072 -0.36498785 C89.06545181 -0.36707989 92.51425364 -0.37880514 95.96357346 -0.41462708 C99.81275626 -0.45382746 103.66102913 -0.44499091 107.51040649 -0.43200684 C108.64622665 -0.4504364 109.78204681 -0.46886597 110.95228577 -0.487854 C117.40242019 -0.41970197 121.00594665 0.31028186 125.59765053 4.99344635 C125.96154066 5.4183007 126.32543079 5.84315506 126.7003479 6.28088379 C126.3703479 6.94088379 126.0403479 7.60088379 125.7003479 8.28088379 C125.05835197 8.28327214 124.41635605 8.2856605 123.7549057 8.28812122 C108.11307585 8.34733096 92.47142306 8.42291906 76.82976532 8.5165987 C69.26548152 8.56150962 61.70124432 8.60093503 54.13687134 8.62731934 C47.5415618 8.65033763 40.94640027 8.68377821 34.35120821 8.72958535 C30.8610749 8.75346617 27.3710877 8.77222849 23.88087463 8.7784977 C19.9787393 8.78570251 16.07696918 8.81618219 12.17495728 8.84851074 C11.02552643 8.84707565 9.87609558 8.84564056 8.6918335 8.84416199 C0.8857515 8.93553201 -5.38597278 10.05553858 -12.0105896 14.47229004 C-12.61644897 14.85965332 -13.22230835 15.2470166 -13.8465271 15.64611816 C-15.06161642 16.44189781 -16.27261189 17.24396508 -17.4793396 18.05236816 C-26.19432358 23.58232092 -35.76428114 23.5722757 -45.81771851 23.50793457 C-47.63407303 23.50837265 -47.63407303 23.50837265 -49.48712158 23.50881958 C-52.77575049 23.50767297 -56.06420452 23.49770993 -59.35279894 23.48367167 C-62.80141456 23.47108648 -66.25003439 23.46998771 -69.69866943 23.46762085 C-76.21490694 23.4614288 -82.73107655 23.44504911 -89.24728429 23.42492187 C-96.67179098 23.40249164 -104.09630107 23.39155161 -111.52083325 23.381531 C-126.78047872 23.3606806 -142.04005662 23.32554935 -157.2996521 23.28088379 C-157.6296521 22.29088379 -157.9596521 21.30088379 -158.2996521 20.28088379 C-146.59869426 13.22918947 -135.12934106 13.47672679 -121.79698753 13.61413383 C-118.02499328 13.65266842 -114.25451229 13.65399687 -110.48234558 13.64637756 C-103.16192524 13.63788806 -95.84204351 13.66841486 -88.52177429 13.70767212 C-78.55083766 13.76016608 -68.58044453 13.78907407 -58.60933876 13.77382088 C-54.90372265 13.77692633 -51.19921826 13.81059088 -47.49378967 13.84593201 C-45.2144778 13.84705389 -42.93516475 13.84684489 -40.65585327 13.84509277 C-39.63487045 13.86314468 -38.61388763 13.88119659 -37.56196594 13.89979553 C-30.56449972 13.85155588 -26.08182931 12.16181881 -20.2996521 8.28088379 C-19.34574585 7.7098291 -18.3918396 7.13877441 -17.4090271 6.55041504 C-15.82507665 5.57224696 -14.24175124 4.5930661 -12.6590271 3.61291504 C-8.39500023 1.20557537 -4.91404582 0.03219415 0 0 Z " fill="#034B8D" transform="translate(166.29965209960938,83.7191162109375)"/>
<path d="M0 0 C1.87295532 -0.36076355 1.87295532 -0.36076355 4.17431641 -0.34057617 C5.03505768 -0.34034958 5.89579895 -0.34012299 6.78262329 -0.33988953 C7.71287323 -0.32440567 8.64312317 -0.30892181 9.6015625 -0.29296875 C10.55316254 -0.28872391 11.50476257 -0.28447906 12.48519897 -0.28010559 C15.53208414 -0.26327896 18.57831391 -0.22561954 21.625 -0.1875 C23.68749046 -0.17245831 25.74999127 -0.15876901 27.8125 -0.14648438 C32.8752535 -0.11336239 37.93751554 -0.06155284 43 0 C42.67 2.31 42.34 4.62 42 7 C42.68707031 7.03738281 43.37414063 7.07476562 44.08203125 7.11328125 C44.98308594 7.17902344 45.88414063 7.24476562 46.8125 7.3125 C48.15248047 7.39951172 48.15248047 7.39951172 49.51953125 7.48828125 C52 8 52 8 55 11 C55.99 7.37 56.98 3.74 58 0 C60.97 0 63.94 0 67 0 C68 3 68 3 68 4 C69.051875 3.2884375 69.051875 3.2884375 70.125 2.5625 C73.16081337 0.91260143 75.59168786 0.39631536 79 0 C78.67 2.31 78.34 4.62 78 7 C79.32 7.33 80.64 7.66 82 8 C81.02034418 11.29520594 80.54493889 12.68666014 77.5 14.4375 C74.23409653 16.47868967 73.89250883 18.34882752 73 22 C74.32 22 75.64 22 77 22 C76.125 25.875 76.125 25.875 75 27 C68.53846154 27.35897436 68.53846154 27.35897436 65 25 C64.70703125 22.6171875 64.70703125 22.6171875 64.8125 19.875 C64.85310547 18.50988281 64.85310547 18.50988281 64.89453125 17.1171875 C64.92933594 16.41851562 64.96414062 15.71984375 65 15 C64.71125 15.86625 64.4225 16.7325 64.125 17.625 C63.08333333 20.75 62.04166667 23.875 61 27 C58.36 27 55.72 27 53 27 C52.505 25.02 52.505 25.02 52 23 C51.46890625 23.27714844 50.9378125 23.55429688 50.390625 23.83984375 C49.68421875 24.20207031 48.9778125 24.56429687 48.25 24.9375 C47.55390625 25.29714844 46.8578125 25.65679687 46.140625 26.02734375 C42.44057058 27.70857286 39.18776468 28.12417833 35.13964844 28.11352539 C34.17895447 28.11344986 33.2182605 28.11337433 32.22845459 28.11329651 C31.19915833 28.10813522 30.16986206 28.10297394 29.109375 28.09765625 C28.04962463 28.0962413 26.98987427 28.09482635 25.89801025 28.09336853 C22.51531138 28.08777382 19.13267885 28.07522225 15.75 28.0625 C13.45573012 28.05748432 11.16145921 28.05292153 8.8671875 28.04882812 C3.24476906 28.03780611 -2.37761073 28.02107321 -8 28 C-7.68913721 26.25035936 -7.37624212 24.50107974 -7.0625 22.75195312 C-6.88847656 21.77778442 -6.71445313 20.80361572 -6.53515625 19.79992676 C-5.86505162 16.29395279 -4.98888058 12.93017951 -4 9.5 C-3.67 8.3346875 -3.34 7.169375 -3 5.96875 C-2 3 -2 3 0 0 Z M31 7 C32 11 32 11 32 11 Z M8 8 C8 8.66 8 9.32 8 10 C11.3 10 14.6 10 18 10 C17.67 12.64 17.34 15.28 17 18 C13.04 18 9.08 18 5 18 C5 18.66 5 19.32 5 20 C9.29 20.33 13.58 20.66 18 21 C18.495 19.5975 18.99 18.195 19.5 16.75 C19.7784375 15.96109375 20.056875 15.1721875 20.34375 14.359375 C21.17864861 11.76587262 21.17864861 11.76587262 21 8 C16.71 8 12.42 8 8 8 Z M30 12 C31 14 31 14 31 14 Z M41 14 C38.69328085 16.71549154 38.69328085 16.71549154 39.375 19.1875 C39.58125 19.785625 39.7875 20.38375 40 21 C41.7074998 19.71937515 43.37373596 18.38232443 45 17 C45 16.34 45 15.68 45 15 C43.68 14.67 42.36 14.34 41 14 Z M29 15 C30 17 30 17 30 17 Z M28 19 C29 23 29 23 29 23 Z " fill="#014A8E" transform="translate(11,46)"/>
<path d="M0 0 C0 1.65 0 3.3 0 5 C0.99 5 1.98 5 3 5 C3.33 5.99 3.66 6.98 4 8 C4.52335937 7.51144531 5.04671875 7.02289063 5.5859375 6.51953125 C8.74797821 4.52918524 10.91502864 4.63306475 14.625 4.6875 C16.34589844 4.69330078 16.34589844 4.69330078 18.1015625 4.69921875 C21 5 21 5 23 7 C23.4375 9.875 23.4375 9.875 23 13 C20.77538218 15.16607525 18.76622478 16.61688761 16 18 C17.32 18.33 18.64 18.66 20 19 C19.01 21.475 19.01 21.475 18 24 C10.00348432 24.6271777 10.00348432 24.6271777 6 22.125 C2.28067937 18.17322183 2.91562344 15.2313468 3 10 C1.02 10 -0.96 10 -3 10 C-3.33 12.97 -3.66 15.94 -4 19 C-2.68 19 -1.36 19 0 19 C-0.99 21.475 -0.99 21.475 -2 24 C-8.0546875 24.1953125 -8.0546875 24.1953125 -10 24 C-12 22 -12 22 -12.1875 18.6875 C-12.03227265 15.6346955 -11.62570873 12.97211645 -11 10 C-10.9629721 8.3337447 -10.95240038 6.66598681 -11 5 C-10.34 5 -9.68 5 -9 5 C-8.67 3.68 -8.34 2.36 -8 1 C-5.10765685 0.17361624 -3.11257569 0 0 0 Z " fill="#145689" transform="translate(174,49)"/>
<path d="M0 0 C4.07529423 -0.04593318 8.14992818 -0.08575126 12.2253418 -0.10986328 C13.61144048 -0.1199157 14.99751799 -0.1335597 16.38354492 -0.15087891 C18.3766975 -0.17515952 20.37000533 -0.18542031 22.36328125 -0.1953125 C24.16212769 -0.21102295 24.16212769 -0.21102295 25.99731445 -0.22705078 C29 0 29 0 32 2 C32.75897403 8.07179228 30.933251 13.28079914 29 19 C26.69 19 24.38 19 22 19 C22.96355353 9.58997722 22.96355353 9.58997722 24 5 C22.35 5 20.7 5 19 5 C18.87625 6.010625 18.7525 7.02125 18.625 8.0625 C18.01914665 11.87937612 17.12806088 15.31500112 16 19 C13.69 19 11.38 19 9 19 C9.59619955 14.13103697 10.56976822 9.67209049 12 5 C10.35 5.33 8.7 5.66 7 6 C5.515 12.435 5.515 12.435 4 19 C1.36 19 -1.28 19 -4 19 C-2.02 9.595 -2.02 9.595 0 0 Z " fill="#145689" transform="translate(200,54)"/>
<path d="M0 0 C0 0.66 0 1.32 0 2 C2.31 2 4.62 2 7 2 C6.67 3.65 6.34 5.3 6 7 C3.03 7 0.06 7 -3 7 C-2.51789063 7.54269531 -2.03578125 8.08539063 -1.5390625 8.64453125 C-0.90742187 9.35996094 -0.27578125 10.07539062 0.375 10.8125 C1.00148438 11.52019531 1.62796875 12.22789063 2.2734375 12.95703125 C6 17.36651584 6 17.36651584 6 20.4375 C4.90761022 23.23674881 3.73993337 24.70929735 1.16015625 26.28125 C-3.65411785 27.88310612 -9.00112206 27.43623971 -14 27 C-14.33 26.67 -14.66 26.34 -15 26 C-15 24.35 -15 22.7 -15 21 C-11.37 21 -7.74 21 -4 21 C-4.6496875 20.19175781 -5.299375 19.38351563 -5.96875 18.55078125 C-6.81313211 17.47184856 -7.65684733 16.39239373 -8.5 15.3125 C-8.92925781 14.78205078 -9.35851562 14.25160156 -9.80078125 13.70507812 C-11.80429541 11.11323044 -12.96077195 9.40372201 -13.28125 6.10546875 C-13.1884375 5.41066406 -13.095625 4.71585938 -13 4 C-8.38987758 1.04952165 -5.63470383 -0.5497272 0 0 Z " fill="#0E528B" transform="translate(116,46)"/>
<path d="M0 0 C2.97 0 5.94 0 9 0 C9 2.64 9 5.28 9 8 C9.66 8 10.32 8 11 8 C11.28875 7.236875 11.5775 6.47375 11.875 5.6875 C13 3 13 3 15 0 C16.9453125 -0.29296875 16.9453125 -0.29296875 19.125 -0.1875 C20.40375 -0.125625 21.6825 -0.06375 23 0 C20.32261358 5.72172427 16.56525319 10.80769491 13 16 C12.39414063 16.91910156 11.78828125 17.83820313 11.1640625 18.78515625 C9.55415964 21.08345649 8.07776374 23.11324145 6 25 C2.0625 25.5625 2.0625 25.5625 -1 25 C0.07401108 22.08482708 0.77810176 20.22189824 3 18 C2.56493802 11.90913233 1.25960616 5.96784279 0 0 Z " fill="#0E528B" transform="translate(123,54)"/>
<path d="M0 0 C1.49080078 0.02707031 1.49080078 0.02707031 3.01171875 0.0546875 C3.77097656 0.07789063 4.53023437 0.10109375 5.3125 0.125 C5.3125 1.775 5.3125 3.425 5.3125 5.125 C3.3325 5.125 1.3525 5.125 -0.6875 5.125 C-0.0275 6.011875 0.6325 6.89875 1.3125 7.8125 C4.1085199 12.44340796 4.1085199 12.44340796 3.3125 16.125 C1.02653369 18.35755588 -0.27852402 19.08216034 -3.484375 19.41796875 C-4.45890625 19.38316406 -5.4334375 19.34835938 -6.4375 19.3125 C-7.91476563 19.27189453 -7.91476563 19.27189453 -9.421875 19.23046875 C-10.16953125 19.19566406 -10.9171875 19.16085938 -11.6875 19.125 C-11.6875 17.475 -11.6875 15.825 -11.6875 14.125 C-9.7075 14.125 -7.7275 14.125 -5.6875 14.125 C-6.368125 13.073125 -7.04875 12.02125 -7.75 10.9375 C-9.22508538 8.35348518 -9.69277119 7.36220352 -9.625 4.3125 C-7.66138981 -0.26925711 -4.41957493 -0.10399 0 0 Z " fill="#155689" transform="translate(243.6875,53.875)"/>
<path d="M0 0 C1.09054688 0.02320313 2.18109375 0.04640625 3.3046875 0.0703125 C4.40039062 0.08835938 5.49609375 0.10640625 6.625 0.125 C7.46804687 0.14820313 8.31109375 0.17140625 9.1796875 0.1953125 C8.8496875 1.8453125 8.5196875 3.4953125 8.1796875 5.1953125 C6.5296875 5.1953125 4.8796875 5.1953125 3.1796875 5.1953125 C3.8396875 6.0821875 4.4996875 6.9690625 5.1796875 7.8828125 C7.9757074 12.51372046 7.9757074 12.51372046 7.1796875 16.1953125 C4.89372119 18.42786838 3.58866348 19.15247284 0.3828125 19.48828125 C-0.59171875 19.45347656 -1.56625 19.41867188 -2.5703125 19.3828125 C-4.04757813 19.34220703 -4.04757813 19.34220703 -5.5546875 19.30078125 C-6.30234375 19.26597656 -7.05 19.23117188 -7.8203125 19.1953125 C-7.8203125 17.5453125 -7.8203125 15.8953125 -7.8203125 14.1953125 C-5.8403125 14.1953125 -3.8603125 14.1953125 -1.8203125 14.1953125 C-2.5009375 13.1434375 -3.1815625 12.0915625 -3.8828125 11.0078125 C-5.37742695 8.39883887 -5.83235692 7.46631196 -5.6953125 4.3828125 C-4.38019358 1.09501521 -3.57851814 0.24781982 0 0 Z " fill="#145589" transform="translate(151.8203125,53.8046875)"/>
<path d="M0 0 C2.50329639 2.50329639 2.70034576 3.47906271 3 7 C2.49430721 10.04437273 1.78640106 13.0168753 1 16 C0.01 15.67 -0.98 15.34 -2 15 C-3.58072959 11.71694623 -4.84845643 8.45463072 -6 5 C-4.35 5 -2.7 5 -1 5 C-0.67 3.35 -0.34 1.7 0 0 Z " fill="#E7D254" transform="translate(161,54)"/>
<path d="M0 0 C0.99 0.33 1.98 0.66 3 1 C2.71572583 2.58467728 2.42225182 4.1677057 2.125 5.75 C1.96257812 6.63171875 1.80015625 7.5134375 1.6328125 8.421875 C1.0201397 10.91794938 0.39083029 12.84080892 -1 15 C-1.99 15.33 -2.98 15.66 -4 16 C-3.67 14.68 -3.34 13.36 -3 12 C-4.98 12 -6.96 12 -9 12 C-6.96736433 10.47552325 -4.99356354 8.99613812 -2.8125 7.6875 C-0.31169514 5.35916444 -0.29511403 3.32003279 0 0 Z " fill="#D5C759" transform="translate(197,56)"/>
<path d="M0 0 C0.66 0 1.32 0 2 0 C5.28571429 7.42857143 5.28571429 7.42857143 6 11 C4.02 11 2.04 11 0 11 C-0.33 12.32 -0.66 13.64 -1 15 C-2.4002792 9.53891111 -1.42705634 5.30723432 0 0 Z " fill="#E1CE56" transform="translate(232,57)"/>
<path d="M0 0 C1.32 0 2.64 0 4 0 C3.67 1.32 3.34 2.64 3 4 C1.35 4.33 -0.3 4.66 -2 5 C-1.125 1.125 -1.125 1.125 0 0 Z " fill="#CAC15C" transform="translate(186,58)"/>
<path d="M0 0 C0 2.83967231 -0.40267181 5.23735711 -1 8 C-1.33 7.34 -1.66 6.68 -2 6 C-3.98 6 -5.96 6 -8 6 C-5.33333333 4 -2.66666667 2 0 0 Z " fill="#CBC15B" transform="translate(196,62)"/>
<path d="M0 0 C2.05078125 0.03255208 4.1015625 0.06510417 6.15234375 0.09765625 C5.82234375 0.75765625 5.49234375 1.41765625 5.15234375 2.09765625 C4.43046875 2.01515625 3.70859375 1.93265625 2.96484375 1.84765625 C-0.68314419 2.17192184 -2.19333923 3.67085212 -4.84765625 6.09765625 C-2.55432956 0.13500685 -2.55432956 0.13500685 0 0 Z " fill="#3A6C80" transform="translate(139.84765625,53.90234375)"/>
<path d="M0 0 C0.66 0.66 1.32 1.32 2 2 C1.3125 4.4375 1.3125 4.4375 0 7 C-2.625 7.8125 -2.625 7.8125 -5 8 C-3.35 5.36 -1.7 2.72 0 0 Z " fill="#C1BB5E" transform="translate(146,54)"/>
</svg>
