<?xml version="1.0" encoding="UTF-8"?>
<svg version="1.1" xmlns="http://www.w3.org/2000/svg" width="227" height="150">
<path d="M0 0 C74.91 0 149.82 0 227 0 C227 49.5 227 99 227 150 C152.09 150 77.18 150 0 150 C0 100.5 0 51 0 0 Z " fill="#FAFCFD" transform="translate(0,0)"/>
<path d="M0 0 C0.72990587 5.9608979 0.72990587 5.9608979 -1.125 8.6015625 C-2.17111874 9.70761512 -3.22089023 10.81021941 -4.2734375 11.91015625 C-14.11574461 23.82335604 -16.1475847 38.67757408 -14.76171875 53.55859375 C-12.84975133 64.3930758 -5.73317189 72.7294144 3 79 C38.5000595 98.94972669 86.58898319 92.41966098 124 82 C131.85545255 79.62330615 139.37465876 76.69373506 146.875 73.375 C148.66306312 72.5888688 150.45210095 71.80495021 152.2421875 71.0234375 C153.0141748 70.68231934 153.78616211 70.34120117 154.58154297 69.98974609 C157.33754409 68.86186112 160.17495132 67.94168289 163 67 C163 72.61 163 78.22 163 84 C145.87924911 92.62747805 129.31433486 98.24920136 110.5625 102.25 C109.42119629 102.49645264 108.27989258 102.74290527 107.10400391 102.99682617 C88.81400617 106.71419047 70.56394573 107.28842534 51.953125 107.1953125 C49.71726612 107.19157063 47.48140556 107.18872923 45.24554443 107.18673706 C39.4326301 107.17919285 33.61981976 107.15962643 27.8069458 107.1373291 C21.84657192 107.11666923 15.88618081 107.1076928 9.92578125 107.09765625 C-1.71619089 107.07636947 -13.35808671 107.04234855 -25 107 C-25.02325991 98.81087636 -25.04098426 90.62176674 -25.05181217 82.43261814 C-25.0570113 78.62930184 -25.06405447 74.82600829 -25.07543945 71.02270508 C-25.08637456 67.34631568 -25.09229916 63.66994804 -25.09487724 59.99354362 C-25.09671247 58.59706213 -25.10029586 57.2005817 -25.10573006 55.80410957 C-25.18367582 34.92680868 -20.39253278 19.18822083 -5.5 4.125 C-1.20257235 0 -1.20257235 0 0 0 Z " fill="#0F62A7" transform="translate(25,43)"/>
<path d="M0 0 C1.99781254 0.00186935 3.99562555 0.00329081 5.99343872 0.00428772 C11.20470486 0.00807219 16.41594231 0.01786682 21.62719727 0.0289917 C26.96370048 0.03929422 32.30020842 0.04380412 37.63671875 0.04882812 C48.07292914 0.05949349 58.50911842 0.07651987 68.9453125 0.09765625 C69.01531074 7.45260387 69.06837349 14.80747781 69.10074902 22.16269302 C69.11630008 25.57928618 69.13734063 28.99564883 69.17163086 32.41210938 C69.21094133 36.35413705 69.2251089 40.29607657 69.23828125 44.23828125 C69.25376511 45.44502502 69.26924896 46.6517688 69.28520203 47.89508057 C69.28836823 64.1080031 64.55171988 76.96852668 53.37890625 88.80078125 C47.81624576 94.05093272 42.29348658 97.88576015 34.9453125 100.09765625 C33.72010816 88.62838228 33.72010816 88.62838228 36.48046875 85.1796875 C37.85955183 84.23106966 39.27394139 83.33225882 40.71484375 82.48046875 C48.88511788 77.41518496 53.71440452 68.13472417 55.9453125 59.09765625 C57.02048674 48.83257169 56.25240812 38.66904612 49.53515625 30.3515625 C48.38312629 29.21968467 47.16913151 28.1515004 45.9453125 27.09765625 C45.6153125 26.10765625 45.2853125 25.11765625 44.9453125 24.09765625 C43.23866992 23.05953796 43.23866992 23.05953796 40.9453125 22.09765625 C39.87023437 21.50210937 38.79515625 20.9065625 37.6875 20.29296875 C27.71633021 14.88812077 18.09861075 11.99494777 6.9453125 10.09765625 C6.01267578 9.92331055 5.08003906 9.74896484 4.11914062 9.56933594 C-1.85762579 8.6810965 -7.89746697 8.80716308 -13.9296875 8.78515625 C-14.63799713 8.78220551 -15.34630676 8.77925476 -16.07608032 8.7762146 C-29.39151691 8.76365269 -42.02109068 10.32737378 -55.0546875 13.09765625 C-56.79685547 13.42056641 -56.79685547 13.42056641 -58.57421875 13.75 C-74.33798453 16.91101725 -90.06843806 22.65488248 -104.421875 29.84765625 C-107.0546875 31.09765625 -107.0546875 31.09765625 -109.0546875 31.09765625 C-109.09375 28.90625 -109.09375 28.90625 -108.0546875 26.09765625 C-105.39615246 24.04333372 -102.438845 22.63442985 -99.4296875 21.16015625 C-98.56520996 20.72413086 -97.70073242 20.28810547 -96.81005859 19.83886719 C-65.72032785 4.38292797 -34.33976591 -0.0953796 0 0 Z " fill="#1564A6" transform="translate(158.0546875,-0.09765625)"/>
<path d="M0 0 C4.82908845 1.90640357 7.79955076 5.20663838 10.5 9.5625 C12 14 12 14 12 27 C2.43 27 -7.14 27 -17 27 C-14.81940167 33.84825895 -14.81940167 33.84825895 -11 36 C-5.30920875 36.83464938 -0.9431354 36.04192948 4 33 C6.31 34.98 8.62 36.96 11 39 C6.47783767 44.07030322 2.61822438 46.57949116 -4.05859375 47.35546875 C-11.48025296 47.67292701 -16.31963836 46.86486417 -22 42 C-22.763125 41.38125 -23.52625 40.7625 -24.3125 40.125 C-28.41632231 34.95722375 -29.56018838 29.61283837 -29.5 23.125 C-29.49572998 22.42536133 -29.49145996 21.72572266 -29.48706055 21.00488281 C-29.28868223 14.95679759 -27.89299077 10.61430786 -24 6 C-21.375 3.5625 -21.375 3.5625 -19 2 C-13.55540849 -1.62972767 -6.32264175 -0.6962988 0 0 Z " fill="#1163A7" transform="translate(154,54)"/>
<path d="M0 0 C4.49625 -0.061875 8.9925 -0.12375 13.625 -0.1875 C15.03217285 -0.21481201 16.4393457 -0.24212402 17.88916016 -0.27026367 C19.01112793 -0.27775635 20.1330957 -0.28524902 21.2890625 -0.29296875 C23.00150146 -0.31653442 23.00150146 -0.31653442 24.74853516 -0.34057617 C29.30961632 0.13717636 32.71568513 1.58282498 35.8125 5 C38.38917129 9.33965691 38.12938239 13.50699135 38.09765625 18.38671875 C38.0962413 19.20372757 38.09482635 20.02073639 38.09336853 20.86250305 C38.08777294 23.47087268 38.07522129 26.07915634 38.0625 28.6875 C38.05748443 30.45637897 38.05292162 32.22525928 38.04882812 33.99414062 C38.03780496 38.32946019 38.02054338 42.66471552 38 47 C34.04 47 30.08 47 26 47 C25.67 35.12 25.34 23.24 25 11 C20.71 10.67 16.42 10.34 12 10 C12 21.88 12 33.76 12 46 C8.04 46 4.08 46 0 46 C0 30.82 0 15.64 0 0 Z " fill="#1B68A8" transform="translate(55,54)"/>
<path d="M0 0 C0.33 0 0.66 0 1 0 C1.185625 1.03125 1.37125 2.0625 1.5625 3.125 C5.195478 17.32893483 13.09461091 27.37096466 25.25 35.25 C41.57850628 44.81139541 58.48301364 47.44471952 77 49 C77 49.33 77 49.66 77 50 C51.59 50 26.18 50 0 50 C0 33.5 0 17 0 0 Z " fill="#FAFCFD" transform="translate(0,100)"/>
<path d="M0 0 C1.9609375 0.96484375 1.9609375 0.96484375 3.19140625 3.328125 C3.50722656 4.30136719 3.82304687 5.27460937 4.1484375 6.27734375 C4.63376953 7.72560547 4.63376953 7.72560547 5.12890625 9.203125 C5.40347656 10.11449219 5.67804688 11.02585937 5.9609375 11.96484375 C6.25677734 12.94517578 6.25677734 12.94517578 6.55859375 13.9453125 C8.9983025 26.19122925 5.9524244 38.69860752 -0.25 49.30078125 C-6.89318336 59.19303246 -15.46756383 67.48167194 -27.0390625 70.96484375 C-28.26426684 59.49556978 -28.26426684 59.49556978 -25.50390625 56.046875 C-24.12482317 55.09825716 -22.71043361 54.19944632 -21.26953125 53.34765625 C-13.95436508 48.81250945 -8.67743713 40.19001451 -6.43823242 32.03637695 C-5.66003441 27.99783865 -5.79406418 23.93735552 -5.8515625 19.83984375 C-5.85220703 18.95941406 -5.85285156 18.07898438 -5.85351562 17.171875 C-5.87733839 13.66198791 -5.92888454 10.46396316 -6.6875 7.02734375 C-6.86152344 6.00640625 -6.86152344 6.00640625 -7.0390625 4.96484375 C-3.21923268 -0.05550401 -3.21923268 -0.05550401 0 0 Z " fill="#0F62A6" transform="translate(220.0390625,29.03515625)"/>
<path d="M0 0 C22.77 0 45.54 0 69 0 C69 14.85 69 29.7 69 45 C67.41657105 41.8331421 66.52005784 39.3340874 65.5625 36 C60.94533285 23.20873692 49.36319362 14.97888129 37.53515625 9.3515625 C25.57796796 4.06778438 13.00319299 1.90647259 0 1 C0 0.67 0 0.34 0 0 Z " fill="#F7FBFC" transform="translate(158,0)"/>
<path d="M0 0 C3.63 0 7.26 0 11 0 C11 3.96 11 7.92 11 12 C13.97 12 16.94 12 20 12 C20 14.97 20 17.94 20 21 C17.03 21 14.06 21 11 21 C11.10948106 25.1255669 11.24020225 29.25018878 11.375 33.375 C11.4059375 34.550625 11.436875 35.72625 11.46875 36.9375 C11.50742188 38.05898437 11.54609375 39.18046875 11.5859375 40.3359375 C11.6173584 41.37282715 11.6487793 42.4097168 11.68115234 43.47802734 C11.75954472 46.16809835 11.75954472 46.16809835 14 48 C15.98821313 48.39764263 17.98944339 48.73775349 20 49 C20 51.97 20 54.94 20 58 C18.10489301 58.08160748 16.20875496 58.13946459 14.3125 58.1875 C12.72888672 58.23970703 12.72888672 58.23970703 11.11328125 58.29296875 C6.68956488 57.87668427 4.2520778 56.46276397 1.375 53.1015625 C-0.73910802 48.33280747 -0.36772935 43.73026919 -0.29296875 38.57421875 C-0.28872391 37.47149124 -0.28447906 36.36876373 -0.28010559 35.23262024 C-0.26333905 31.71732977 -0.22568951 28.20261664 -0.1875 24.6875 C-0.17245059 22.30144058 -0.15876264 19.91537216 -0.14648438 17.52929688 C-0.11344198 11.68597612 -0.06167263 5.84308589 0 0 Z " fill="#0D60A5" transform="translate(102,42)"/>
<path d="M0 0 C3.96 0 7.92 0 12 0 C12 21.45 12 42.9 12 65 C5.80200795 63.96700133 4.78691841 63.54430209 1 59 C-0.03444628 55.89666117 -0.12083424 53.77123751 -0.11352539 50.51879883 C-0.11344986 49.39786331 -0.11337433 48.2769278 -0.11329651 47.12202454 C-0.10813522 45.91257675 -0.10297394 44.70312897 -0.09765625 43.45703125 C-0.0962413 42.21829758 -0.09482635 40.9795639 -0.09336853 39.70329285 C-0.08871602 36.41368463 -0.0797339 33.1241254 -0.06866455 29.83453369 C-0.05842629 26.47628377 -0.05386574 23.11802667 -0.04882812 19.75976562 C-0.03779145 13.1731554 -0.0205229 6.58658722 0 0 Z " fill="#1465A7" transform="translate(173,35)"/>
<path d="M0 0 C3.96 0 7.92 0 12 0 C12 15.51 12 31.02 12 47 C5.4 45.68 5.4 45.68 3 44 C-0.20451066 38.93756798 -0.40489058 34.88590103 -0.29296875 29.1015625 C-0.28872391 28.26660248 -0.28447906 27.43164246 -0.28010559 26.57138062 C-0.26340333 23.92224965 -0.22576775 21.2738984 -0.1875 18.625 C-0.1724422 16.82162562 -0.15875571 15.01823924 -0.14648438 13.21484375 C-0.11352762 8.8095985 -0.06180469 4.40493114 0 0 Z " fill="#1365A8" transform="translate(33,54)"/>
<path d="M0 0 C4.92563089 2.02041437 7.35370083 4.54582687 9.5 9.375 C9.7475 10.674375 9.7475 10.674375 10 12 C7.5 10.75 7.5 10.75 5 9 C5 7.68 5 6.36 5 5 C3.68 5 2.36 5 1 5 C-0.21690533 6.76529595 -0.21690533 6.76529595 -1 9 C-0.35191436 10.34246312 0.31822584 11.67432801 1 13 C1 15.31 1 17.62 1 20 C-4.94 20 -10.88 20 -17 20 C-17 17.03 -17 14.06 -17 11 C-17.66 11 -18.32 11 -19 11 C-19.33 11.66 -19.66 12.32 -20 13 C-20 12.34 -20 11.68 -20 11 C-21.98 11 -23.96 11 -26 11 C-22.43052833 -0.68190728 -10.41063137 -1.59584904 0 0 Z " fill="#1766A7" transform="translate(154,54)"/>
<path d="M0 0 C2.02045442 0.60183749 4.02111039 1.27306096 6 2 C7.57726832 5.15453665 7.14190506 8.53740802 7.1328125 12 C7.13376923 12.79148437 7.13472595 13.58296875 7.13571167 14.3984375 C7.13639259 16.07291747 7.13454444 17.74740009 7.13037109 19.421875 C7.12502158 21.98964346 7.13031903 24.557237 7.13671875 27.125 C7.13605795 28.75000039 7.13477676 30.37500067 7.1328125 32 C7.13483673 32.77085938 7.13686096 33.54171875 7.13894653 34.3359375 C7.11496066 39.77007868 7.11496066 39.77007868 6 42 C3.03 42 0.06 42 -3 42 C-3.09943798 37.4285302 -3.17173349 32.85770025 -3.21972656 28.28540039 C-3.2397487 26.73255435 -3.26697517 25.17978281 -3.30175781 23.62719727 C-3.3506961 21.38539168 -3.37306168 19.14458907 -3.390625 16.90234375 C-3.41127014 16.21663803 -3.43191528 15.53093231 -3.45318604 14.82444763 C-3.45566975 9.39739848 -1.89704642 6.40822201 1 2 C0.34 1.67 -0.32 1.34 -1 1 C-0.67 0.67 -0.34 0.34 0 0 Z " fill="#095FA6" transform="translate(85,57)"/>
<path d="M0 0 C0.72990587 5.9608979 0.72990587 5.9608979 -1.125 8.6015625 C-2.17111874 9.70761512 -3.22089023 10.81021941 -4.2734375 11.91015625 C-12.33922108 21.67303909 -14.92917392 33.62377417 -15.5625 45.875 C-15.60568359 46.65875 -15.64886719 47.4425 -15.69335938 48.25 C-15.79853351 50.16650649 -15.89967925 52.08323333 -16 54 C-16.33 54 -16.66 54 -17 54 C-16.99476318 53.34402832 -16.98952637 52.68805664 -16.98413086 52.01220703 C-16.96338728 49.04981437 -16.95034824 46.08743697 -16.9375 43.125 C-16.92912109 42.09246094 -16.92074219 41.05992188 -16.91210938 39.99609375 C-16.90888672 39.00996094 -16.90566406 38.02382812 -16.90234375 37.0078125 C-16.89710693 36.09660645 -16.89187012 35.18540039 -16.88647461 34.24658203 C-16.85114435 31.96312491 -16.85114435 31.96312491 -18 30 C-18.66 30.99 -19.32 31.98 -20 33 C-20.66 33 -21.32 33 -22 33 C-22.495 35.475 -22.495 35.475 -23 38 C-24.48664589 33.61935012 -23.2573412 31.09324429 -21.484375 26.9765625 C-18.43713621 20.86604683 -7.97441333 0 0 0 Z " fill="#1765A4" transform="translate(25,43)"/>
<path d="M0 0 C3.96 0 7.92 0 12 0 C12 3.96 12 7.92 12 12 C8.04 12 4.08 12 0 12 C0 8.04 0 4.08 0 0 Z " fill="#075FA7" transform="translate(33,36)"/>
<path d="M0 0 C2.375 1.0625 2.375 1.0625 4 3 C4.33 5.31 4.66 7.62 5 10 C-0.61 10 -6.22 10 -12 10 C-12 5 -12 5 -9.9375 2.1875 C-6.27567816 -0.5393886 -4.47263212 -0.65056467 0 0 Z " fill="#EAF4F7" transform="translate(149,63)"/>
<path d="M0 0 C2.5 0.25 2.5 0.25 4.5 2.25 C4.125 5.875 4.125 5.875 3.5 9.25 C1.1875 9.875 1.1875 9.875 -1.5 10.25 C-2.49 9.59 -3.48 8.93 -4.5 8.25 C-4.8125 5.25 -4.8125 5.25 -4.5 2.25 C-2.5 0.25 -2.5 0.25 0 0 Z " fill="#83A9C2" transform="translate(197.5,34.75)"/>
<path d="M0 0 C3.96 0 7.92 0 12 0 C12 3.96 12 7.92 12 12 C8.04 12 4.08 12 0 12 C0 8.04 0 4.08 0 0 Z M1 3 C1 5.31 1 7.62 1 10 C3.97 10 6.94 10 10 10 C10.79953138 6.71303767 11.09658936 5.28976808 10 2 C5.34947128 1.73067479 5.34947128 1.73067479 1 3 Z " fill="#3E7BAD" transform="translate(33,36)"/>
<path d="M0 0 C0 3 0 3 -1 5 C0.65 4.67 2.3 4.34 4 4 C4 4.66 4 5.32 4 6 C8.55491614 8.20399168 13.02906176 8.58846263 18 9 C18 9.33 18 9.66 18 10 C10.62541838 10.50587831 4.64815521 10.91429848 -1.4765625 6.37890625 C-3.28129108 4.74539551 -4.75665069 3.09815196 -6 1 C-4.7934375 1.0309375 -4.7934375 1.0309375 -3.5625 1.0625 C-1.06645115 1.29633621 -1.06645115 1.29633621 0 0 Z " fill="#256BA4" transform="translate(135,91)"/>
<path d="M0 0 C1.26714844 0.30679688 2.53429688 0.61359375 3.83984375 0.9296875 C9.05327693 2.08822821 14.24933374 2.64942679 19.5625 3.125 C20.47580078 3.21136719 21.38910156 3.29773438 22.33007812 3.38671875 C24.55296584 3.59620555 26.77619349 3.80054684 29 4 C29 4.33 29 4.66 29 5 C20.75 5 12.5 5 4 5 C4.33 4.01 4.66 3.02 5 2 C3.35 1.67 1.7 1.34 0 1 C0 0.67 0 0.34 0 0 Z " fill="#DDF1F9" transform="translate(48,145)"/>
<path d="M0 0 C0 0.66 0 1.32 0 2 C-3.4019487 4.09350689 -6.05272412 4.17942163 -10 4 C-9.625 2.0625 -9.625 2.0625 -9 0 C-5.93109813 -1.53445094 -3.29905734 -0.54984289 0 0 Z " fill="#1263A4" transform="translate(68,21)"/>
<path d="M0 0 C2.31 0 4.62 0 7 0 C7 3.96 7 7.92 7 12 C4.45297384 13.27351308 3.5717055 12.80191925 0.875 12.0625 C0.15054688 11.86785156 -0.57390625 11.67320313 -1.3203125 11.47265625 C-1.87460938 11.31667969 -2.42890625 11.16070312 -3 11 C-3 10.67 -3 10.34 -3 10 C-0.03 10 2.94 10 6 10 C6 7.03 6 4.06 6 1 C4.02 1 2.04 1 0 1 C0 0.67 0 0.34 0 0 Z " fill="#BFD8E8" transform="translate(116,90)"/>
<path d="M0 0 C0 2.31 0 4.62 0 7 C-0.66 6.01 -1.32 5.02 -2 4 C-2.83144531 4.97453125 -2.83144531 4.97453125 -3.6796875 5.96875 C-4.40414063 6.8040625 -5.12859375 7.639375 -5.875 8.5 C-6.59429688 9.3353125 -7.31359375 10.170625 -8.0546875 11.03125 C-8.69664063 11.6809375 -9.33859375 12.330625 -10 13 C-10.66 13 -11.32 13 -12 13 C-10.46563424 9.34435261 -8.25017578 7.01301377 -5.4375 4.25 C-4.63183594 3.45078125 -3.82617188 2.6515625 -2.99609375 1.828125 C-1 0 -1 0 0 0 Z " fill="#3573A4" transform="translate(25,43)"/>
<path d="M0 0 C1 4 1 4 -0.25 6.6875 C-2 9 -2 9 -5 10 C-5 10.66 -5 11.32 -5 12 C-5.66 11.67 -6.32 11.34 -7 11 C-4.69 7.37 -2.38 3.74 0 0 Z " fill="#2E71A8" transform="translate(212,66)"/>
<path d="M0 0 C0 0.66 0 1.32 0 2 C-1.15628906 2.52400391 -1.15628906 2.52400391 -2.3359375 3.05859375 C-3.33882812 3.51363281 -4.34171875 3.96867187 -5.375 4.4375 C-6.87160156 5.11619141 -6.87160156 5.11619141 -8.3984375 5.80859375 C-9.94307583 6.51597316 -11.48044922 7.24022461 -13 8 C-13.66 7.34 -14.32 6.68 -15 6 C-12.87717331 4.99539469 -10.75166979 3.99644398 -8.625 3 C-7.44164062 2.443125 -6.25828125 1.88625 -5.0390625 1.3125 C-2 0 -2 0 0 0 Z " fill="#D4EAF3" transform="translate(66,24)"/>
<path d="M0 0 C0.66 0.33 1.32 0.66 2 1 C-3.12181749 5.17832479 -7.47603393 5.74213573 -14 6 C-11.80291879 3.80291879 -10.48226667 3.35322321 -7.5625 2.4375 C-6.78003906 2.18871094 -5.99757812 1.93992187 -5.19140625 1.68359375 C-4.10666016 1.34521484 -4.10666016 1.34521484 -3 1 C-2.01 0.67 -1.02 0.34 0 0 Z " fill="#3875A8" transform="translate(166,119)"/>
<path d="M0 0 C-0.99 2.97 -1.98 5.94 -3 9 C-3.99 8.34 -4.98 7.68 -6 7 C-5.37162381 3.35541809 -4.14650034 0 0 0 Z " fill="#0460AC" transform="translate(21,119)"/>
<path d="M0 0 C1.32 0 2.64 0 4 0 C3.67 1.32 3.34 2.64 3 4 C1.68 4.33 0.36 4.66 -1 5 C-0.67 3.35 -0.34 1.7 0 0 Z " fill="#2E72AA" transform="translate(50,26)"/>
<path d="M0 0 C0.33 0 0.66 0 1 0 C2 4 3 8 4 12 C3.01 11.67 2.02 11.34 1 11 C-0.20272819 8.59454362 -0.10071472 7.05003047 -0.0625 4.375 C-0.05347656 3.55773437 -0.04445312 2.74046875 -0.03515625 1.8984375 C-0.02355469 1.27195312 -0.01195312 0.64546875 0 0 Z " fill="#DBEEF6" transform="translate(0,100)"/>
<path d="M0 0 C-0.8125 1.9375 -0.8125 1.9375 -2 4 C-2.99 4.33 -3.98 4.66 -5 5 C-5.99 4.34 -6.98 3.68 -8 3 C-2.25 0 -2.25 0 0 0 Z " fill="#276EA7" transform="translate(71,16)"/>
<path d="M0 0 C1.98 0 3.96 0 6 0 C3.06171403 2.50298434 0.82097239 3.46930939 -3 4 C-3 3.34 -3 2.68 -3 2 C-2.01 2 -1.02 2 0 2 C0 1.34 0 0.68 0 0 Z " fill="#2A6FA7" transform="translate(169,132)"/>
</svg>
