<?xml version="1.0" encoding="UTF-8"?>
<svg version="1.1" xmlns="http://www.w3.org/2000/svg" width="279" height="150">
<path d="M0 0 C10.1475 -0.12375 20.295 -0.2475 30.75 -0.375 C35.55062988 -0.45693604 35.55062988 -0.45693604 40.44824219 -0.54052734 C42.98110442 -0.5580487 45.5139835 -0.57333856 48.046875 -0.5859375 C49.36510254 -0.6166333 50.68333008 -0.6473291 52.04150391 -0.67895508 C61.08298113 -0.6841653 61.08298113 -0.6841653 63.74963379 1.30535889 C65.25919984 3.46562261 66 5.35349256 66 8 C70.1267333 8.97809739 74.05006664 9.16692074 78.28515625 9.24609375 C79.71810423 9.27906852 81.15104679 9.31227948 82.58398438 9.34570312 C84.81270169 9.39272865 87.04140314 9.4371244 89.27026367 9.47680664 C112.79561235 9.91503678 112.79561235 9.91503678 120.1875 14.1875 C123.9376599 16.26918959 126.725667 16.31332534 130.921875 15.62109375 C133.25384923 15.03655882 133.25384923 15.03655882 135.875 13.0625 C143.87724095 7.78102097 154.63036509 8.68304118 163.89746094 8.73925781 C165.99703843 8.74998487 168.09576069 8.73929893 170.1953125 8.7265625 C177.19945915 8.72021947 183.88239253 9.05069155 190.74121094 10.55297852 C195.2194447 11.43923511 199.51590716 11.24574888 204.01953125 10.5 C209.13902494 9.74641379 214.27299145 9.81582123 219.4375 9.8125 C220.43587891 9.80025391 221.43425781 9.78800781 222.46289062 9.77539062 C234.21135384 9.75221811 240.77555761 12.71682086 250 20 C250.69867188 20.48597656 251.39734375 20.97195312 252.1171875 21.47265625 C259.59022284 26.97319514 261.04819167 36.3795132 263 45 C268.28 45.66 273.56 46.32 279 47 C279 61.19 279 75.38 279 90 C186.93 90 94.86 90 0 90 C0 60.3 0 30.6 0 0 Z " fill="#FCFCFC" transform="translate(0,23)"/>
<path d="M0 0 C1 1 1 1 1.125 4.4375 C1 8 1 8 0 10 C0.99 10.33 1.98 10.66 3 11 C2.67 12.65 2.34 14.3 2 16 C0.68 16 -0.64 16 -2 16 C-2.33 17.32 -2.66 18.64 -3 20 C0.34373475 19.44271087 3.03312999 18.64826111 6 17 C6.99 17.66 7.98 18.32 9 19 C8.75 21.375 8.75 21.375 8 24 C5.9375 25.3125 5.9375 25.3125 4 26 C4.825 26.53625 5.65 27.0725 6.5 27.625 C9 30 9 30 9.5 33.0625 C8.96917166 36.18111649 8.4832167 37.13758747 6 39 C6.99 39.495 6.99 39.495 8 40 C7.67 41.65 7.34 43.3 7 45 C6.01 44.67 5.02 44.34 4 44 C4 42.68 4 41.36 4 40 C1.03 39.505 1.03 39.505 -2 39 C-2 39.99 -2 40.98 -2 42 C-0.68 42 0.64 42 2 42 C2 42.99 2 43.98 2 45 C0.68 44.67 -0.64 44.34 -2 44 C-1.690625 44.556875 -1.38125 45.11375 -1.0625 45.6875 C0.1040584 48.22648005 0.79048458 50.20646106 1 53 C0 55.3125 0 55.3125 -2 57 C-6.37855495 57.46913089 -8.29584707 57.46943529 -12 55 C-12.53625 55.66 -13.0725 56.32 -13.625 57 C-16 59 -16 59 -19 59.375 C-21.89052671 59.01368416 -23.47811544 58.3450051 -26 57 C-27.32 57 -28.64 57 -30 57 C-29.67 55.35 -29.34 53.7 -29 52 C-28.01 52.33 -27.02 52.66 -26 53 C-25.566875 52.195625 -25.13375 51.39125 -24.6875 50.5625 C-23 48 -23 48 -20 47 C-20 46.34 -20 45.68 -20 45 C-20.99 44.67 -21.98 44.34 -23 44 C-23 43.34 -23 42.68 -23 42 C-23.969375 42.020625 -24.93875 42.04125 -25.9375 42.0625 C-29 42 -29 42 -30 41 C-30.125 38.5 -30.125 38.5 -30 36 C-29 35 -29 35 -26.5625 34.8125 C-24 35 -24 35 -22 37 C-21.7525 35.906875 -21.505 34.81375 -21.25 33.6875 C-19.92004396 29.76412967 -19.24855921 29.20063689 -16 27 C-15.3574765 24.93125966 -15.3574765 24.93125966 -15 23 C-14.34 22.67 -13.68 22.34 -13 22 C-13.66 21.01 -14.32 20.02 -15 19 C-15.35991786 16.12065712 -15.45771044 14.64079461 -13.75 12.25 C-11.83141429 10.87958164 -10.30908032 10.3981173 -8 10 C-8.66 9.34 -9.32 8.68 -10 8 C-10.32954432 4.90228335 -10.45334601 2.82668977 -8.9375 0.0625 C-5.84787273 -1.63181173 -3.32782582 -0.73951685 0 0 Z " fill="#E0EEF6" transform="translate(47,54)"/>
<path d="M0 0 C9.9 0 19.8 0 30 0 C28.68 0.33 27.36 0.66 26 1 C26.57344937 3.86724686 26.8614515 4.8614515 29 7 C27.02 7.99 27.02 7.99 25 9 C25 10.65 25 12.3 25 14 C26.65 14.66 28.3 15.32 30 16 C29.34 18.31 28.68 20.62 28 23 C27.443125 22.484375 26.88625 21.96875 26.3125 21.4375 C24.05914993 19.70523302 24.05914993 19.70523302 21.25 20.3125 C20.13625 20.6528125 20.13625 20.6528125 19 21 C18.731875 22.134375 18.46375 23.26875 18.1875 24.4375 C17.795625 25.613125 17.40375 26.78875 17 28 C16.01 28.33 15.02 28.66 14 29 C14 29.99 14 30.98 14 32 C14.66 32.66 15.32 33.32 16 34 C15.05125 34.28875 14.1025 34.5775 13.125 34.875 C9.94788422 35.76825109 9.94788422 35.76825109 8 38 C7.83318891 41.08347826 7.83318891 41.08347826 8 44 C7.01 44 6.02 44 5 44 C5.20625 44.53625 5.4125 45.0725 5.625 45.625 C6.1389488 48.8800091 5.26684844 50.99956947 4 54 C3.01 54.495 3.01 54.495 2 55 C1.67 55.99 1.34 56.98 1 58 C1.66 58.33 2.32 58.66 3 59 C2.505 59.495 2.505 59.495 2 60 C1.95936168 61.66617115 1.957279 63.33388095 2 65 C5.62528568 65.20140476 7.86501708 64.85776765 11 63 C11.66 63.66 12.32 64.32 13 65 C9.48812804 67.40814077 7.27343092 68.36629408 3 68 C2.67 69.65 2.34 71.3 2 73 C3.175625 73.2784375 3.175625 73.2784375 4.375 73.5625 C7 75 7 75 8.25 78.5625 C8.4975 79.696875 8.745 80.83125 9 82 C10.11166864 83.33187793 10.11166864 83.33187793 12.9375 83.1875 C16.10892859 83.33278733 16.10892859 83.33278733 18 81 C18.40047444 78.67724823 18.7397104 76.34260643 19 74 C21.3125 73.3125 21.3125 73.3125 24 73 C25.8125 74.3125 25.8125 74.3125 27 76 C27 76.66 27 77.32 27 78 C26.38125 78.45375 25.7625 78.9075 25.125 79.375 C22.86557722 81.10279389 22.07249699 82.40813228 21 85 C19.515 84.505 19.515 84.505 18 84 C17.67 85.32 17.34 86.64 17 88 C19.97 87.505 19.97 87.505 23 87 C23.66 87.99 24.32 88.98 25 90 C16.75 90 8.5 90 0 90 C0 60.3 0 30.6 0 0 Z " fill="#FDFEFE" transform="translate(0,23)"/>
<path d="M0 0 C3.375 -0.1875 3.375 -0.1875 7 0 C9.15502531 3.23253796 9.46856135 4.25150923 9 8 C8 9 7 10 6 11 C6.32843384 13.06381575 6.32843384 13.06381575 7 15 C6.67 15.66 6.34 16.32 6 17 C5.01 17 4.02 17 3 17 C3.12375 18.6396875 3.12375 18.6396875 3.25 20.3125 C3 24 3 24 1.3125 26 C-1.64288086 27.27800253 -2.98998383 27.08051862 -6 26 C-7.8125 24.6875 -7.8125 24.6875 -9 23 C-9 21.68 -9 20.36 -9 19 C-9.99 19 -10.98 19 -12 19 C-11.34 19.99 -10.68 20.98 -10 22 C-10.31925253 25.83103042 -10.84453702 27.76680553 -13 31 C-12.69159401 33.15274948 -12.69159401 33.15274948 -12 35 C-13.9375 35.5625 -13.9375 35.5625 -16 36 C-16.33 35.67 -16.66 35.34 -17 35 C-17.391875 35.66 -17.78375 36.32 -18.1875 37 C-20 39 -20 39 -22.625 39.3125 C-25 39 -25 39 -26 38 C-26.19382275 34.51119051 -25.77675511 31.39830361 -25 28 C-24.01 28 -23.02 28 -22 28 C-22.2475 27.0925 -22.495 26.185 -22.75 25.25 C-23 22 -23 22 -21.25 19.6875 C-19 18 -19 18 -16 17 C-16.33 15.68 -16.66 14.36 -17 13 C-15.68 12.67 -14.36 12.34 -13 12 C-13.061875 11.071875 -13.12375 10.14375 -13.1875 9.1875 C-13 6 -13 6 -11.8125 4.0625 C-10 3 -10 3 -7.4375 3.1875 C-5 4 -5 4 -3 6 C-2.01 4.02 -1.02 2.04 0 0 Z " fill="#85BEE6" transform="translate(30,39)"/>
<path d="M0 0 C2.49609375 0.1015625 2.49609375 0.1015625 5 1 C6.22265625 2.8984375 6.22265625 2.8984375 7.0625 5.375 C7.53623047 6.71304688 7.53623047 6.71304688 8.01953125 8.078125 C8.50486328 9.52445313 8.50486328 9.52445313 9 11 C9.7468149 13.04283389 10.49672161 15.08454063 11.25 17.125 C11.83496836 18.74941214 12.41891383 20.37419508 13 22 C13.47179687 20.85724609 13.47179687 20.85724609 13.953125 19.69140625 C14.84190653 17.54708697 15.73674854 15.40527249 16.63671875 13.265625 C17.47245225 11.26369605 18.29162151 9.25462806 19.08203125 7.234375 C19.40558594 6.43515625 19.72914062 5.6359375 20.0625 4.8125 C20.34222656 4.09707031 20.62195313 3.38164063 20.91015625 2.64453125 C22 1 22 1 23.99609375 0.19921875 C26 0 26 0 28 1 C28 10.9 28 20.8 28 31 C26.68 31 25.36 31 24 31 C23.505 21.1 23.505 21.1 23 11 C20.89868755 17.20031771 20.89868755 17.20031771 18.84301758 23.41577148 C18.57126709 24.18477783 18.2995166 24.95378418 18.01953125 25.74609375 C17.75245361 26.53685303 17.48537598 27.3276123 17.21020508 28.14233398 C16 30 16 30 13.3737793 30.76586914 C12.59043213 30.84313232 11.80708496 30.92039551 11 31 C10.39465846 29.50047375 9.7908025 28.00034778 9.1875 26.5 C8.85105469 25.6646875 8.51460937 24.829375 8.16796875 23.96875 C6.73600937 20.32898702 5.37335426 16.66227802 4 13 C3.67 18.94 3.34 24.88 3 31 C1.35 31 -0.3 31 -2 31 C-2.04939115 26.90661348 -2.08571501 22.81334202 -2.10986328 18.71972656 C-2.11992877 17.32679219 -2.13358234 15.93387898 -2.15087891 14.54101562 C-2.1751022 12.5404564 -2.18540814 10.53974385 -2.1953125 8.5390625 C-2.20578613 7.33459473 -2.21625977 6.13012695 -2.22705078 4.88916016 C-2 2 -2 2 0 0 Z " fill="#646466" transform="translate(72,58)"/>
<path d="M0 0 C1.9375 1.125 1.9375 1.125 3 3 C3.375 6 3.375 6 3 9 C1.5 10.875 1.5 10.875 0 12 C0.66 12.33 1.32 12.66 2 13 C1.67 14.65 1.34 16.3 1 18 C0.01 17.67 -0.98 17.34 -2 17 C-2 15.68 -2 14.36 -2 13 C-3.98 12.67 -5.96 12.34 -8 12 C-8 12.99 -8 13.98 -8 15 C-6.68 15 -5.36 15 -4 15 C-4 15.99 -4 16.98 -4 18 C-5.32 17.67 -6.64 17.34 -8 17 C-7.690625 17.556875 -7.38125 18.11375 -7.0625 18.6875 C-5.8959416 21.22648005 -5.20951542 23.20646106 -5 26 C-6 28.3125 -6 28.3125 -8 30 C-12.37855495 30.46913089 -14.29584707 30.46943529 -18 28 C-18.53625 28.66 -19.0725 29.32 -19.625 30 C-22 32 -22 32 -25 32.375 C-27.89052671 32.01368416 -29.47811544 31.3450051 -32 30 C-33.32 30 -34.64 30 -36 30 C-35.67 28.35 -35.34 26.7 -35 25 C-34.01 25.33 -33.02 25.66 -32 26 C-31.525625 25.195625 -31.05125 24.39125 -30.5625 23.5625 C-29 21 -29 21 -28 20 C-23.33521915 19.57592901 -20.81535994 20.30680475 -17 23 C-15.42726432 20.1575146 -15.42726432 20.1575146 -15 17 C-15.33 16.67 -15.66 16.34 -16 16 C-16.125 13.5 -16.125 13.5 -16 11 C-15 10 -15 10 -12.4375 9.9375 C-11.633125 9.958125 -10.82875 9.97875 -10 10 C-10.061875 8.906875 -10.12375 7.81375 -10.1875 6.6875 C-10 3 -10 3 -8.9375 1.0625 C-5.88023824 -0.6140629 -3.4093712 -0.36528977 0 0 Z " fill="#8AC2E9" transform="translate(53,81)"/>
<path d="M0 0 C3.05610801 0.65405342 5.71664415 -0.08942258 8.74609375 -0.6953125 C11.0625 -0.55859375 11.0625 -0.55859375 13.828125 0.8125 C17.16652233 4.74036958 16.61402717 8.21228644 16.375 13.19140625 C16.35244141 14.07957031 16.32988281 14.96773437 16.30664062 15.8828125 C16.24782552 18.07073437 16.16571268 20.25520296 16.0625 22.44140625 C14.7425 22.44140625 13.4225 22.44140625 12.0625 22.44140625 C12.00191406 21.22582031 11.94132812 20.01023437 11.87890625 18.7578125 C11.79451668 17.17316397 11.7098679 15.58852923 11.625 14.00390625 C11.58568359 13.20146484 11.54636719 12.39902344 11.50585938 11.57226562 C11.6570704 7.68901064 11.6570704 7.68901064 10.0625 4.44140625 C7.7525 4.44140625 5.4425 4.44140625 3.0625 4.44140625 C3.0625 10.38140625 3.0625 16.32140625 3.0625 22.44140625 C1.7425 22.44140625 0.4225 22.44140625 -0.9375 22.44140625 C-1.2675 16.83140625 -1.5975 11.22140625 -1.9375 5.44140625 C-4.2475 5.11140625 -6.5575 4.78140625 -8.9375 4.44140625 C-8.9375 10.38140625 -8.9375 16.32140625 -8.9375 22.44140625 C-10.5875 22.44140625 -12.2375 22.44140625 -13.9375 22.44140625 C-14.08260162 19.17103897 -14.17149373 15.90149618 -14.25 12.62890625 C-14.29189453 11.70013672 -14.33378906 10.77136719 -14.37695312 9.81445312 C-14.42292923 7.26737712 -14.40812546 4.94583691 -13.9375 2.44140625 C-9.94995314 -1.2409712 -5.16525543 -1.48917647 0 0 Z " fill="#656567" transform="translate(139.9375,66.55859375)"/>
<path d="M0 0 C3.25 0.9375 3.25 0.9375 4.25 1.9375 C4.4375 5.375 4.4375 5.375 4.25 8.9375 C2.25 10.9375 2.25 10.9375 -0.75 11.125 C-3.75 10.9375 -3.75 10.9375 -5.75 9.9375 C-5.42 12.2475 -5.09 14.5575 -4.75 16.9375 C-6.25 18.5 -6.25 18.5 -8.75 19.9375 C-10.7265625 19.84375 -10.7265625 19.84375 -12.875 19.5 C-14.15375 19.314375 -15.4325 19.12875 -16.75 18.9375 C-17.41 19.5975 -18.07 20.2575 -18.75 20.9375 C-21.3125 21.125 -21.3125 21.125 -23.75 20.9375 C-24.75 19.9375 -24.75 19.9375 -24.8125 17.5 C-24.791875 16.654375 -24.77125 15.80875 -24.75 14.9375 C-24.75 14.2775 -24.75 13.6175 -24.75 12.9375 C-24.43521554 11.59966607 -24.10412344 10.26546291 -23.75 8.9375 C-22.491875 9.02 -21.23375 9.1025 -19.9375 9.1875 C-17.76202652 9.25438143 -17.76202652 9.25438143 -15.75 8.9375 C-13.69729537 7.09561388 -13.69729537 7.09561388 -12.75 4.9375 C-11.43 5.2675 -10.11 5.5975 -8.75 5.9375 C-8.069375 4.926875 -7.38875 3.91625 -6.6875 2.875 C-4.27706377 -0.06725167 -4.12306483 -0.06871775 0 0 Z " fill="#DFEDF8" transform="translate(25.75,68.0625)"/>
<path d="M0 0 C3.27122427 1.93850327 5.53024775 3.32805286 6.59375 7.11328125 C6.875 9.3125 6.875 9.3125 7 13 C1.72 13 -3.56 13 -9 13 C-8.34 14.65 -7.68 16.3 -7 18 C-2.71 18 1.58 18 6 18 C5.67 19.32 5.34 20.64 5 22 C0.92814056 23.35728648 -2.74683089 23.6593499 -7 23 C-10.57522036 21.08285285 -12.69716116 18.90851653 -14 15 C-14.3711875 9.98896872 -14.11788946 7.00871501 -11 3 C-7.6285515 -0.49185738 -4.72742838 -0.65205909 0 0 Z " fill="#636365" transform="translate(117,66)"/>
<path d="M0 0 C2.80915461 1.27688846 4.50106764 2.31099817 6.3125 4.8125 C7 7 7 7 7 13 C1.72 13 -3.56 13 -9 13 C-8.01 14.65 -7.02 16.3 -6 18 C-3.03618482 18.60481772 -3.03618482 18.60481772 0.1875 18.3125 C1.81751953 18.24482422 1.81751953 18.24482422 3.48046875 18.17578125 C4.31191406 18.11777344 5.14335937 18.05976562 6 18 C5.6875 19.9375 5.6875 19.9375 5 22 C0.9493707 23.35020977 -2.76461089 23.55728804 -7 23 C-9.87029869 21.20606332 -11.49131638 20.01736724 -13 17 C-13.61766523 11.52042702 -14.04431644 7.37410058 -10.625 2.875 C-6.7716607 0.12261479 -4.75610946 -0.37302819 0 0 Z " fill="#616163" transform="translate(188,66)"/>
<path d="M0 0 C1 1 1 1 1.125 4.4375 C1 8 1 8 0 10 C0.99 10.33 1.98 10.66 3 11 C2.67 12.65 2.34 14.3 2 16 C0.68 16 -0.64 16 -2 16 C-2.268125 16.78375 -2.53625 17.5675 -2.8125 18.375 C-4 21 -4 21 -7 23 C-10.0625 22.8125 -10.0625 22.8125 -13 22 C-15.15502531 18.76746204 -15.46856135 17.74849077 -15 14 C-13.0658223 11.29215122 -11.23060419 10.55700072 -8 10 C-8.66 9.34 -9.32 8.68 -10 8 C-10.32954432 4.90228335 -10.45334601 2.82668977 -8.9375 0.0625 C-5.84787273 -1.63181173 -3.32782582 -0.73951685 0 0 Z " fill="#438DCB" transform="translate(47,54)"/>
<path d="M0 0 C1.32 0 2.64 0 4 0 C4 2.97 4 5.94 4 9 C5.381875 8.7525 6.76375 8.505 8.1875 8.25 C11.82442796 7.83762392 12.71135029 7.83162101 16 9.75 C19.63021065 13.83398698 19.12120226 18.01718581 19.0625 23.1875 C19.05798828 23.93708984 19.05347656 24.68667969 19.04882812 25.45898438 C19.03706354 27.30602383 19.01912865 29.15302213 19 31 C17.35 31 15.7 31 14 31 C13.67 25.39 13.34 19.78 13 14 C8.19611614 12.86925591 8.19611614 12.86925591 4 13 C4 18.94 4 24.88 4 31 C2.68 31 1.36 31 0 31 C0 20.77 0 10.54 0 0 Z " fill="#656567" transform="translate(217,58)"/>
<path d="M0 0 C3.37392649 0.6747853 4.56220896 1.66784386 6.5 4.5 C6.34079772 8.40045589 5.67917221 10.23124169 3.5 13.5 C3.80840599 15.65274948 3.80840599 15.65274948 4.5 17.5 C2.5625 18.0625 2.5625 18.0625 0.5 18.5 C0.17 18.17 -0.16 17.84 -0.5 17.5 C-0.891875 18.16 -1.28375 18.82 -1.6875 19.5 C-3.5 21.5 -3.5 21.5 -6.125 21.8125 C-8.5 21.5 -8.5 21.5 -9.5 20.5 C-9.69382275 17.01119051 -9.27675511 13.89830361 -8.5 10.5 C-7.51 10.5 -6.52 10.5 -5.5 10.5 C-5.87125 9.13875 -5.87125 9.13875 -6.25 7.75 C-6.5 4.5 -6.5 4.5 -4.875 2.125 C-2.5 0.5 -2.5 0.5 0 0 Z " fill="#2B68A2" transform="translate(13.5,56.5)"/>
<path d="M0 0 C7.59 0 15.18 0 23 0 C23 0.99 23 1.98 23 3 C20.03 3 17.06 3 14 3 C14 11.91 14 20.82 14 30 C12.35 30 10.7 30 9 30 C9 21.42 9 12.84 9 4 C6.03 4 3.06 4 0 4 C0 2.68 0 1.36 0 0 Z " fill="#636365" transform="translate(154,59)"/>
<path d="M0 0 C1.65 0.66 3.3 1.32 5 2 C4.68151178 4.94601605 4.44141246 6.55858754 2.3125 8.6875 C-0.36928643 10.209595 -3.06155781 11.08581798 -6 12 C-7.96822886 13.96822886 -7.66248381 17.34808709 -8 20 C-9.98 20 -11.96 20 -14 20 C-13.95875 19.05125 -13.9175 18.1025 -13.875 17.125 C-13.65026182 13.89755144 -13.65026182 13.89755144 -16 12 C-17.31747324 11.30251417 -18.64914193 10.63040043 -20 10 C-19.67 8.68 -19.34 7.36 -19 6 C-17.98679688 5.80083984 -17.98679688 5.80083984 -16.953125 5.59765625 C-15.61507812 5.33275391 -15.61507812 5.33275391 -14.25 5.0625 C-13.36828125 4.88847656 -12.4865625 4.71445313 -11.578125 4.53515625 C-5.28650851 3.37405124 -5.28650851 3.37405124 0 0 Z " fill="#DFEDF7" transform="translate(51,71)"/>
<path d="M0 0 C1.32 0 2.64 0 4 0 C4.061875 0.7425 4.12375 1.485 4.1875 2.25 C4.77049239 5.2252407 4.77049239 5.2252407 7.5625 6.9375 C10 9 10 9 10.5 12.0625 C10 15 10 15 8.875 16.875 C6.11909116 18.52854531 4.14924548 18.39365568 1 18 C-0.875 16.875 -0.875 16.875 -2 15 C-2.1875 11.8125 -2.1875 11.8125 -2 9 C-3.65 8.67 -5.3 8.34 -7 8 C-7.625 5.625 -7.625 5.625 -8 3 C-6 1 -6 1 -3.4375 0.9375 C-2.2309375 0.9684375 -2.2309375 0.9684375 -1 1 C-0.67 0.67 -0.34 0.34 0 0 Z " fill="#428DCA" transform="translate(9,89)"/>
<path d="M0 0 C3.375 -0.1875 3.375 -0.1875 7 0 C9.14915785 3.22373677 9.38286803 4.26703674 9 8 C7 10 7 10 3.5 10.125 C1.7675 10.063125 1.7675 10.063125 0 10 C-0.66 10 -1.32 10 -2 10 C-2.4125 10.66 -2.825 11.32 -3.25 12 C-5 14 -5 14 -8.0625 14.375 C-11 14 -11 14 -13 12 C-13.33661952 8.8357765 -13.49943411 6.81486618 -11.8125 4.0625 C-10 3 -10 3 -7.4375 3.1875 C-5 4 -5 4 -3 6 C-2.01 4.02 -1.02 2.04 0 0 Z " fill="#3094C9" transform="translate(30,39)"/>
<path d="M0 0 C0.91007813 0.10183594 1.82015625 0.20367187 2.7578125 0.30859375 C3.45648438 0.39238281 4.15515625 0.47617188 4.875 0.5625 C5.205 1.8825 5.535 3.2025 5.875 4.5625 C5.18792969 4.52769531 4.50085938 4.49289063 3.79296875 4.45703125 C2.44138672 4.41642578 2.44138672 4.41642578 1.0625 4.375 C-0.27748047 4.32279297 -0.27748047 4.32279297 -1.64453125 4.26953125 C-4.14392452 4.3752816 -4.14392452 4.3752816 -5.96484375 5.78515625 C-7.50941442 8.15141771 -7.28916628 9.42339027 -6.875 12.1875 C-6.76671875 12.98414062 -6.6584375 13.78078125 -6.546875 14.6015625 C-6.31181186 16.55654345 -6.31181186 16.55654345 -5.125 17.5625 C-3.27212498 17.63476502 -1.41666122 17.6463122 0.4375 17.625 C1.44941406 17.61597656 2.46132812 17.60695313 3.50390625 17.59765625 C4.28636719 17.58605469 5.06882813 17.57445313 5.875 17.5625 C5.875 18.8825 5.875 20.2025 5.875 21.5625 C1.50003297 23.02082234 -2.56246621 23.28901812 -7.125 22.5625 C-10.84239281 19.81162932 -11.80606259 18.38044323 -12.59375 13.890625 C-12.85877313 8.98769705 -12.77886998 6.42285523 -9.75 2.4375 C-5.9655275 -0.26569464 -4.56452328 -0.52667576 0 0 Z " fill="#636365" transform="translate(209.125,66.4375)"/>
<path d="M0 0 C1.9375 1.125 1.9375 1.125 3 3 C3.375 6 3.375 6 3 9 C1.5 10.875 1.5 10.875 0 12 C0.66 12.33 1.32 12.66 2 13 C1.67 14.65 1.34 16.3 1 18 C0.01 17.67 -0.98 17.34 -2 17 C-2 15.68 -2 14.36 -2 13 C-2.763125 12.896875 -3.52625 12.79375 -4.3125 12.6875 C-7.26644989 11.9318384 -8.33726664 11.53785617 -10 9 C-10.38976435 5.88188517 -10.50422245 3.88980433 -8.9375 1.125 C-5.8930714 -0.64273274 -3.4368988 -0.36823916 0 0 Z " fill="#275F8E" transform="translate(53,81)"/>
<path d="M0 0 C1.65 0.66 3.3 1.32 5 2 C3.68 2.33 2.36 2.66 1 3 C0.9175 3.763125 0.835 4.52625 0.75 5.3125 C0 8 0 8 -2 9.375 C-4.40115129 10.97461333 -4.40115129 10.97461333 -4.75 14.6875 C-4.8325 15.780625 -4.915 16.87375 -5 18 C-5.99 17.34 -6.98 16.68 -8 16 C-10.62531524 15.83286431 -10.62531524 15.83286431 -13 16 C-13 17.65 -13 19.3 -13 21 C-11.68 21.66 -10.36 22.32 -9 23 C-10.6875 23.75 -10.6875 23.75 -13 24 C-15.75 22.375 -15.75 22.375 -18 20 C-18.3125 17.25 -18.3125 17.25 -18 15 C-18.99 14.67 -19.98 14.34 -21 14 C-20.36191406 13.86722656 -19.72382813 13.73445313 -19.06640625 13.59765625 C-18.24011719 13.42105469 -17.41382813 13.24445313 -16.5625 13.0625 C-15.73878906 12.88847656 -14.91507813 12.71445313 -14.06640625 12.53515625 C-12.02338796 12.19247006 -12.02338796 12.19247006 -11 11 C-10.95907063 8.66702567 -10.95758277 6.33294775 -11 4 C-9.741875 4.0825 -8.48375 4.165 -7.1875 4.25 C-5.01202652 4.31688143 -5.01202652 4.31688143 -3 4 C-0.94729537 2.15811388 -0.94729537 2.15811388 0 0 Z " fill="#F7FAFD" transform="translate(31,74)"/>
<path d="M0 0 C3.125 0.1875 3.125 0.1875 6.125 2.1875 C6.5234375 4.0625 6.5234375 4.0625 6.5 6.1875 C6.50773437 6.88875 6.51546875 7.59 6.5234375 8.3125 C6.125 10.1875 6.125 10.1875 3.125 12.1875 C-0.9562988 12.53484458 -3.3151763 12.08607264 -6.875 10.1875 C-8.195 10.1875 -9.515 10.1875 -10.875 10.1875 C-10.545 8.5375 -10.215 6.8875 -9.875 5.1875 C-8.885 5.5175 -7.895 5.8475 -6.875 6.1875 C-6.400625 5.383125 -5.92625 4.57875 -5.4375 3.75 C-3.2814053 0.21400469 -3.2814053 0.21400469 0 0 Z " fill="#468ECB" transform="translate(27.875,100.8125)"/>
<path d="M0 0 C0.66 0 1.32 0 2 0 C2.33 1.32 2.66 2.64 3 4 C4.32 3.34 5.64 2.68 7 2 C7.99 2.66 8.98 3.32 10 4 C10.99 3.34 11.98 2.68 13 2 C14.32 2 15.64 2 17 2 C16.814375 2.804375 16.62875 3.60875 16.4375 4.4375 C16.2209375 5.7059375 16.2209375 5.7059375 16 7 C16.33 7.33 16.66 7.66 17 8 C17.33 5.36 17.66 2.72 18 0 C18.66 0 19.32 0 20 0 C20 3.3 20 6.6 20 10 C16.23312136 11.88343932 14.97041037 12.22057835 11 12 C11 10.68 11 9.36 11 8 C10.01 8.66 9.02 9.32 8 10 C6.32577014 9.70700977 4.65821773 9.37309899 3 9 C2.01 9.33 1.02 9.66 0 10 C0 6.7 0 3.4 0 0 Z " fill="#BBBCBE" transform="translate(244,94)"/>
<path d="M0 0 C1.875 1.1875 1.875 1.1875 3 3 C3.59636329 6.3225955 3.29109393 7.57455503 1.375 10.375 C-1 12 -1 12 -4.125 11.9375 C-7 11 -7 11 -9 8 C-9.35384949 5.16920408 -9.3920891 3.63169911 -7.875 1.1875 C-5.12844028 -0.55198782 -3.18153026 -0.39769128 0 0 Z " fill="#87C0E8" transform="translate(35,82)"/>
<path d="M0 0 C1 1 1 1 1.1875 4.4375 C1 8 1 8 -1 10 C-4.5 10.25 -4.5 10.25 -8 10 C-10 8 -10 8 -10.3125 5.0625 C-10 2 -10 2 -8.9375 0.0625 C-5.84787273 -1.63181173 -3.32782582 -0.73951685 0 0 Z " fill="#26649F" transform="translate(47,54)"/>
<path d="M0 0 C1 1 1 1 1.1875 4.4375 C1 8 1 8 -1 10 C-4.13704316 10.333728 -6.16554166 10.52849028 -8.875 8.8125 C-10.40659584 6.34492892 -10.42822025 4.85480169 -10 2 C-7.59027568 -2.25245468 -4.23782457 -0.94173879 0 0 Z " fill="#85BFE8" transform="translate(29,69)"/>
<path d="M0 0 C1.7325 0.1546875 1.7325 0.1546875 3.5 0.3125 C5.64762184 3.53393276 6.061068 4.5720467 5.5 8.3125 C3.875 10.1875 3.875 10.1875 1.5 11.3125 C-1.6875 11.125 -1.6875 11.125 -4.5 10.3125 C-5.88125018 7.54999964 -5.69079306 5.36518901 -5.5 2.3125 C-3.5 0.3125 -3.5 0.3125 0 0 Z " fill="#85BFE8" transform="translate(15.5,76.6875)"/>
<path d="M0 0 C4.08378283 0.74250597 8.01939223 1.82923301 12 3 C12.33 4.32 12.66 5.64 13 7 C11.0625 7.5625 11.0625 7.5625 9 8 C8.67 7.67 8.34 7.34 8 7 C7.608125 7.66 7.21625 8.32 6.8125 9 C5 11 5 11 2.375 11.3125 C-0 11 -0 11 -1 10 C-1.19382275 6.51119051 -0.77675511 3.39830361 0 0 Z " fill="#CFE1EE" transform="translate(5,67)"/>
<path d="M0 0 C2.4375 0.8125 2.4375 0.8125 4.4375 2.8125 C4.6875 5.8125 4.6875 5.8125 4.4375 8.8125 C2.4375 10.8125 2.4375 10.8125 -0.5625 11.0625 C-3.5625 10.8125 -3.5625 10.8125 -5.5625 8.8125 C-5.89911952 5.6482765 -6.06193411 3.62736618 -4.375 0.875 C-2.5625 -0.1875 -2.5625 -0.1875 0 0 Z " fill="#476D8E" transform="translate(22.5625,42.1875)"/>
<path d="M0 0 C1.31872662 0.39651917 2.62997101 0.81798691 3.9375 1.25 C4.66839844 1.48203125 5.39929688 1.7140625 6.15234375 1.953125 C8 3 8 3 8.81640625 4.984375 C9 7 9 7 8 9 C7.319375 8.835 6.63875 8.67 5.9375 8.5 C0.96398073 7.65344353 -2.71465609 7.14310406 -7 10 C-7.99 9.34 -8.98 8.68 -10 8 C-10 7.34 -10 6.68 -10 6 C-8.906875 5.938125 -7.81375 5.87625 -6.6875 5.8125 C-2.85667284 5.3867767 -2.85667284 5.3867767 -1.0625 2.4375 C-0.711875 1.633125 -0.36125 0.82875 0 0 Z " fill="#EBF2F7" transform="translate(28,47)"/>
<path d="M0 0 C2.47923801 -0.02685095 4.9581884 -0.04676547 7.4375 -0.0625 C8.14455078 -0.07087891 8.85160156 -0.07925781 9.58007812 -0.08789062 C11.38693559 -0.09653588 13.19387603 -0.05220011 15 0 C16 1 16 1 16.0625 4.0625 C16.041875 5.031875 16.02125 6.00125 16 7 C15.34 7 14.68 7 14 7 C14 5.02 14 3.04 14 1 C13.34 1 12.68 1 12 1 C12 2.98 12 4.96 12 7 C11.34 7 10.68 7 10 7 C10 5.02 10 3.04 10 1 C9.34 1 8.68 1 8 1 C8 2.98 8 4.96 8 7 C7.34 7 6.68 7 6 7 C5.67 6.67 5.34 6.34 5 6 C4.0409375 6.2784375 4.0409375 6.2784375 3.0625 6.5625 C2.381875 6.706875 1.70125 6.85125 1 7 C0.34 6.34 -0.32 5.68 -1 5 C-0.625 2.375 -0.625 2.375 0 0 Z " fill="#A2A3A5" transform="translate(146,97)"/>
<path d="M0 0 C0.66 0 1.32 0 2 0 C2 0.99 2 1.98 2 3 C3.65 3.33 5.3 3.66 7 4 C7 5.98 7 7.96 7 10 C6.34 10 5.68 10 5 10 C5 8.02 5 6.04 5 4 C4.01 4 3.02 4 2 4 C2 5.98 2 7.96 2 10 C-0.875 10.125 -0.875 10.125 -4 10 C-4.66 9.34 -5.32 8.68 -6 8 C-5.625 5.375 -5.625 5.375 -5 3 C-3.35 3 -1.7 3 0 3 C0 2.01 0 1.02 0 0 Z " fill="#B6B7B9" transform="translate(221,94)"/>
<path d="M0 0 C4.19161906 0 7.88857686 0.13443723 12 1 C12 2.65 12 4.3 12 6 C8.31620978 7.17881287 4.84458427 7.21358801 1 7 C0.34 6.34 -0.32 5.68 -1 5 C-0.625 2.375 -0.625 2.375 0 0 Z " fill="#CBCBCD" transform="translate(110,97)"/>
<path d="M0 0 C0.99 0.33 1.98 0.66 3 1 C3.33 2.65 3.66 4.3 4 6 C4.66 6 5.32 6 6 6 C6.33 4.35 6.66 2.7 7 1 C7.99 1 8.98 1 10 1 C10 3.97 10 6.94 10 10 C9.34 10 8.68 10 8 10 C7.67 9.01 7.34 8.02 7 7 C6.67 7.66 6.34 8.32 6 9 C5.01 8.67 4.02 8.34 3 8 C2.67 8.66 2.34 9.32 2 10 C1.34 10 0.68 10 0 10 C0 6.7 0 3.4 0 0 Z " fill="#9D9DA0" transform="translate(134,94)"/>
<path d="M0 0 C3.125 0.375 3.125 0.375 6 1 C6.125 3.875 6.125 3.875 6 7 C5.34 7.66 4.68 8.32 4 9 C-0.55555556 8.44444444 -0.55555556 8.44444444 -2 7 C-2.1875 4.5625 -2.1875 4.5625 -2 2 C-1.34 1.34 -0.68 0.68 0 0 Z " fill="#458FCB" transform="translate(26,30)"/>
<path d="M0 0 C1.32 0 2.64 0 4 0 C3.67 0.99 3.34 1.98 3 3 C2.01 3 1.02 3 0 3 C0.33 3.66 0.66 4.32 1 5 C-0.32 5.33 -1.64 5.66 -3 6 C-3 7.65 -3 9.3 -3 11 C-1.68 11.66 -0.36 12.32 1 13 C-0.6875 13.75 -0.6875 13.75 -3 14 C-5.75 12.375 -5.75 12.375 -8 10 C-8.3125 7.25 -8.3125 7.25 -8 5 C-8.99 4.67 -9.98 4.34 -11 4 C-10.37351562 3.87882812 -9.74703125 3.75765625 -9.1015625 3.6328125 C-8.28429687 3.46523437 -7.46703125 3.29765625 -6.625 3.125 C-5.81289062 2.96257812 -5.00078125 2.80015625 -4.1640625 2.6328125 C-1.81326077 2.13341068 -1.81326077 2.13341068 0 0 Z " fill="#E1E7ED" transform="translate(21,84)"/>
<path d="M0 0 C1 1 1 1 1.0625 4.0625 C1.041875 5.031875 1.02125 6.00125 1 7 C-0.98 7 -2.96 7 -5 7 C-5.33 5.35 -5.66 3.7 -6 2 C-6.99 1.67 -7.98 1.34 -9 1 C-9 2.98 -9 4.96 -9 7 C-9.33 7 -9.66 7 -10 7 C-10 4.69 -10 2.38 -10 0 C-6.681572 -1.659214 -3.60735024 -0.57259528 0 0 Z " fill="#AFAFB1" transform="translate(181,97)"/>
<path d="M0 0 C3.125 0.25 3.125 0.25 5 1.5625 C6.125 3.25 6.125 3.25 6.125 6.25 C2.495 6.25 -1.135 6.25 -4.875 6.25 C-3.68915929 0.32079646 -3.68915929 0.32079646 0 0 Z " fill="#FAFAFA" transform="translate(112.875,69.75)"/>
<path d="M0 0 C3 0.25 3 0.25 5 2.25 C5 3.57 5 4.89 5 6.25 C1.37 6.25 -2.26 6.25 -6 6.25 C-4.53191489 0.37765957 -4.53191489 0.37765957 0 0 Z " fill="#FBFBFB" transform="translate(185,69.75)"/>
<path d="M0 0 C0.66 0 1.32 0 2 0 C2 3.3 2 6.6 2 10 C-1.76687864 11.88343932 -3.02958963 12.22057835 -7 12 C-7 8 -7 8 -6 6 C-5.01 6 -4.02 6 -3 6 C-3.33 5.01 -3.66 4.02 -4 3 C-3.34 3 -2.68 3 -2 3 C-1.67 4.65 -1.34 6.3 -1 8 C-0.67 5.36 -0.34 2.72 0 0 Z " fill="#9C9D9F" transform="translate(262,94)"/>
<path d="M0 0 C0.226875 0.61875 0.45375 1.2375 0.6875 1.875 C2.37929835 4.61410209 3.99244161 5.05024472 7 6 C6.34 8.31 5.68 10.62 5 13 C4.236875 12.360625 3.47375 11.72125 2.6875 11.0625 C0.11753287 8.85767219 0.11753287 8.85767219 -3 8 C-2.67 6.35 -2.34 4.7 -2 3 C-1.34 3 -0.68 3 0 3 C0 2.01 0 1.02 0 0 Z " fill="#B7D8EB" transform="translate(23,33)"/>
<path d="M0 0 C0.66 0 1.32 0 2 0 C2 0.99 2 1.98 2 3 C3.65 3.33 5.3 3.66 7 4 C6.67 5.65 6.34 7.3 6 9 C4.34385343 9.38218767 2.67542976 9.71395102 1 10 C0 9 0 9 -0.09765625 6.93359375 C-0.08605469 6.10988281 -0.07445312 5.28617187 -0.0625 4.4375 C-0.05347656 3.61121094 -0.04445312 2.78492187 -0.03515625 1.93359375 C-0.02355469 1.29550781 -0.01195312 0.65742187 0 0 Z " fill="#CDCDCE" transform="translate(163,94)"/>
<path d="M0 0 C2.475 0.99 2.475 0.99 5 2 C4.67 3.65 4.34 5.3 4 7 C1.625 7.625 1.625 7.625 -1 8 C-1.66 7.34 -2.32 6.68 -3 6 C-2.63318342 3.06546739 -2.13562754 2.13562754 0 0 Z " fill="#3295CB" transform="translate(51,71)"/>
<path d="M0 0 C0.66 0 1.32 0 2 0 C5 6.625 5 6.625 5 10 C4.34 10 3.68 10 3 10 C3 9.34 3 8.68 3 8 C1.02 8.66 -0.96 9.32 -3 10 C-2.69201674 8.51988629 -2.378482 7.04092675 -2.0625 5.5625 C-1.88847656 4.73878906 -1.71445313 3.91507812 -1.53515625 3.06640625 C-1 1 -1 1 0 0 Z " fill="#A3A4A6" transform="translate(74,94)"/>
<path d="M0 0 C-0.33 1.65 -0.66 3.3 -1 5 C-2.32 5 -3.64 5 -5 5 C-5.33 5.66 -5.66 6.32 -6 7 C-7.07525194 4.34771188 -8.09456151 1.71631546 -9 -1 C-5.22102349 -2.0497157 -3.35080929 -2.10976881 0 0 Z " fill="#CADFEE" transform="translate(50,65)"/>
<path d="M0 0 C2.5 0.125 2.5 0.125 3.5 1.125 C3.625 3.625 3.625 3.625 3.5 6.125 C2.5 7.125 2.5 7.125 0 7.25 C-2.5 7.125 -2.5 7.125 -3.5 6.125 C-3.625 3.625 -3.625 3.625 -3.5 1.125 C-2.5 0.125 -2.5 0.125 0 0 Z " fill="#57A5DA" transform="translate(40.5,90.875)"/>
<path d="M0 0 C2.5 0.125 2.5 0.125 3.5 1.125 C3.625 3.625 3.625 3.625 3.5 6.125 C2.5 7.125 2.5 7.125 0 7.25 C-2.5 7.125 -2.5 7.125 -3.5 6.125 C-3.625 3.625 -3.625 3.625 -3.5 1.125 C-2.5 0.125 -2.5 0.125 0 0 Z " fill="#436B8C" transform="translate(20.5,88.875)"/>
<path d="M0 0 C2.5 0.125 2.5 0.125 3.5 1.125 C3.625 3.625 3.625 3.625 3.5 6.125 C2.5 7.125 2.5 7.125 0 7.25 C-2.5 7.125 -2.5 7.125 -3.5 6.125 C-3.625 3.625 -3.625 3.625 -3.5 1.125 C-2.5 0.125 -2.5 0.125 0 0 Z " fill="#88C1E9" transform="translate(4.5,81.875)"/>
<path d="M0 0 C2.5 0.125 2.5 0.125 3.5 1.125 C3.625 3.625 3.625 3.625 3.5 6.125 C2.5 7.125 2.5 7.125 0 7.25 C-2.5 7.125 -2.5 7.125 -3.5 6.125 C-3.625 3.625 -3.625 3.625 -3.5 1.125 C-2.5 0.125 -2.5 0.125 0 0 Z " fill="#29608E" transform="translate(7.5,70.875)"/>
<path d="M0 0 C2.125 0.375 2.125 0.375 4 1 C4.625 3.375 4.625 3.375 5 6 C4.34 6.66 3.68 7.32 3 8 C0.875 7.625 0.875 7.625 -1 7 C-1.625 4.625 -1.625 4.625 -2 2 C-1.34 1.34 -0.68 0.68 0 0 Z " fill="#2C6390" transform="translate(3,90)"/>
<path d="M0 0 C1.2065625 0.0309375 1.2065625 0.0309375 2.4375 0.0625 C3.0625 2.4375 3.0625 2.4375 3.4375 5.0625 C2.7775 5.7225 2.1175 6.3825 1.4375 7.0625 C-0.6875 6.6875 -0.6875 6.6875 -2.5625 6.0625 C-2.94468767 4.40635343 -3.27645102 2.73792976 -3.5625 1.0625 C-2.5625 0.0625 -2.5625 0.0625 0 0 Z " fill="#B8B8BA" transform="translate(239.5625,96.9375)"/>
<path d="M0 0 C0.33 0 0.66 0 1 0 C1 2.97 1 5.94 1 9 C-3 10 -3 10 -5 9 C-5 7.35 -5 5.7 -5 4 C-3.35 3.67 -1.7 3.34 0 3 C0 2.01 0 1.02 0 0 Z " fill="#B1B2B3" transform="translate(85,94)"/>
<path d="M0 0 C0.33 0 0.66 0 1 0 C1 2.97 1 5.94 1 9 C-0.32 9.33 -1.64 9.66 -3 10 C-3.66 9.34 -4.32 8.68 -5 8 C-4.625 5.375 -4.625 5.375 -4 3 C-2.68 3 -1.36 3 0 3 C0 2.01 0 1.02 0 0 Z " fill="#B4B5B7" transform="translate(128,94)"/>
<path d="M0 0 C1.66611905 -0.042721 3.33382885 -0.04063832 5 0 C6 1 6 1 6.0625 4.0625 C6.041875 5.031875 6.02125 6.00125 6 7 C4.02 7 2.04 7 0 7 C-0.33 5.68 -0.66 4.36 -1 3 C-0.34 2.67 0.32 2.34 1 2 C0.67 1.34 0.34 0.68 0 0 Z " fill="#ABABAD" transform="translate(95,97)"/>
<path d="M0 0 C1.65 0 3.3 0 5 0 C6.125 4.75 6.125 4.75 5 7 C3.35 6.67 1.7 6.34 0 6 C-1.125 2.25 -1.125 2.25 0 0 Z " fill="#A9AAAC" transform="translate(208,97)"/>
<path d="M0 0 C1.32 0 2.64 0 4 0 C4.33 1.98 4.66 3.96 5 6 C2.09399739 7.25664978 0.20395416 8 -3 8 C-2.45276317 4.62537285 -1.9451 2.91765 0 0 Z " fill="#92ABC0" transform="translate(9,89)"/>
<path d="M0 0 C1.65 0 3.3 0 5 0 C5.33 1.98 5.66 3.96 6 6 C3.625 6.625 3.625 6.625 1 7 C0.34 6.34 -0.32 5.68 -1 5 C-0.625 2.375 -0.625 2.375 0 0 Z " fill="#A0A0A3" transform="translate(266,97)"/>
<path d="M0 0 C1.65 0 3.3 0 5 0 C6 3 6 3 6 6 C3.625 6.625 3.625 6.625 1 7 C0.34 6.34 -0.32 5.68 -1 5 C-0.625 2.375 -0.625 2.375 0 0 Z " fill="#A7A7A9" transform="translate(191,97)"/>
<path d="M0 0 C1.32 0.66 2.64 1.32 4 2 C0.48812804 4.40814077 -1.72656908 5.36629408 -6 5 C-6.12375 5.804375 -6.2475 6.60875 -6.375 7.4375 C-6.58125 8.283125 -6.7875 9.12875 -7 10 C-7.99 10.495 -7.99 10.495 -9 11 C-9 8.03 -9 5.06 -9 2 C-7.329375 2.061875 -7.329375 2.061875 -5.625 2.125 C-1.95633975 2.41121859 -1.95633975 2.41121859 0 0 Z " fill="#F4F7FA" transform="translate(9,86)"/>
<path d="M0 0 C1.67542976 0.28604898 3.34385343 0.61781233 5 1 C5 2.65 5 4.3 5 6 C1.25 7.125 1.25 7.125 -1 6 C-1.042721 4.33388095 -1.04063832 2.66617115 -1 1 C-0.67 0.67 -0.34 0.34 0 0 Z " fill="#A5A6A8" transform="translate(117,97)"/>
<path d="M0 0 C1.65 0.33 3.3 0.66 5 1 C4.67 1.99 4.34 2.98 4 4 C4.66 4.33 5.32 4.66 6 5 C5.34 5 4.68 5 4 5 C3.67 5.99 3.34 6.98 3 8 C2.67 7.01 2.34 6.02 2 5 C1.01 4.67 0.02 4.34 -1 4 C-0.67 2.68 -0.34 1.36 0 0 Z " fill="#95C4E5" transform="translate(14,51)"/>
<path d="M0 0 C1.32 0 2.64 0 4 0 C3.47731534 2.76276177 2.89130413 5.3260876 2 8 C1.34 8 0.68 8 0 8 C-0.38063221 5.6739143 -0.71269945 3.33944736 -1 1 C-0.67 0.67 -0.34 0.34 0 0 Z " fill="#90C4E9" transform="translate(39,80)"/>
<path d="M0 0 C0.99 0.99 1.98 1.98 3 3 C2.67 3.99 2.34 4.98 2 6 C3.32 6 4.64 6 6 6 C6 6.99 6 7.98 6 9 C4.68 8.67 3.36 8.34 2 8 C1.67 8.66 1.34 9.32 1 10 C0.34 10 -0.32 10 -1 10 C-0.73958333 7.98177083 -0.47916667 5.96354167 -0.21875 3.9453125 C0.0372485 1.99501656 0.0372485 1.99501656 0 0 Z " fill="#ADD2E8" transform="translate(43,90)"/>
<path d="M0 0 C-0.33 1.32 -0.66 2.64 -1 4 C-1 3.01 -1 2.02 -1 1 C-1.33 1.99 -1.66 2.98 -2 4 C-5.0625 5.1875 -5.0625 5.1875 -8 6 C-7.6875 4.125 -7.6875 4.125 -7 2 C-4 0 -4 0 0 0 Z " fill="#BBBBBD" transform="translate(261,96)"/>
<path d="M0 0 C0.66 0 1.32 0 2 0 C2 0.99 2 1.98 2 3 C3.32 3 4.64 3 6 3 C5.67 3.66 5.34 4.32 5 5 C4.01 4.67 3.02 4.34 2 4 C2 5.65 2 7.3 2 9 C1.34 9 0.68 9 0 9 C0 6.03 0 3.06 0 0 Z " fill="#9A9B9D" transform="translate(163,94)"/>
<path d="M0 0 C2.64 0.33 5.28 0.66 8 1 C7.67 2.65 7.34 4.3 7 6 C6.01 5.67 5.02 5.34 4 5 C4 3.68 4 2.36 4 1 C2.68 0.67 1.36 0.34 0 0 Z " fill="#4E9FCC" transform="translate(47,93)"/>
<path d="M0 0 C0.66 0 1.32 0 2 0 C2.33 0.99 2.66 1.98 3 3 C3.99 2.01 4.98 1.02 6 0 C5.67 1.98 5.34 3.96 5 6 C4.01 6.33 3.02 6.66 2 7 C1.34 4.69 0.68 2.38 0 0 Z " fill="#9C9DA0" transform="translate(87,97)"/>
<path d="M0 0 C0.66 0 1.32 0 2 0 C3.125 6.625 3.125 6.625 2 10 C1.34 10 0.68 10 0 10 C0 6.7 0 3.4 0 0 Z " fill="#A1A2A4" transform="translate(244,94)"/>
<path d="M0 0 C0.33 1.32 0.66 2.64 1 4 C1.99 4 2.98 4 4 4 C4.33 3.34 4.66 2.68 5 2 C5 3.65 5 5.3 5 7 C3.02 7 1.04 7 -1 7 C-0.67 4.69 -0.34 2.38 0 0 Z " fill="#F7FBFD" transform="translate(38,84)"/>
<path d="M0 0 C1.32 0 2.64 0 4 0 C3.67 1.65 3.34 3.3 3 5 C1.68 4.67 0.36 4.34 -1 4 C-0.67 2.68 -0.34 1.36 0 0 Z " fill="#268FC8" transform="translate(46,65)"/>
<path d="M0 0 C2.475 0.495 2.475 0.495 5 1 C4.34 2.32 3.68 3.64 3 5 C2.01 4.67 1.02 4.34 0 4 C0 2.68 0 1.36 0 0 Z " fill="#547896" transform="translate(26,24)"/>
<path d="M0 0 C-0.33 0.99 -0.66 1.98 -1 3 C-1.99 3 -2.98 3 -4 3 C-3.67 3.66 -3.34 4.32 -3 5 C-4.65 4.67 -6.3 4.34 -8 4 C-4.5 0 -4.5 0 0 0 Z " fill="#B8D7ED" transform="translate(25,84)"/>
<path d="M0 0 C0.33 0.66 0.66 1.32 1 2 C-1.475 3.485 -1.475 3.485 -4 5 C-4.99 4.34 -5.98 3.68 -7 3 C-7 2.34 -7 1.68 -7 1 C-3.535 0.505 -3.535 0.505 0 0 Z " fill="#F5F8FB" transform="translate(25,52)"/>
<path d="M0 0 C0.99 0.33 1.98 0.66 3 1 C3 2.32 3 3.64 3 5 C1.68 5 0.36 5 -1 5 C-0.67 3.35 -0.34 1.7 0 0 Z " fill="#396C97" transform="translate(18,106)"/>
<path d="M0 0 C1.65 0.33 3.3 0.66 5 1 C5 1.99 5 2.98 5 4 C3.35 4 1.7 4 0 4 C0 2.68 0 1.36 0 0 Z " fill="#BFBFC1" transform="translate(255,102)"/>
<path d="M0 0 C0.99 0.33 1.98 0.66 3 1 C2.67 2.32 2.34 3.64 2 5 C1.01 5 0.02 5 -1 5 C-0.67 3.35 -0.34 1.7 0 0 Z " fill="#3670A6" transform="translate(33,95)"/>
<path d="M0 0 C0.99 0.33 1.98 0.66 3 1 C2.67 2.32 2.34 3.64 2 5 C1.01 5 0.02 5 -1 5 C-0.67 3.35 -0.34 1.7 0 0 Z " fill="#4C93CD" transform="translate(15,70)"/>
<path d="M0 0 C2.475 0.495 2.475 0.495 5 1 C4.67 1.99 4.34 2.98 4 4 C2.68 3.67 1.36 3.34 0 3 C0 2.01 0 1.02 0 0 Z " fill="#306592" transform="translate(32,51)"/>
</svg>
