<?xml version="1.0" encoding="UTF-8"?>
<svg version="1.1" xmlns="http://www.w3.org/2000/svg" width="300" height="97">
<path d="M0 0 C99 0 198 0 300 0 C300 32.01 300 64.02 300 97 C201 97 102 97 0 97 C0 64.99 0 32.98 0 0 Z " fill="#FDFDFC" transform="translate(0,0)"/>
<path d="M0 0 C5.28 0 10.56 0 16 0 C16.495 3.96 16.495 3.96 17 8 C17.81404297 7.25943359 17.81404297 7.25943359 18.64453125 6.50390625 C19.35996094 5.86324219 20.07539063 5.22257812 20.8125 4.5625 C21.52019531 3.92441406 22.22789062 3.28632812 22.95703125 2.62890625 C25.94317994 0.24798081 28.40879913 -0.124896 32.10424805 -0.11352539 C33.3351844 -0.11341209 33.3351844 -0.11341209 34.59098816 -0.11329651 C35.47232925 -0.10813522 36.35367035 -0.10297394 37.26171875 -0.09765625 C38.62040825 -0.09553383 38.62040825 -0.09553383 40.00654602 -0.09336853 C42.90023091 -0.08777001 45.79383849 -0.07521781 48.6875 -0.0625 C50.64908742 -0.05748481 52.61067606 -0.05292193 54.57226562 -0.04882812 C59.38154021 -0.03780107 64.190757 -0.02053747 69 0 C69 3.96 69 7.92 69 12 C73.16189629 10.95952593 73.47314081 10.83585949 75.8125 7.6875 C79.93545746 2.75213713 83.07344538 0.28457106 89.53515625 -0.34375 C97.76152101 -0.53826503 103.8312338 -0.6402262 110.1875 4.91015625 C112.23995707 6.87353098 114.20222273 8.80064132 116 11 C116 11.66 116 12.32 116 13 C116.66 13 117.32 13 118 13 C118.33 8.71 118.66 4.42 119 0 C127.25 0 135.5 0 144 0 C144 3.96 144 7.92 144 12 C148.62 12 153.24 12 158 12 C158 22.89 158 33.78 158 45 C161.3 45 164.6 45 168 45 C168 50.28 168 55.56 168 61 C156.45 61 144.9 61 133 61 C133 56.71 133 52.42 133 48 C129.581264 49.13957867 128.97467693 50.04429724 126.8125 52.8125 C122.17198086 58.16398895 118.5738067 60.54882175 111.47265625 61.4453125 C104.07253124 61.78537818 98.70586484 61.4165184 92.80859375 56.734375 C90.26872008 54.29872941 88.09122211 51.83326867 86 49 C85.52820313 49.83144531 85.52820313 49.83144531 85.046875 50.6796875 C84.61890625 51.40414062 84.1909375 52.12859375 83.75 52.875 C83.33234375 53.59429687 82.9146875 54.31359375 82.484375 55.0546875 C80.8075575 57.25220096 79.57680789 58.05117539 77 59 C76.01 59 75.02 59 74 59 C74 59.66 74 60.32 74 61 C60.47 61 46.94 61 33 61 C33 56.71 33 52.42 33 48 C32.01 48 31.02 48 30 48 C30 52.29 30 56.58 30 61 C24.72 61 19.44 61 14 61 C14 56.71 14 52.42 14 48 C10.37 48 6.74 48 3 48 C3.5775 48.69867188 4.155 49.39734375 4.75 50.1171875 C5.4925 51.02726562 6.235 51.93734375 7 52.875 C7.7425 53.77992187 8.485 54.68484375 9.25 55.6171875 C11 58 11 58 11 60 C-4.51 60 -20.02 60 -36 60 C-36 56.04 -36 52.08 -36 48 C-25.11 48 -14.22 48 -3 48 C-6.45151228 42.82273157 -9.95181939 38.66419227 -14.171875 34.171875 C-16 32 -16 32 -16 30 C-14.783125 29.5875 -13.56625 29.175 -12.3125 28.75 C-8.57288247 27.30710333 -5.72474198 26.04529986 -3 23 C-0.14514051 15.90990939 -0.43645214 7.49242841 0 0 Z " fill="#EF8B3E" transform="translate(127,29)"/>
<path d="M0 0 C2.47265625 1.66796875 2.47265625 1.66796875 4.5625 3.3125 C5.15933594 3.74175781 5.75617187 4.17101562 6.37109375 4.61328125 C8.98518702 6.61459455 11.11513737 8.90322522 13.1875 11.4375 C15.31161604 14.29759156 15.31161604 14.29759156 17.68255615 15.70124817 C19.5625 17.3125 19.5625 17.3125 20.04351807 19.45756531 C20.0301944 20.69999748 20.0301944 20.69999748 20.01660156 21.9675293 C20.01629944 22.90827805 20.01599731 23.84902679 20.01568604 24.81828308 C19.99504089 25.83086685 19.97439575 26.84345062 19.953125 27.88671875 C19.94746521 28.92568802 19.94180542 29.96465729 19.93597412 31.03511047 C19.91356327 34.35720681 19.8633569 37.67822904 19.8125 41 C19.79244115 43.25063548 19.77418931 45.50128784 19.7578125 47.75195312 C19.7136832 53.2725026 19.64672421 58.79242457 19.5625 64.3125 C21.2125 64.3125 22.8625 64.3125 24.5625 64.3125 C21.71821381 70.87841439 15.67365267 74.0922707 9.25 76.6875 C-0.37389137 79.85569564 -10.00799061 78.82054126 -19.4375 75.3125 C-24.61777452 72.43940657 -28.14321429 68.5915901 -31.80859375 64.02734375 C-33.67982515 62.0573903 -35.6268705 60.79840949 -37.9375 59.375 C-42.65365657 56.37885347 -45.54034512 53.05890267 -48.4375 48.3125 C-49.05818359 47.34763672 -49.05818359 47.34763672 -49.69140625 46.36328125 C-53.93725454 38.59648559 -53.57158384 28.89279333 -51.84765625 20.41015625 C-48.81192275 11.55476775 -42.09203884 4.49797649 -34.1875 -0.3125 C-24.1630132 -4.81644144 -9.81279573 -5.17524158 0 0 Z " fill="#2F4478" transform="translate(57.4375,12.6875)"/>
<path d="M0 0 C8.25 0 16.5 0 25 0 C25 3.96 25 7.92 25 12 C29.62 12 34.24 12 39 12 C39 22.89 39 33.78 39 45 C42.3 45 45.6 45 49 45 C49 50.28 49 55.56 49 61 C37.45 61 25.9 61 14 61 C14 56.71 14 52.42 14 48 C10.581264 49.13957867 9.97467693 50.04429724 7.8125 52.8125 C3.17198086 58.16398895 -0.4261933 60.54882175 -7.52734375 61.4453125 C-15.01058939 61.78919791 -20.24827383 61.32109218 -26.265625 56.703125 C-28.08939602 54.91221472 -29.59397868 53.13506941 -31 51 C-31 50.34 -31 49.68 -31 49 C-30.31035156 48.97421875 -29.62070313 48.9484375 -28.91015625 48.921875 C-20.25042903 48.39920285 -12.23744754 46.41566032 -6 40 C-2.19052261 34.22936954 -1.46194764 29.30246721 -1.75 22.5 C-1.77707031 21.26636719 -1.77707031 21.26636719 -1.8046875 20.0078125 C-1.8512717 18.00469196 -1.92299301 16.00218179 -2 14 C-1.34 14 -0.68 14 0 14 C0 9.38 0 4.76 0 0 Z " fill="#EEAF65" transform="translate(246,29)"/>
<path d="M0 0 C2.46875 1.6640625 2.46875 1.6640625 4.5625 3.3125 C5.1709375 3.75335937 5.779375 4.19421875 6.40625 4.6484375 C12.68784857 9.48280503 16.83147868 15.36813761 17.9921875 23.21875 C18.4700951 30.94173689 18.4700951 30.94173689 16.23828125 34.3125 C7.87094942 41.83369715 -3.55954098 43.71538737 -14.4375 43.3125 C-13.674375 42.735 -12.91125 42.1575 -12.125 41.5625 C-7.8604212 38.16894739 -7.8604212 38.16894739 -6.15234375 33.19921875 C-6.01848747 29.64329745 -6.04772813 27.07255515 -7.6875 23.875 C-9.50924303 22.24844373 -11.18582862 21.24422609 -13.4375 20.3125 C-13.4375 19.9825 -13.4375 19.6525 -13.4375 19.3125 C-19.43309379 18.67085351 -19.43309379 18.67085351 -24.375 21.75 C-25.055625 22.595625 -25.73625 23.44125 -26.4375 24.3125 C-26.7675 24.6425 -27.0975 24.9725 -27.4375 25.3125 C-27.87649498 29.87129398 -27.99371206 34.00540165 -26.1875 38.25 C-24.43088947 40.32029099 -22.70487703 41.82697712 -20.4375 43.3125 C-28.82345787 43.99706799 -38.77197146 42.27359397 -45.9609375 37.7109375 C-47.875 36.0625 -47.875 36.0625 -50.4375 33.3125 C-50.7675 35.2925 -51.0975 37.2725 -51.4375 39.3125 C-51.7675 39.3125 -52.0975 39.3125 -52.4375 39.3125 C-52.99019221 26.93833561 -52.59978636 18.04685755 -44.4375 8.0625 C-33.20675856 -3.42183883 -14.79712077 -7.80396095 0 0 Z " fill="#31467A" transform="translate(57.4375,12.6875)"/>
<path d="M0 0 C5.754375 -0.103125 11.50875 -0.20625 17.4375 -0.3125 C19.23501709 -0.35802002 21.03253418 -0.40354004 22.88452148 -0.45043945 C38.38284315 -0.67909644 38.38284315 -0.67909644 45 5 C47.60738251 7.73775164 48.81040091 9.43120273 50 13 C49.76792682 18.0766009 48.58311294 22.00053226 44.8125 25.5 C41.50016218 28.29260332 38.23709184 28.55345619 34 29 C34.60328125 29.73605469 35.2065625 30.47210938 35.828125 31.23046875 C36.62734375 32.20628906 37.4265625 33.18210938 38.25 34.1875 C39.03890625 35.15042969 39.8278125 36.11335938 40.640625 37.10546875 C41.41921875 38.06066406 42.1978125 39.01585937 43 40 C43.75796875 40.90363281 44.5159375 41.80726562 45.296875 42.73828125 C47 45 47 45 47 47 C41.11028282 47.16792948 35.22042742 47.32845577 29.33032227 47.48217773 C27.3273376 47.53548911 25.32440534 47.59080963 23.3215332 47.64819336 C20.43973082 47.73040801 17.55781614 47.80535382 14.67578125 47.87890625 C13.78288895 47.90594131 12.88999664 47.93297638 11.970047 47.96083069 C11.12955307 47.98092697 10.28905914 48.00102325 9.4230957 48.02172852 C8.68807327 48.04171402 7.95305084 48.06169952 7.195755 48.08229065 C5 48 5 48 0 47 C0 31.49 0 15.98 0 0 Z " fill="#F094B7" transform="translate(77,30)"/>
<path d="M0 0 C13.53 0 27.06 0 41 0 C41 3.96 41 7.92 41 12 C45.16189629 10.95952593 45.47314081 10.83585949 47.8125 7.6875 C51.93545746 2.75213713 55.07344538 0.28457106 61.53515625 -0.34375 C69.76152101 -0.53826503 75.8312338 -0.6402262 82.1875 4.91015625 C84.23995707 6.87353098 86.20222273 8.80064132 88 11 C88 11.66 88 12.32 88 13 C88.99 13.495 88.99 13.495 90 14 C90.10901505 16.83439137 90.18777904 19.66450203 90.25 22.5 C90.28351563 23.29148437 90.31703125 24.08296875 90.3515625 24.8984375 C90.46352894 31.72839064 88.71959821 36.70410598 84.359375 41.98828125 C76.6633509 48.32068943 68.93325086 49.93642719 59 50 C58.67 49.67 58.34 49.34 58 49 C57.34 49.66 56.68 50.32 56 51 C55.7525 49.9790625 55.7525 49.9790625 55.5 48.9375 C53.93885519 45.88025808 52.68087885 44.75333363 50.0625 42.625 C46.11694965 39.35133685 44.5838617 36.84475342 43 32 C42.505 30.515 42.505 30.515 42 29 C41.88046231 27.02345815 41.82473804 25.04261544 41.8125 23.0625 C41.79832031 22.02222656 41.78414062 20.98195313 41.76953125 19.91015625 C41.99607718 17.04953387 42.52266381 15.42329849 44 13 C42.68 13 41.36 13 40 13 C40 9.04 40 5.08 40 1 C26.8 1 13.6 1 0 1 C0 0.67 0 0.34 0 0 Z " fill="#F6B366" transform="translate(155,29)"/>
<path d="M0 0 C5.28 0 10.56 0 16 0 C16.00386719 1.79244141 16.00386719 1.79244141 16.0078125 3.62109375 C16.08218717 15.29755484 16.08218717 15.29755484 21.3671875 25.43359375 C23.39471858 27.37866543 25.45801916 28.80377372 28 30 C28 30.33 28 30.66 28 31 C25.03 31 22.06 31 19 31 C19 36.61 19 42.22 19 48 C22.63 48 26.26 48 30 48 C30 52.29 30 56.58 30 61 C24.72 61 19.44 61 14 61 C14 56.71 14 52.42 14 48 C10.37 48 6.74 48 3 48 C3.5775 48.69867188 4.155 49.39734375 4.75 50.1171875 C5.4925 51.02726562 6.235 51.93734375 7 52.875 C7.7425 53.77992187 8.485 54.68484375 9.25 55.6171875 C11 58 11 58 11 60 C-4.51 60 -20.02 60 -36 60 C-36 56.04 -36 52.08 -36 48 C-25.11 48 -14.22 48 -3 48 C-6.45151228 42.82273157 -9.95181939 38.66419227 -14.171875 34.171875 C-16 32 -16 32 -16 30 C-14.783125 29.5875 -13.56625 29.175 -12.3125 28.75 C-8.57288247 27.30710333 -5.72474198 26.04529986 -3 23 C-0.14514051 15.90990939 -0.43645214 7.49242841 0 0 Z " fill="#E24A8C" transform="translate(127,29)"/>
<path d="M0 0 C1.32 0 2.64 0 4 0 C3.76023437 0.81404297 3.76023437 0.81404297 3.515625 1.64453125 C1.89042255 9.06875154 1.91359666 18.38505969 6 25 C8.52840849 27.44290676 11.11855359 29.6351244 13.91796875 31.76171875 C16 34 16 34 16.4375 37.09375 C15.8265888 41.1519458 14.19212336 42.51723739 11 45 C8.1875 45.8125 8.1875 45.8125 6 46 C6 46.66 6 47.32 6 48 C-7.53 48 -21.06 48 -35 48 C-35 43.71 -35 39.42 -35 35 C-32.30650391 34.94392578 -32.30650391 34.94392578 -29.55859375 34.88671875 C-27.18487552 34.82104275 -24.81117852 34.75459598 -22.4375 34.6875 C-20.66536133 34.65366211 -20.66536133 34.65366211 -18.85742188 34.61914062 C-11.66378921 34.39748808 -5.77198599 34.16360115 -0.0625 29.375 C2.06970213 24.60890113 1.53416504 19.78055013 0.0625 14.875 C-2.51945571 11.27591022 -5.56468364 8.99872139 -9.13671875 6.41796875 C-10.05904297 5.71607422 -10.05904297 5.71607422 -11 5 C-11 4.67 -11 4.34 -11 4 C-7.37 4 -3.74 4 0 4 C0 2.68 0 1.36 0 0 Z " fill="#211C16" transform="translate(195,42)"/>
<path d="M0 0 C2.46948242 0.83911133 2.46948242 0.83911133 5 3 C5.74985461 6.51097851 5.57940311 9.99881013 5.48828125 13.57421875 C5.48120651 14.61318802 5.47413177 15.65215729 5.46684265 16.72261047 C5.43882688 20.04496909 5.37607264 23.36564978 5.3125 26.6875 C5.28742653 28.93812673 5.26461171 31.18877983 5.24414062 33.43945312 C5.18897694 38.96020908 5.10527911 44.47998469 5 50 C6.65 50 8.3 50 10 50 C7.15571381 56.56591439 1.11115267 59.7797707 -5.3125 62.375 C-14.91393814 65.53580402 -24.59712141 64.53590142 -34 61 C-36.94565564 59.26670424 -39.49449236 57.31834924 -42 55 C-42.56589844 54.484375 -43.13179687 53.96875 -43.71484375 53.4375 C-45 52 -45 52 -45 50 C-44.38592285 50.02094727 -43.7718457 50.04189453 -43.13916016 50.06347656 C-40.30127983 50.14768034 -37.46366348 50.19898423 -34.625 50.25 C-33.17673828 50.30027344 -33.17673828 50.30027344 -31.69921875 50.3515625 C-20.61676016 50.50032033 -13.09116588 46.98483911 -5.1328125 39.36328125 C-2.2258826 36.14223255 -0.40156821 33.09062349 1 29 C1.33257812 28.02933594 1.33257812 28.02933594 1.671875 27.0390625 C4.00022086 19.07863678 3.26590413 11.86402023 1 4 C0.66172868 2.66791089 0.3270895 1.33487878 0 0 Z " fill="#1C1813" transform="translate(72,27)"/>
<path d="M0 0 C4.62 0 9.24 0 14 0 C14 10.56 14 21.12 14 32 C16.97 32 19.94 32 23 32 C23 36.95 23 41.9 23 47 C12.11 47 1.22 47 -10 47 C-10 43.04 -10 39.08 -10 35 C-3.4 35 3.2 35 10 35 C10 29.72 10 24.44 10 19 C6.7 19 3.4 19 0 19 C0 12.73 0 6.46 0 0 Z " fill="#1B1611" transform="translate(271,42)"/>
<path d="M0 0 C0.33 0 0.66 0 1 0 C1 9.33333333 1 18.66666667 1 28 C1.58265625 28.2475 2.1653125 28.495 2.765625 28.75 C5.33114236 30.18525446 6.83724798 31.77663013 8.75 34 C9.67039062 35.051875 9.67039062 35.051875 10.609375 36.125 C12 38 12 38 12 40 C-3.51 40 -19.02 40 -35 40 C-35 36.04 -35 32.08 -35 28 C-24.11 28 -13.22 28 -2 28 C-5.45151228 22.82273157 -8.95181939 18.66419227 -13.171875 14.171875 C-15 12 -15 12 -15 10 C-13.783125 9.5875 -12.56625 9.175 -11.3125 8.75 C-6.29010701 6.86549148 -3.002424 4.50363599 0 0 Z " fill="#1A150F" transform="translate(126,49)"/>
<path d="M0 0 C0.33 0 0.66 0 1 0 C1 6.27 1 12.54 1 19 C4.63 19 8.26 19 12 19 C9.29145277 24.41709446 5.12265986 28.42793928 -0.2734375 31.14453125 C-6.63326935 33.13995127 -14.67360301 33.39202483 -20.875 30.796875 C-24.65150054 28.33718057 -27.50880323 25.78292843 -30 22 C-30 21.34 -30 20.68 -30 20 C-29.31035156 19.97421875 -28.62070313 19.9484375 -27.91015625 19.921875 C-19.25042903 19.39920285 -11.23744754 17.41566032 -5 11 C-2.88977692 7.4734238 -1.29842491 3.89527473 0 0 Z " fill="#1E1913" transform="translate(245,58)"/>
<path d="M0 0 C5.28 0 10.56 0 16 0 C16 0.33 16 0.66 16 1 C14.35 1.33 12.7 1.66 11 2 C11.78375 2.433125 12.5675 2.86625 13.375 3.3125 C16 5 16 5 18 8 C18.68343706 11.77688904 18.85107095 15.47186889 16.94921875 18.88671875 C15.17977487 21.04241292 13.5083344 22.7458328 11 24 C12.32 24.66 13.64 25.32 15 26 C9.72 26 4.44 26 -1 26 C-0.34 25.34 0.32 24.68 1 24 C0.195625 23.21625 -0.60875 22.4325 -1.4375 21.625 C-5.32833753 17.639264 -5.44143463 14.90633044 -5.43359375 9.48828125 C-4.92738688 6.58329229 -4.25363164 5.71502395 -2 3.875 C-0.515 2.946875 -0.515 2.946875 1 2 C0.67 1.34 0.34 0.68 0 0 Z " fill="#5E6370" transform="translate(34,31)"/>
<path d="M0 0 C-2 2 -4 4 -6 6 C-6.43899498 10.55879398 -6.55621206 14.69290165 -4.75 18.9375 C-2.99338947 21.00779099 -1.26737703 22.51447712 1 24 C-7.99823376 24.73454969 -19.19530266 22.71008046 -26.5 17.125 C-28.7027921 14.85943403 -28.97522375 14.20233937 -29.375 10.9375 C-27.04216605 5.95371839 -23.3925564 3.91318947 -18.44140625 2.0234375 C-12.22489261 0.13643903 -6.46940174 -0.37890205 0 0 Z " fill="#F3F3F4" transform="translate(36,32)"/>
<path d="M0 0 C10.74253749 -0.61712449 19.25865124 1.65510456 28 8 C28.33 8.33 28.66 8.66 29 9 C28.9375 12.3125 28.9375 12.3125 28 16 C21.78819161 21.73397698 11.05091617 24.20425282 2.6875 24.0625 C0.8621875 24.0315625 0.8621875 24.0315625 -1 24 C-0.236875 23.4225 0.52625 22.845 1.3125 22.25 C5.5770788 18.85644739 5.5770788 18.85644739 7.28515625 13.88671875 C7.41901253 10.33079745 7.38977187 7.76005515 5.75 4.5625 C3.92825697 2.93594373 2.25167138 1.93172609 0 1 C0 0.67 0 0.34 0 0 Z " fill="#F4F4F5" transform="translate(44,32)"/>
<path d="M0 0 C4 4 4 4 6 6.625 C7.93552849 8.92344008 9.24366461 9.91715395 12 11 C12 11.33 12 11.66 12 12 C9.03 12 6.06 12 3 12 C3 17.61 3 23.22 3 29 C6.63 29 10.26 29 14 29 C14 33.29 14 37.58 14 42 C8.72 42 3.44 42 -2 42 C-2 37.71 -2 33.42 -2 29 C-1.34 29 -0.68 29 0 29 C0 19.43 0 9.86 0 0 Z " fill="#28221A" transform="translate(143,48)"/>
<path d="M0 0 C0.33 0 0.66 0 1 0 C1.05837668 3.70826651 1.09372277 7.4164137 1.125 11.125 C1.14175781 12.17171875 1.15851563 13.2184375 1.17578125 14.296875 C1.18544922 15.82441406 1.18544922 15.82441406 1.1953125 17.3828125 C1.21102295 18.78104248 1.21102295 18.78104248 1.22705078 20.20751953 C1 23 1 23 -1 29 C-11.89 29 -22.78 29 -34 29 C-34 32.63 -34 36.26 -34 40 C-34.33 40 -34.66 40 -35 40 C-35 36.04 -35 32.08 -35 28 C-24.11 28 -13.22 28 -2 28 C-5.45151228 22.82273157 -8.95181939 18.66419227 -13.171875 14.171875 C-15 12 -15 12 -15 10 C-13.783125 9.5875 -12.56625 9.175 -11.3125 8.75 C-6.29010701 6.86549148 -3.002424 4.50363599 0 0 Z " fill="#221B18" transform="translate(126,49)"/>
<path d="M0 0 C3.63 0 7.26 0 11 0 C11 4.29 11 8.58 11 13 C-5.5 13 -22 13 -39 13 C-39 12.67 -39 12.34 -39 12 C-23.49 12 -7.98 12 8 12 C5.36 8.7 2.72 5.4 0 2 C0 1.34 0 0.68 0 0 Z " fill="#D9D8D9" transform="translate(130,77)"/>
<path d="M0 0 C1.32 0 2.64 0 4 0 C3.83757812 0.53882813 3.67515625 1.07765625 3.5078125 1.6328125 C2.26984557 7.40364297 2.61105505 13.7830138 3.625 19.5625 C4 22 4 22 2 25 C1.91363281 24.34773438 1.82726562 23.69546875 1.73828125 23.0234375 C0.63002873 16.12990349 -0.8526117 12.03491238 -6.66015625 7.78515625 C-8.09192199 6.83403055 -9.5442867 5.91405253 -11 5 C-11 4.67 -11 4.34 -11 4 C-7.37 4 -3.74 4 0 4 C0 2.68 0 1.36 0 0 Z " fill="#261E16" transform="translate(195,42)"/>
<path d="M0 0 C3.63 0 7.26 0 11 0 C11 3.63 11 7.26 11 11 C7.75 10.875 7.75 10.875 4 10 C0.87037711 6.38889667 0 4.82403959 0 0 Z " fill="#201C17" transform="translate(29,44)"/>
<path d="M0 0 C3.3 0 6.6 0 10 0 C10.375 2.6875 10.375 2.6875 10 6 C7.25 8.875 7.25 8.875 4 11 C2.68 11 1.36 11 0 11 C0 7.37 0 3.74 0 0 Z " fill="#1E1A15" transform="translate(41,44)"/>
<path d="M0 0 C0 3.3 0 6.6 0 10 C-3.63 10 -7.26 10 -11 10 C-11 5 -11 5 -8.3125 2.1875 C-5 0 -5 0 0 0 Z " fill="#201C17" transform="translate(40,33)"/>
<path d="M0 0 C6.34507042 0.59859155 6.34507042 0.59859155 8.9375 2.1875 C10.47273259 4.80642619 10.1980568 7.02914805 10 10 C6.7 10 3.4 10 0 10 C0 6.7 0 3.4 0 0 Z " fill="#1F1B16" transform="translate(41,33)"/>
<path d="M0 0 C2.46948242 0.83911133 2.46948242 0.83911133 5 3 C5.74985461 6.51097851 5.57940311 9.99881013 5.48828125 13.57421875 C5.48120651 14.61318802 5.47413177 15.65215729 5.46684265 16.72261047 C5.43882688 20.04496909 5.37607264 23.36564978 5.3125 26.6875 C5.28742653 28.93812673 5.26461171 31.18877983 5.24414062 33.43945312 C5.18897694 38.96020908 5.10527911 44.47998469 5 50 C4.67 50 4.34 50 4 50 C3.85551826 46.03482156 3.71319544 42.06957169 3.57275391 38.10424805 C3.5014311 36.10266212 3.42846672 34.10113491 3.35546875 32.09960938 C2.96974652 21.16162888 2.96974652 21.16162888 3.02734375 15.828125 C2.99623886 11.47344016 2.20257547 8.17364429 1 4 C0.66172868 2.66791089 0.3270895 1.33487878 0 0 Z " fill="#362F33" transform="translate(72,27)"/>
<path d="M0 0 C0.99 0.33 1.98 0.66 3 1 C3 11.56 3 22.12 3 33 C6.3 33 9.6 33 13 33 C13 33.33 13 33.66 13 34 C9.37 34 5.74 34 2 34 C1.34 22.78 0.68 11.56 0 0 Z " fill="#97754B" transform="translate(244,43)"/>
<path d="M0 0 C0.66 0.33 1.32 0.66 2 1 C1.67 2.65 1.34 4.3 1 6 C-9.89 6 -20.78 6 -32 6 C-32 9.63 -32 13.26 -32 17 C-32.33 17 -32.66 17 -33 17 C-33 13.04 -33 9.08 -33 5 C-22.11 5 -11.22 5 0 5 C-0.495 3.02 -0.495 3.02 -1 1 C-0.67 0.67 -0.34 0.34 0 0 Z " fill="#2B2523" transform="translate(124,72)"/>
<path d="M0 0 C1.32 0 2.64 0 4 0 C3.83757812 0.53882813 3.67515625 1.07765625 3.5078125 1.6328125 C2.26984557 7.40364297 2.61105505 13.7830138 3.625 19.5625 C4 22 4 22 2 25 C0.08041738 16.60182604 -0.22588024 8.59599799 0 0 Z " fill="#604A32" transform="translate(195,42)"/>
<path d="M0 0 C0.33 0 0.66 0 1 0 C1 5.61 1 11.22 1 17 C0.67 17 0.34 17 0 17 C-0.33 14.36 -0.66 11.72 -1 9 C-1.99 9 -2.98 9 -4 9 C-2.68 6.03 -1.36 3.06 0 0 Z " fill="#322A1E" transform="translate(245,58)"/>
<path d="M0 0 C0.66 0.33 1.32 0.66 2 1 C1.21625 1.763125 0.4325 2.52625 -0.375 3.3125 C-3.07257717 5.90891805 -3.07257717 5.90891805 -5 9 C-4.50769231 3.46153846 -4.50769231 3.46153846 -1.9375 1.125 C-1.298125 0.75375 -0.65875 0.3825 0 0 Z " fill="#D4D5E0" transform="translate(12,37)"/>
</svg>
