<?xml version="1.0" encoding="UTF-8"?>
<svg version="1.1" xmlns="http://www.w3.org/2000/svg" width="242" height="100">
<path d="M0 0 C2.41696872 -0.05411124 4.83271787 -0.09372278 7.25 -0.125 C7.93191406 -0.14175781 8.61382812 -0.15851562 9.31640625 -0.17578125 C13.0608235 -0.21213482 15.82352727 -0.07944349 19 2 C19.33 1.34 19.66 0.68 20 0 C22.31 0 24.62 0 27 0 C29.97 5.28 32.94 10.56 36 16 C35.34 13.69 34.68 11.38 34 9 C33.60825846 7.35807097 33.23042167 5.71267205 32.875 4.0625 C32.62363281 2.90427734 32.62363281 2.90427734 32.3671875 1.72265625 C32.24601562 1.15417969 32.12484375 0.58570313 32 0 C35.74993479 -0.05811773 39.49975352 -0.09363593 43.25 -0.125 C44.84521484 -0.15013672 44.84521484 -0.15013672 46.47265625 -0.17578125 C47.49746094 -0.18222656 48.52226563 -0.18867187 49.578125 -0.1953125 C50.52075195 -0.20578613 51.46337891 -0.21625977 52.43457031 -0.22705078 C55.13743703 0.01216373 56.72786913 0.54149011 59 2 C60.1953125 4.0234375 60.1953125 4.0234375 61.125 6.375 C62.49394116 9.77301313 62.49394116 9.77301313 64.10546875 13.05859375 C65.47648984 16.03412861 65.18225879 18.78009469 65 22 C63.00687056 23.99312944 59.35263282 23.54213207 56.625 23.75 C55.93921875 23.81832031 55.2534375 23.88664062 54.546875 23.95703125 C49.45703194 24.34322557 49.45703194 24.34322557 47.0234375 22.515625 C46.68570313 22.01546875 46.34796875 21.5153125 46 21 C45.34 21.66 44.68 22.32 44 23 C42.01635742 23.3347168 42.01635742 23.3347168 39.60546875 23.44921875 C38.73212891 23.49240234 37.85878906 23.53558594 36.95898438 23.58007812 C35.58709961 23.63325195 35.58709961 23.63325195 34.1875 23.6875 C32.83301758 23.75807617 32.83301758 23.75807617 31.45117188 23.83007812 C28.96480563 23.94151702 26.48859738 23.9886217 24 24 C22.54787109 24.00966797 22.54787109 24.00966797 21.06640625 24.01953125 C18.09200557 22.55201031 17.53212096 20.28776423 16.4765625 17.2734375 C16.11691406 16.14808594 16.11691406 16.14808594 15.75 15 C14.46827781 10.1302416 14.46827781 10.1302416 12 6 C10.15108054 5.76636119 8.29511969 5.58696365 6.4375 5.4375 C5.42558594 5.35371094 4.41367188 5.26992188 3.37109375 5.18359375 C2.19740234 5.09271484 2.19740234 5.09271484 1 5 C0.67 3.35 0.34 1.7 0 0 Z M20 3 C21.58921525 8.36095277 23.18972938 13.70843973 25 19 C26.32 18.34 27.64 17.68 29 17 C25.04 10.07 25.04 10.07 21 3 C20.67 3 20.34 3 20 3 Z M48 5 C49.65 9.29 51.3 13.58 53 18 C54.65 18 56.3 18 58 18 C56.68 14.04 55.36 10.08 54 6 C51.03 5.505 51.03 5.505 48 5 Z " fill="#649832" transform="translate(78,45)"/>
<path d="M0 0 C2.58396679 -0.08112454 5.16537568 -0.14054748 7.75 -0.1875 C8.47960938 -0.21263672 9.20921875 -0.23777344 9.9609375 -0.26367188 C13.34486604 -0.30981636 15.57858557 -0.25324128 18.515625 1.51171875 C19.00546875 2.00285156 19.4953125 2.49398437 20 3 C20.33 2.01 20.66 1.02 21 0 C24.72890255 -0.1164862 28.45733514 -0.18734576 32.1875 -0.25 C33.77014648 -0.30027344 33.77014648 -0.30027344 35.38476562 -0.3515625 C43.16448397 -0.44972929 43.16448397 -0.44972929 47.0625 1.6484375 C49.24420037 4.29638836 50.53618914 6.69030051 51.8125 9.875 C52.23144531 10.88304687 52.65039062 11.89109375 53.08203125 12.9296875 C54.04099186 16.13710469 54.2474268 18.67186691 54 22 C53 23 53 23 49.2890625 23.0625 C46.94508969 23.03833533 44.60158609 22.99961363 42.2578125 22.9609375 C38.90684664 22.92650977 36.20354977 22.93215008 33 24 C30.28795754 24.08748524 27.69803191 24.16800931 25 24 C24.15308594 23.99742188 23.30617188 23.99484375 22.43359375 23.9921875 C20 23 20 23 18.33984375 19.4375 C17.8520807 17.96490746 17.38536107 16.48521448 16.9375 15 C16.08494604 12.22024422 15.15195966 9.68692382 14 7 C11.96686854 6.22599987 11.96686854 6.22599987 10 6 C10.30035156 6.72445312 10.60070313 7.44890625 10.91015625 8.1953125 C14.68717047 17.79789104 14.68717047 17.79789104 13 23 C10.36 23 7.72 23 5 23 C5.103125 21.948125 5.20625 20.89625 5.3125 19.8125 C5.36161049 14.34159144 3.17203133 9.73414168 1.09375 4.7578125 C0 2 0 2 0 0 Z M21 4 C22 6 22 6 22 6 Z M29 5 C30.65 9.95 32.3 14.9 34 20 C34.33 19.34 34.66 18.68 35 18 C38.63 18 42.26 18 46 18 C45.57674417 16.20491499 45.13589265 14.4139717 44.6875 12.625 C44.32205078 11.12839844 44.32205078 11.12839844 43.94921875 9.6015625 C43.17806142 6.6915014 43.17806142 6.6915014 40 5 C37.25481679 4.75812349 37.25481679 4.75812349 34.3125 4.875 C32.559375 4.91625 30.80625 4.9575 29 5 Z M23 9 C24 11 24 11 24 11 Z M24 12 C25 14 25 14 25 14 Z " fill="#649832" transform="translate(29,45)"/>
<path d="M0 0 C2.97 0 5.94 0 9 0 C9.33 4.29 9.66 8.58 10 13 C10.66 13 11.32 13 12 13 C12 8.71 12 4.42 12 0 C14.97 0 17.94 0 21 0 C21.13572155 2.39774745 21.23436868 4.78775245 21.3125 7.1875 C21.35439453 7.86103516 21.39628906 8.53457031 21.43945312 9.22851562 C21.53245393 13.04154862 21.12800377 14.82536462 18.85546875 17.92578125 C16 20 16 20 10 21 C14.29 21.33 18.58 21.66 23 22 C23 14.74 23 7.48 23 0 C25.97 0 28.94 0 32 0 C32.08694042 4.10403363 32.14037149 8.20783129 32.1875 12.3125 C32.21263672 13.47974609 32.23777344 14.64699219 32.26367188 15.84960938 C32.27333984 16.96787109 32.28300781 18.08613281 32.29296875 19.23828125 C32.3086792 20.26993408 32.32438965 21.30158691 32.34057617 22.36450195 C32 25 32 25 30.85546875 26.84179688 C28.18855451 28.50651282 26.14621172 28.33872505 23.01953125 28.29296875 C21.85615234 28.28330078 20.69277344 28.27363281 19.49414062 28.26367188 C17.67172852 28.2259668 17.67172852 28.2259668 15.8125 28.1875 C14.58595703 28.17396484 13.35941406 28.16042969 12.09570312 28.14648438 C9.06336336 28.11108741 6.03190004 28.0617076 3 28 C-0.65980074 22.37101513 -0.35268672 17.19011331 -0.1875 10.625 C-0.16719727 9.09166016 -0.16719727 9.09166016 -0.14648438 7.52734375 C-0.11130217 5.01767951 -0.06207539 2.5091191 0 0 Z " fill="#20622F" transform="translate(145,40)"/>
<path d="M0 0 C3.81254623 -0.02682792 7.62490612 -0.04675477 11.4375 -0.0625 C12.52611328 -0.07087891 13.61472656 -0.07925781 14.73632812 -0.08789062 C15.77080078 -0.09111328 16.80527344 -0.09433594 17.87109375 -0.09765625 C18.82943115 -0.10289307 19.78776855 -0.10812988 20.77514648 -0.11352539 C23 0 23 0 24 1 C24.08758003 2.99964982 24.10696576 5.0023611 24.09765625 7.00390625 C24.09443359 8.21884766 24.09121094 9.43378906 24.08789062 10.68554688 C24.07951172 11.96494141 24.07113281 13.24433594 24.0625 14.5625 C24.05798828 15.84576172 24.05347656 17.12902344 24.04882812 18.45117188 C24.03699545 21.63416022 24.02051068 24.81705762 24 28 C21.6739143 28.38063221 19.33944736 28.71269945 17 29 C15.34920558 27.34920558 15.77450553 25.36263821 15.68359375 23.08984375 C15.64169922 22.10048828 15.59980469 21.11113281 15.55664062 20.09179688 C15.51732422 19.05087891 15.47800781 18.00996094 15.4375 16.9375 C15.39431641 15.89271484 15.35113281 14.84792969 15.30664062 13.77148438 C15.20018775 11.18113116 15.0981724 8.59067814 15 6 C12.03 5.505 12.03 5.505 9 5 C9.02356567 5.83192871 9.02356567 5.83192871 9.04760742 6.68066406 C9.11012862 9.20367152 9.14904342 11.72651576 9.1875 14.25 C9.21263672 15.12269531 9.23777344 15.99539062 9.26367188 16.89453125 C9.33715476 23.31203624 9.33715476 23.31203624 7.74609375 26.55859375 C4.67851658 29.090889 1.90542462 28.81102784 -2 29 C-3 28 -3 28 -3.0625 24.9375 C-3.041875 23.968125 -3.02125 22.99875 -3 22 C-2.01 22 -1.02 22 0 22 C0 14.74 0 7.48 0 0 Z " fill="#21632F" transform="translate(206,40)"/>
<path d="M0 0 C2.97 0 5.94 0 9 0 C9.67189656 2.91555115 10.33769308 5.83226951 11 8.75 C11.19078125 9.575 11.3815625 10.4 11.578125 11.25 C11.75859375 12.04921875 11.9390625 12.8484375 12.125 13.671875 C12.29257813 14.4050293 12.46015625 15.13818359 12.6328125 15.89355469 C13 18 13 18 13 22 C13.66 21.67 14.32 21.34 15 21 C15.33 14.07 15.66 7.14 16 0 C18.64 0 21.28 0 24 0 C24.08694042 4.10403363 24.14037149 8.20783129 24.1875 12.3125 C24.21263672 13.47974609 24.23777344 14.64699219 24.26367188 15.84960938 C24.27333984 16.96787109 24.28300781 18.08613281 24.29296875 19.23828125 C24.3086792 20.26993408 24.32438965 21.30158691 24.34057617 22.36450195 C24 25 24 25 22.77124023 26.82592773 C20.53069466 28.31108055 19.04553264 28.44001628 16.3671875 28.546875 C15.47902344 28.58683594 14.59085938 28.62679687 13.67578125 28.66796875 C12.75152344 28.69503906 11.82726562 28.72210938 10.875 28.75 C9.94300781 28.79253906 9.01101562 28.83507812 8.05078125 28.87890625 C3.05932785 29.07507691 3.05932785 29.07507691 1 29 C0 28 0 28 -0.0625 24.9375 C-0.041875 23.968125 -0.02125 22.99875 0 22 C1.32 22 2.64 22 4 22 C3.87882813 21.44014404 3.75765625 20.88028809 3.6328125 20.3034668 C3.08536824 17.76548365 2.5426344 15.22651567 2 12.6875 C1.80921875 11.80642578 1.6184375 10.92535156 1.421875 10.01757812 C1.24140625 9.17001953 1.0609375 8.32246094 0.875 7.44921875 C0.70742187 6.66893311 0.53984375 5.88864746 0.3671875 5.0847168 C0 3 0 3 0 0 Z " fill="#21632F" transform="translate(178,40)"/>
<path d="M0 0 C0 0.99 0 1.98 0 3 C-0.73605469 3.18175781 -1.47210937 3.36351562 -2.23046875 3.55078125 C-9.49184495 5.38159253 -9.49184495 5.38159253 -16 9 C-10.32672731 15.5075775 0.58115501 17.10648772 8.79541016 17.86376953 C19.73390607 18.53970317 31.17627516 18.90558536 42 17 C42.495 18.485 42.495 18.485 43 20 C40.71396952 21.14301524 39.39053978 21.14388934 36.84838867 21.17700195 C35.98956589 21.18983719 35.1307431 21.20267242 34.24589539 21.21589661 C33.3126796 21.22328354 32.37946381 21.23067047 31.41796875 21.23828125 C30.45280838 21.246353 29.48764801 21.25442474 28.49324036 21.26274109 C26.44123129 21.27659701 24.38919902 21.28731239 22.3371582 21.29516602 C19.23797766 21.3122222 16.13990828 21.35607475 13.04101562 21.40039062 C-1.32225359 21.51372776 -12.92360902 20.52451128 -25 12 C-24.84375 10.1953125 -24.84375 10.1953125 -24 8 C-16.96035781 3.22309994 -8.5601418 0 0 0 Z " fill="#20622F" transform="translate(33,58)"/>
</svg>
