<?xml version="1.0" encoding="UTF-8"?>
<svg version="1.1" xmlns="http://www.w3.org/2000/svg" width="253" height="100">
<path d="M0 0 C4.28845849 1.93753445 8.2230885 3.98298639 11.1328125 7.76953125 C13.4982322 14.41484379 13.19833846 22.07084463 11.1328125 28.76953125 C8.33580307 32.56208642 5.45902648 34.06762725 1.1328125 35.76953125 C0.0603125 36.42953125 -1.0121875 37.08953125 -2.1171875 37.76953125 C-5.6022062 39.03681078 -7.27411036 38.66672218 -10.8671875 37.76953125 C-13.24317832 36.50087793 -15.4362821 35.23273295 -17.6796875 33.76953125 C-18.26427734 33.40085938 -18.84886719 33.0321875 -19.45117188 32.65234375 C-23.65166171 29.98505704 -23.65166171 29.98505704 -24.8671875 28.76953125 C-25.20065775 25.50869879 -25.1921074 22.23272485 -25.2421875 18.95703125 C-25.27957031 18.04115234 -25.31695312 17.12527344 -25.35546875 16.18164062 C-25.44432776 9.40367301 -25.44432776 9.40367301 -22.65234375 6.3359375 C-21.27369141 5.56056641 -21.27369141 5.56056641 -19.8671875 4.76953125 C-19.05378906 4.2075 -18.24039063 3.64546875 -17.40234375 3.06640625 C-16.58636719 2.5559375 -15.77039063 2.04546875 -14.9296875 1.51953125 C-14.11628906 0.99875 -13.30289063 0.47796875 -12.46484375 -0.05859375 C-8.02862375 -2.05989601 -4.47234308 -1.6090097 0 0 Z " fill="#666769" transform="translate(241.8671875,33.23046875)"/>
<path d="M0 0 C3.63 0 7.26 0 11 0 C11.34933594 0.99902344 11.69867188 1.99804688 12.05859375 3.02734375 C12.51807919 4.33078205 12.97772279 5.6341646 13.4375 6.9375 C13.66759766 7.59685547 13.89769531 8.25621094 14.13476562 8.93554688 C15.11964592 12.22328622 15.11964592 12.22328622 17 15 C18.66251802 9.42567486 19.18609365 5.6932495 18 0 C21.3 0 24.6 0 28 0 C32.40774487 10.37357631 32.40774487 10.37357631 33 16 C33.66 16 34.32 16 35 16 C35.18369141 14.94232422 35.18369141 14.94232422 35.37109375 13.86328125 C36.03405201 10.84496817 36.98175575 8.08110558 38.0625 5.1875 C38.42472656 4.21167969 38.78695312 3.23585937 39.16015625 2.23046875 C39.43730469 1.49441406 39.71445312 0.75835937 40 0 C41.65 0 43.3 0 45 0 C44.11866396 7.39784587 41.78850246 13.90512331 39.25 20.875 C38.81496531 22.13536875 38.38006831 23.39578503 37.9453125 24.65625 C37.51476563 25.83960937 37.08421875 27.02296875 36.640625 28.2421875 C36.06103027 29.86423096 36.06103027 29.86423096 35.46972656 31.51904297 C34 34 34 34 31.33496094 34.85986328 C30.56442383 34.9061084 29.79388672 34.95235352 29 35 C26.84705349 29.71169451 24.72066106 24.44876003 23 19 C20.95939871 22.06090193 20.04353582 24.6344687 18.9375 28.125 C17.10369069 33.89630931 17.10369069 33.89630931 16 35 C14.33382885 35.04063832 12.66611905 35.042721 11 35 C9.42752789 30.49967304 7.86111648 25.99730019 6.30029297 21.49291992 C5.76842799 19.96076587 5.23490915 18.4291849 4.69970703 16.89819336 C3.93086565 14.69793764 3.16798853 12.49569199 2.40625 10.29296875 C2.16563843 9.60849167 1.92502686 8.92401459 1.67712402 8.21879578 C0.68774761 5.34162782 0 3.06690063 0 0 Z " fill="#E34941" transform="translate(0,34)"/>
<path d="M0 0 C4.5375 -0.12375 9.075 -0.2475 13.75 -0.375 C15.88807129 -0.45693604 15.88807129 -0.45693604 18.06933594 -0.54052734 C27.08844175 -0.6604554 27.08844175 -0.6604554 29.78320312 1.29199219 C31.27613709 3.457668 32 5.36013437 32 8 C32.66 8 33.32 8 34 8 C34.28875 7.236875 34.5775 6.47375 34.875 5.6875 C36 3 36 3 38 0 C40.625 -0.1875 40.625 -0.1875 43 0 C41.97838981 3.71494613 40.71341694 6.44790329 38.4375 9.5 C34.74048545 15.06726897 35.10016139 21.5168263 35 28 C32.36 28 29.72 28 27 28 C26.99613281 26.78376953 26.99613281 26.78376953 26.9921875 25.54296875 C26.69212462 16.95116841 24.69975816 11.1718022 20 4 C16.37 4 12.74 4 9 4 C9 6.31 9 8.62 9 11 C11.97 11 14.94 11 18 11 C18 12.65 18 14.3 18 16 C15.03 16 12.06 16 9 16 C9 18.64 9 21.28 9 24 C12.3 24 15.6 24 19 24 C19 25.32 19 26.64 19 28 C12.73 28 6.46 28 0 28 C0 18.76 0 9.52 0 0 Z " fill="#E24139" transform="translate(158,39)"/>
<path d="M0 0 C3.97588461 2.06375366 5.9588859 4.32385458 7.90625 8.26953125 C8.75753275 13.11326408 9.05919347 18.10543024 6.69921875 22.53515625 C3.67628751 26.17797972 0.57768261 28.89553069 -4.2421875 29.5703125 C-9.27887597 29.59682139 -12.79151916 29.17103577 -17.09375 26.26953125 C-21.44205701 21.5686588 -22.46231931 17.7946641 -22.37109375 11.55078125 C-21.78157613 6.70179122 -18.9486148 4.04298036 -15.46875 0.89453125 C-10.37762526 -1.55675103 -5.38780668 -1.87970121 0 0 Z M-10.28125 4.64453125 C-12.87931093 8.40724019 -13.28612309 11.74136467 -13.09375 16.26953125 C-12.45903607 19.37026489 -11.58049946 21.39856677 -10.09375 24.26953125 C-8.16091511 25.19821381 -8.16091511 25.19821381 -6.09375 25.26953125 C-3.32041082 23.0508599 -2.22501558 21.663328 -1.09375 18.26953125 C-0.67249176 13.94353317 -0.65961933 10.31144486 -2.34375 6.26953125 C-3.94790707 4.2053404 -3.94790707 4.2053404 -6.03125 3.20703125 C-8.23301307 3.09955658 -8.23301307 3.09955658 -10.28125 4.64453125 Z " fill="#E34A42" transform="translate(64.09375,38.73046875)"/>
<path d="M0 0 C3.71882518 0.84815311 5.59570357 2.80949565 8.2265625 5.5078125 C6.8515625 7.5078125 6.8515625 7.5078125 5.2265625 9.5078125 C4.5665625 9.5078125 3.9065625 9.5078125 3.2265625 9.5078125 C2.5665625 8.5178125 1.9065625 7.5278125 1.2265625 6.5078125 C-0.0934375 6.5078125 -1.4134375 6.5078125 -2.7734375 6.5078125 C-2.7734375 7.4978125 -2.7734375 8.4878125 -2.7734375 9.5078125 C-2.23074219 9.76175781 -1.68804687 10.01570313 -1.12890625 10.27734375 C-0.05576172 10.79361328 -0.05576172 10.79361328 1.0390625 11.3203125 C2.10060547 11.82498047 2.10060547 11.82498047 3.18359375 12.33984375 C5.31771741 13.55992592 6.72424166 14.56035956 8.2265625 16.5078125 C8.84918628 19.55362073 8.74128486 22.4471516 8.2265625 25.5078125 C6.35035637 28.00942068 4.98764947 29.12726902 2.2265625 30.5078125 C-1.58834825 31.0419 -5.24238508 31.34010874 -8.69921875 29.4609375 C-10.3359375 28.1328125 -10.3359375 28.1328125 -12.7734375 25.5078125 C-12.7734375 24.8478125 -12.7734375 24.1878125 -12.7734375 23.5078125 C-11.1234375 22.8478125 -9.4734375 22.1878125 -7.7734375 21.5078125 C-7.3609375 21.9821875 -6.9484375 22.4565625 -6.5234375 22.9453125 C-4.5912525 24.67047768 -3.29151475 25.07366125 -0.7734375 25.5078125 C-1.13905065 22.86414821 -1.42387414 21.78592664 -3.55078125 20.09375 C-4.26363281 19.69414063 -4.97648437 19.29453125 -5.7109375 18.8828125 C-8.09763042 17.52270075 -9.81674237 16.46450763 -11.7734375 14.5078125 C-12.63913159 9.8695147 -12.36702429 6.44606258 -9.8359375 2.4453125 C-6.28068662 0.19607215 -4.13937356 -0.20766088 0 0 Z " fill="#E44E46" transform="translate(105.7734375,37.4921875)"/>
<path d="M0 0 C6.27 0 12.54 0 19 0 C19 1.32 19 2.64 19 4 C15.7 4 12.4 4 9 4 C9 6.31 9 8.62 9 11 C11.97 11 14.94 11 18 11 C18 12.65 18 14.3 18 16 C15.03 16 12.06 16 9 16 C9 18.64 9 21.28 9 24 C12.3 24 15.6 24 19 24 C19 25.32 19 26.64 19 28 C12.73 28 6.46 28 0 28 C0 18.76 0 9.52 0 0 Z " fill="#E2443C" transform="translate(116,39)"/>
<path d="M0 0 C2.97 0 5.94 0 9 0 C9 7.92 9 15.84 9 24 C12.3 24 15.6 24 19 24 C19 25.32 19 26.64 19 28 C12.73 28 6.46 28 0 28 C0 18.76 0 9.52 0 0 Z " fill="#E23F37" transform="translate(138,39)"/>
<path d="M0 0 C2.97 0 5.94 0 9 0 C9 7.92 9 15.84 9 24 C12.3 24 15.6 24 19 24 C19 25.32 19 26.64 19 28 C12.73 28 6.46 28 0 28 C0 18.76 0 9.52 0 0 Z " fill="#E2443B" transform="translate(74,39)"/>
<path d="M0 0 C0.66 0 1.32 0 2 0 C2.66 0.99 3.32 1.98 4 3 C4.66 3 5.32 3 6 3 C6 4.65 6 6.3 6 8 C6.66 7.67 7.32 7.34 8 7 C10.125 7.4375 10.125 7.4375 12 8 C12.36666667 13.5 12.36666667 13.5 10.625 15.875 C9 17 9 17 7 17 C7 17.99 7 18.98 7 20 C5.35 20 3.7 20 2 20 C2 21.98 2 23.96 2 26 C1.34 26 0.68 26 0 26 C0 24.02 0 22.04 0 20 C-1.65 20 -3.3 20 -5 20 C-5.33 19.01 -5.66 18.02 -6 17 C-7.0209375 16.3503125 -7.0209375 16.3503125 -8.0625 15.6875 C-10 14 -10 14 -10.25 10.8125 C-10.1675 9.884375 -10.085 8.95625 -10 8 C-8.34385343 7.61781233 -6.67542976 7.28604898 -5 7 C-4.67 7.33 -4.34 7.66 -4 8 C-3.67 6.68 -3.34 5.36 -3 4 C-2.34 4 -1.68 4 -1 4 C-0.67 2.68 -0.34 1.36 0 0 Z " fill="#F3F3F4" transform="translate(234,39)"/>
</svg>
